<?xml version="1.0" encoding="UTF-8"?>
<svg version="1.1" xmlns="http://www.w3.org/2000/svg" width="427" height="585">
<path d="M0 0 C0.87382324 -0.00926514 1.74764648 -0.01853027 2.64794922 -0.02807617 C9.97012524 0.00690893 17.19639421 0.19496596 23.51171875 4.19921875 C26.35684509 8.70640672 26.21837357 12.83008357 26.25 18.0625 C26.27513672 19.04154297 26.30027344 20.02058594 26.32617188 21.02929688 C26.38488663 23.43660197 26.4212798 25.84209562 26.4375 28.25 C27.9225 28.745 27.9225 28.745 29.4375 29.25 C29.499375 30.260625 29.56125 31.27125 29.625 32.3125 C30.27459033 36.8230357 32.36187083 39.95162331 35.4375 43.25 C38.00360666 45.05796103 38.00360666 45.05796103 40.4375 46.25 C44.08171548 49.89421548 43.58579315 54.26028394 43.62646484 59.15649414 C43.62598145 60.03297607 43.62549805 60.90945801 43.625 61.8125 C43.62709473 62.70767334 43.62918945 63.60284668 43.63134766 64.52514648 C43.59271859 70.28453082 43.13105907 75.65447888 41.6796875 81.25390625 C41.17922784 83.56771188 41.17922784 83.56771188 43.4375 86.25 C43.11957441 88.72981957 42.57626623 90.88777191 41.68249512 93.2208252 C41.60164673 93.89045288 41.52079834 94.56008057 41.4375 95.25 C42.87538343 96.79751541 42.87538343 96.79751541 44.83007812 98.27929688 C50.96460105 104.93055561 49.30989304 114.31126925 49.15625 122.78125 C49.14606546 124.74548035 49.13893511 126.70972861 49.13465881 128.67398071 C49.11435163 133.93916406 49.05060711 139.20299782 48.97826004 144.46768951 C48.90978244 149.98202973 48.88112337 155.49658844 48.84741211 161.01123047 C48.7673218 172.83225888 48.63054513 184.65216231 48.47389984 196.47239685 C48.43062663 199.77449377 48.3904667 203.07662252 48.35070229 206.3787632 C48.20493508 218.43230719 48.01993028 230.48482347 47.79452515 242.53713989 C47.43173154 261.9895014 47.22415553 281.44248902 47.03077793 300.89719582 C46.95975716 308.01859482 46.88335923 315.13992033 46.80395508 322.26123047 C46.75977698 326.24967282 46.71576887 330.23811701 46.671875 334.2265625 C46.65566888 335.69487581 46.65566888 335.69487581 46.63913536 337.19285202 C46.50950423 349.04150375 46.40937237 360.88969545 46.35327148 372.73892212 C46.32683844 378.17724039 46.28436728 383.61539009 46.23623657 389.05355644 C46.20009643 393.26768906 46.18436643 397.48118811 46.18523026 401.695467 C46.17954402 404.84403131 46.14204146 407.99224263 46.109375 411.140625 C46.11648499 412.23402191 46.12359497 413.32741882 46.13092041 414.45394897 C46.00322429 422.37681333 44.26722626 429.36215162 38.55535889 435.16070557 C33.75354546 439.22160562 28.45695101 440.79602633 22.4375 442.25 C21.179375 442.62125 19.92125 442.9925 18.625 443.375 C8.21127139 445.87105424 -2.96132193 445.43645767 -13.61791992 445.43530273 C-15.86201019 445.43748735 -18.10560543 445.45572334 -20.34960938 445.47460938 C-36.56159887 445.53771003 -52.6852926 444.19269679 -67.5625 437.25 C-67.5625 436.59 -67.5625 435.93 -67.5625 435.25 C-68.16707031 434.99476563 -68.77164063 434.73953125 -69.39453125 434.4765625 C-71.82216472 433.10309059 -72.77153383 431.96629343 -74.25 429.625 C-74.66636719 428.99335938 -75.08273438 428.36171875 -75.51171875 427.7109375 C-78.47208648 420.77773426 -77.70515172 412.42747456 -77.69189453 405.03540039 C-77.69447628 403.20752786 -77.69447628 403.20752786 -77.69711018 401.34272861 C-77.70070288 397.9734963 -77.69975834 394.60432356 -77.69668651 391.23509455 C-77.69482247 388.33536054 -77.69659083 385.43563312 -77.69836229 382.5358994 C-77.7041584 372.96269847 -77.69780199 363.38952118 -77.68950987 353.81632376 C-77.68683696 350.48650416 -77.68499691 347.15668434 -77.68317896 343.82686418 C-77.66940737 318.9073051 -77.62741952 293.9878385 -77.56907177 269.06834602 C-77.56247046 266.23733163 -77.55602493 263.40631692 -77.54959869 260.57530212 C-77.49791322 238.01476903 -77.42976759 215.45437848 -77.32357025 192.89403057 C-77.31505427 191.08404734 -77.3065424 189.27406408 -77.29803467 187.46408081 C-77.29173538 186.12723467 -77.29173538 186.12723467 -77.28530884 184.76338154 C-77.2563865 178.47720561 -77.23496059 172.19103054 -77.21661377 165.90481567 C-77.19404301 158.23039073 -77.16088612 150.55610065 -77.11399907 142.8817842 C-77.09025452 138.95573012 -77.07120912 135.02980373 -77.06485176 131.10367966 C-77.05884105 127.50266994 -77.03902112 123.9020088 -77.00821662 120.30112827 C-76.99530995 118.37926538 -76.99701095 116.45732156 -76.99922371 114.5354166 C-76.91652474 106.98773519 -76.39861339 102.1536399 -70.9375 96.5625 C-69.761875 95.4178125 -69.761875 95.4178125 -68.5625 94.25 C-68.0675 92.765 -68.0675 92.765 -67.5625 91.25 C-68.2225 91.25 -68.8825 91.25 -69.5625 91.25 C-69.8925 88.94 -70.2225 86.63 -70.5625 84.25 C-69.0775 83.755 -69.0775 83.755 -67.5625 83.25 C-67.88992187 82.36183594 -68.21734375 81.47367187 -68.5546875 80.55859375 C-70.16579915 74.91970299 -69.77340552 69.12433887 -69.6875 63.3125 C-69.67847656 62.15169922 -69.66945312 60.99089844 -69.66015625 59.79492188 C-69.63671162 56.94639892 -69.60389522 54.09830922 -69.5625 51.25 C-73.08631687 53.79604597 -73.08631687 53.79604597 -75.5625 57.25 C-75.69248415 58.87708711 -75.76506051 60.50893471 -75.80859375 62.140625 C-75.8559668 63.65329956 -75.8559668 63.65329956 -75.90429688 65.1965332 C-75.93587891 66.28667725 -75.96746094 67.37682129 -76 68.5 C-76.31471739 77.79416476 -76.90650156 87.00311036 -77.83178711 96.25512695 C-78.52944077 103.37795624 -78.92802645 110.48979727 -79.1328125 117.64379883 C-79.31240855 122.49442282 -79.89154095 126.67276574 -81.5625 131.25 C-84.36120027 132.64935013 -86.46748792 132.50265405 -89.5625 132.25 C-91.23876953 131.0234375 -91.23876953 131.0234375 -92.5625 129.25 C-92.88623047 127.0859375 -92.88623047 127.0859375 -92.8046875 124.625 C-92.76359863 123.28695312 -92.76359863 123.28695312 -92.72167969 121.921875 C-92.48892879 118.01508695 -92.12143718 114.13908218 -91.6875 110.25 C-90.97303944 103.42243627 -90.43544141 96.59938308 -90.0546875 89.74609375 C-90.01320587 89.00195221 -89.97172424 88.25781067 -89.9289856 87.49111938 C-89.7245345 83.77124953 -89.53091141 80.05107285 -89.34814453 76.33007812 C-88.13321043 52.66360385 -88.13321043 52.66360385 -81.3671875 45.85546875 C-79.16619269 43.8974409 -76.88073487 42.0669949 -74.5625 40.25 C-73.20422029 38.60360035 -71.86995749 36.93704193 -70.5625 35.25 C-68.4375 32.9375 -68.4375 32.9375 -66.5625 31.25 C-65.9025 31.25 -65.2425 31.25 -64.5625 31.25 C-64.5625 30.59 -64.5625 29.93 -64.5625 29.25 C-63 28.5 -63 28.5 -60.5625 28.25 C-59.12390625 29.2090625 -59.12390625 29.2090625 -57.65625 30.1875 C-52.62029872 33.18607556 -47.34550104 32.92188018 -41.625 33 C-40.55958984 33.02964844 -39.49417969 33.05929688 -38.39648438 33.08984375 C-35.78508213 33.16010569 -33.17454996 33.21301748 -30.5625 33.25 C-29.90887159 30.16330895 -29.40128069 27.14304217 -29.1328125 24 C-29.05933594 23.2265625 -28.98585937 22.453125 -28.91015625 21.65625 C-28.76178334 20.0527814 -28.62114849 18.44857784 -28.48828125 16.84375 C-27.94407405 11.3094395 -26.70344715 7.8818273 -23.1484375 3.51171875 C-17.31004178 -1.13311331 -7.0917571 0.04682882 0 0 Z " fill="#292929" transform="translate(227.5625,73.75)"/>
<path d="M0 0 C1.3293457 -0.01836914 1.3293457 -0.01836914 2.68554688 -0.03710938 C10.09376174 -0.05331991 17.36635593 0.08171742 23.76171875 4.13671875 C26.60684509 8.64390672 26.46837357 12.76758357 26.5 18 C26.52513672 18.97904297 26.55027344 19.95808594 26.57617188 20.96679688 C26.63488663 23.37410197 26.6712798 25.77959562 26.6875 28.1875 C27.6775 28.5175 28.6675 28.8475 29.6875 29.1875 C29.749375 30.198125 29.81125 31.20875 29.875 32.25 C30.52459033 36.7605357 32.61187083 39.88912331 35.6875 43.1875 C38.25360666 44.99546103 38.25360666 44.99546103 40.6875 46.1875 C44.33171548 49.83171548 43.83579315 54.19778394 43.87646484 59.09399414 C43.87598145 59.97047607 43.87549805 60.84695801 43.875 61.75 C43.87709473 62.64517334 43.87918945 63.54034668 43.88134766 64.46264648 C43.84271859 70.22203082 43.38105907 75.59197888 41.9296875 81.19140625 C41.42922784 83.50521188 41.42922784 83.50521188 43.6875 86.1875 C43.36684867 88.68858041 42.79839058 90.88255089 41.9375 93.25 C41.45525655 95.35446472 41.45525655 95.35446472 43.125 97.4375 C43.8984375 98.30375 43.8984375 98.30375 44.6875 99.1875 C42.7075 99.1875 40.7275 99.1875 38.6875 99.1875 C37.74945805 96.37337415 37.60665954 94.82754645 37.6875 91.9375 C37.7403752 87.89915663 37.36455203 84.16518069 36.6875 80.1875 C31.7729502 79.00461562 26.81958965 78.7658205 21.79296875 78.43359375 C20.84561356 78.36842056 19.89825836 78.30324738 18.92219543 78.23609924 C15.90666277 78.02934803 12.89084668 77.82711388 9.875 77.625 C7.82615153 77.48532418 5.77732313 77.34535359 3.72851562 77.20507812 C-1.28493005 76.86246898 -6.29863467 76.5239097 -11.3125 76.1875 C-11.03008359 74.72734709 -10.73623386 73.26940207 -10.4375 71.8125 C-10.27507812 71.00039062 -10.11265625 70.18828125 -9.9453125 69.3515625 C-9.3125 67.1875 -9.3125 67.1875 -7.3125 65.1875 C-5.34130859 64.86865234 -5.34130859 64.86865234 -2.9609375 64.7734375 C-2.11015625 64.73476562 -1.259375 64.69609375 -0.3828125 64.65625 C0.50664062 64.6253125 1.39609375 64.594375 2.3125 64.5625 C3.2096875 64.52382812 4.106875 64.48515625 5.03125 64.4453125 C7.2497927 64.35090643 9.46832403 64.26533252 11.6875 64.1875 C11.501875 63.24003906 11.31625 62.29257813 11.125 61.31640625 C10.63790199 57.83278566 11.15134029 57.16380943 12.6875 54.1875 C12.1925 51.7125 12.1925 51.7125 11.6875 49.1875 C7.7275 48.8575 3.7675 48.5275 -0.3125 48.1875 C-0.02375 49.05375 0.265 49.92 0.5625 50.8125 C0.93375 51.92625 1.305 53.04 1.6875 54.1875 C2.079375 55.26 2.47125 56.3325 2.875 57.4375 C3.6875 60.1875 3.6875 60.1875 2.6875 62.1875 C0.36593403 62.59479228 -1.9693787 62.93188677 -4.3125 63.1875 C-5.7731285 60.54011084 -6.3125 59.29301666 -6.3125 56.1875 C-5.6525 56.1875 -4.9925 56.1875 -4.3125 56.1875 C-3.6525 53.2175 -2.9925 50.2475 -2.3125 47.1875 C-3.6325 47.1875 -4.9525 47.1875 -6.3125 47.1875 C-6.3125 45.8675 -6.3125 44.5475 -6.3125 43.1875 C11.54399203 43.00298975 11.54399203 43.00298975 19.6875 44.1875 C19.6875 43.1975 19.6875 42.2075 19.6875 41.1875 C18.6975 40.6925 18.6975 40.6925 17.6875 40.1875 C21.3175 40.1875 24.9475 40.1875 28.6875 40.1875 C28.56375 38.558125 28.44 36.92875 28.3125 35.25 C28.20808594 33.87521484 28.20808594 33.87521484 28.1015625 32.47265625 C27.89660156 31.34150391 27.89660156 31.34150391 27.6875 30.1875 C27.0275 29.8575 26.3675 29.5275 25.6875 29.1875 C24.0931101 24.47596691 24.40847866 19.31669074 24.34570312 14.38671875 C24.20689644 10.70027138 24.09618684 8.74889272 21.87890625 5.703125 C18.9064367 3.64729936 16.24357505 3.46104423 12.6875 3.1875 C12.93306641 4.13689453 12.93306641 4.13689453 13.18359375 5.10546875 C13.86203601 9.25501093 13.79305375 13.30391498 13.75 17.5 C13.74548828 18.33595703 13.74097656 19.17191406 13.73632812 20.03320312 C13.72460548 22.08466649 13.70667203 24.13609273 13.6875 26.1875 C12.20843108 26.21439216 10.72922517 26.23384621 9.25 26.25 C8.01443359 26.26740234 8.01443359 26.26740234 6.75390625 26.28515625 C4.6875 26.1875 4.6875 26.1875 3.6875 25.1875 C3.58719781 22.96020128 3.55784054 20.72955117 3.5625 18.5 C3.55992187 17.27925781 3.55734375 16.05851562 3.5546875 14.80078125 C3.67602832 11.49959715 4.06067454 8.4260982 4.6875 5.1875 C6.9975 5.1875 9.3075 5.1875 11.6875 5.1875 C11.6875 4.1975 11.6875 3.2075 11.6875 2.1875 C2.1175 2.1875 -7.4525 2.1875 -17.3125 2.1875 C-17.3125 1.8575 -17.3125 1.5275 -17.3125 1.1875 C-11.51548423 0.19621823 -5.8752746 0.00421771 0 0 Z " fill="#282828" transform="translate(227.3125,73.8125)"/>
<path d="M0 0 C0.72822464 0.00424484 1.45644928 0.00848969 2.20674133 0.01286316 C4.53013252 0.02964142 6.85265275 0.0672902 9.17578125 0.10546875 C10.75194059 0.12051678 12.32811354 0.13420498 13.90429688 0.14648438 C17.76596002 0.1795419 21.62697303 0.23131681 25.48828125 0.29296875 C25.48828125 1.28296875 25.48828125 2.27296875 25.48828125 3.29296875 C23.17828125 3.29296875 20.86828125 3.29296875 18.48828125 3.29296875 C18.48828125 9.89296875 18.48828125 16.49296875 18.48828125 23.29296875 C21.45828125 23.62296875 24.42828125 23.95296875 27.48828125 24.29296875 C27.15828125 16.70296875 26.82828125 9.11296875 26.48828125 1.29296875 C33.48828125 1.29296875 33.48828125 1.29296875 36.375 3.1171875 C39.41945629 7.69231313 39.26822683 11.71952058 39.30078125 17.10546875 C39.32591797 18.08451172 39.35105469 19.06355469 39.37695312 20.07226562 C39.43566788 22.47957072 39.47206105 24.88506437 39.48828125 27.29296875 C40.97328125 27.78796875 40.97328125 27.78796875 42.48828125 28.29296875 C42.48828125 30.60296875 42.48828125 32.91296875 42.48828125 35.29296875 C41.16828125 35.29296875 39.84828125 35.29296875 38.48828125 35.29296875 C38.48828125 34.63296875 38.48828125 33.97296875 38.48828125 33.29296875 C37.47701172 34.02966797 37.47701172 34.02966797 36.4453125 34.78125 C32.78443209 36.65279652 30.26289392 36.59506069 26.17578125 36.48046875 C24.92152344 36.45339844 23.66726562 36.42632812 22.375 36.3984375 C20.94607422 36.34623047 20.94607422 36.34623047 19.48828125 36.29296875 C19.15828125 35.30296875 18.82828125 34.31296875 18.48828125 33.29296875 C17.49828125 33.29296875 16.50828125 33.29296875 15.48828125 33.29296875 C15.48828125 34.28296875 15.48828125 35.27296875 15.48828125 36.29296875 C13.50828125 36.29296875 11.52828125 36.29296875 9.48828125 36.29296875 C9.48828125 35.96296875 9.48828125 35.63296875 9.48828125 35.29296875 C-4.52749461 34.49774742 -18.47397817 34.16496504 -32.51171875 34.29296875 C-32.84171875 34.95296875 -33.17171875 35.61296875 -33.51171875 36.29296875 C-31.86171875 36.62296875 -30.21171875 36.95296875 -28.51171875 37.29296875 C-29.50171875 38.28296875 -30.49171875 39.27296875 -31.51171875 40.29296875 C-30.85171875 40.95296875 -30.19171875 41.61296875 -29.51171875 42.29296875 C-35.94671875 42.78796875 -35.94671875 42.78796875 -42.51171875 43.29296875 C-40.8056735 39.02785562 -39.41384161 36.67877876 -36.51171875 33.29296875 C-39.97671875 35.76796875 -39.97671875 35.76796875 -43.51171875 38.29296875 C-44.17171875 37.96296875 -44.83171875 37.63296875 -45.51171875 37.29296875 C-44.85171875 36.63296875 -44.19171875 35.97296875 -43.51171875 35.29296875 C-43.80541702 33.9503481 -44.13961455 32.61600592 -44.51171875 31.29296875 C-44.18171875 30.63296875 -43.85171875 29.97296875 -43.51171875 29.29296875 C-45.82171875 29.29296875 -48.13171875 29.29296875 -50.51171875 29.29296875 C-50.51171875 28.63296875 -50.51171875 27.97296875 -50.51171875 27.29296875 C-48.94921875 26.54296875 -48.94921875 26.54296875 -46.51171875 26.29296875 C-45.55265625 26.93234375 -44.59359375 27.57171875 -43.60546875 28.23046875 C-38.56951747 31.22904431 -33.29471979 30.96484893 -27.57421875 31.04296875 C-26.50880859 31.07261719 -25.44339844 31.10226563 -24.34570312 31.1328125 C-21.73430088 31.20307444 -19.12376871 31.25598623 -16.51171875 31.29296875 C-15.85809034 28.2062777 -15.35049944 25.18601092 -15.08203125 22.04296875 C-15.00855469 21.26953125 -14.93507812 20.49609375 -14.859375 19.69921875 C-14.71100209 18.09575015 -14.57036724 16.49154659 -14.4375 14.88671875 C-13.98677678 10.30309275 -13.3784656 7.05990181 -10.51171875 3.29296875 C-10.13829346 2.76018311 -9.76486816 2.22739746 -9.38012695 1.6784668 C-6.48862732 -0.46569372 -3.45505459 -0.07573795 0 0 Z " fill="#232323" transform="translate(213.51171875,75.70703125)"/>
<path d="M0 0 C0 3 0 3 -1 5 C-0.34 5 0.32 5 1 5 C1 6.65 1 8.3 1 10 C2.32 10.33 3.64 10.66 5 11 C4.67 11.66 4.34 12.32 4 13 C3.87001585 14.62708711 3.79743949 16.25893471 3.75390625 17.890625 C3.72232422 18.89907471 3.69074219 19.90752441 3.65820312 20.9465332 C3.62662109 22.03667725 3.59503906 23.12682129 3.5625 24.25 C3.24778261 33.54416476 2.65599844 42.75311036 1.73071289 52.00512695 C1.03305923 59.12795624 0.63447355 66.23979727 0.4296875 73.39379883 C0.25009145 78.24442282 -0.32904095 82.42276574 -2 87 C-4.79870027 88.39935013 -6.90498792 88.25265405 -10 88 C-11.67626953 86.7734375 -11.67626953 86.7734375 -13 85 C-13.32373047 82.8359375 -13.32373047 82.8359375 -13.2421875 80.375 C-13.20109863 79.03695312 -13.20109863 79.03695312 -13.15917969 77.671875 C-12.92642879 73.76508695 -12.55893718 69.88908218 -12.125 66 C-11.41053944 59.17243627 -10.87294141 52.34938308 -10.4921875 45.49609375 C-10.45070587 44.75195221 -10.40922424 44.00781067 -10.3664856 43.24111938 C-10.1620345 39.52124953 -9.96841141 35.80107285 -9.78564453 32.08007812 C-8.53809266 7.76190242 -8.53809266 7.76190242 0 0 Z " fill="#282726" transform="translate(148,118)"/>
<path d="M0 0 C9.57 0 19.14 0 29 0 C29 0.99 29 1.98 29 3 C26.69 3 24.38 3 22 3 C21.90912109 4.37671875 21.90912109 4.37671875 21.81640625 5.78125 C21.37688758 12.218508 20.89469001 18.60935705 20 25 C16.98509443 26.00496852 14.95818308 26.10335303 11.8125 26.0625 C10.91144531 26.05347656 10.01039063 26.04445313 9.08203125 26.03515625 C8.39496094 26.02355469 7.70789063 26.01195313 7 26 C7.33 25.34 7.66 24.68 8 24 C8.24181034 16.62478458 7.6357436 9.34510913 7 2 C6.34 2 5.68 2 5 2 C5.0721875 2.82242188 5.144375 3.64484375 5.21875 4.4921875 C5.78956392 11.35781052 6.1028127 18.1115493 6 25 C1.05 25.495 1.05 25.495 -4 26 C-4.2983948 17.19735329 -3.98546345 7.9709269 0 0 Z " fill="#1C1B1C" transform="translate(210,76)"/>
<path d="M0 0 C0.99 0 1.98 0 3 0 C3 0.66 3 1.32 3 2 C2.34 2 1.68 2 1 2 C1 2.66 1 3.32 1 4 C4.18234105 2.24545615 4.18234105 2.24545615 7 0 C9.875 -0.3125 9.875 -0.3125 13 0 C14.875 2 14.875 2 16 4 C15.2265625 5.0828125 15.2265625 5.0828125 14.4375 6.1875 C12.76487989 9.46001761 12.97983615 10.56853977 14 14 C14 14.66 14 15.32 14 16 C14.66 16.66 15.32 17.32 16 18 C14.68 19.32 13.36 20.64 12 22 C12.33 22.66 12.66 23.32 13 24 C12.34 24.33 11.68 24.66 11 25 C10.67 25.99 10.34 26.98 10 28 C10.66 28.33 11.32 28.66 12 29 C12 29.66 12 30.32 12 31 C10.02 31.99 10.02 31.99 8 33 C9.32 33.66 10.64 34.32 12 35 C8.04 35 4.08 35 0 35 C0 34.34 0 33.68 0 33 C1.485 32.505 1.485 32.505 3 32 C1.68 31.67 0.36 31.34 -1 31 C-0.814375 30.443125 -0.62875 29.88625 -0.4375 29.3125 C0.08460703 26.5527914 -0.437403 24.75047422 -1 22 C-1.08961137 19.32659425 -1.04535771 16.6761048 -1 14 C-1.66 13.67 -2.32 13.34 -3 13 C-3 9.41936487 -2.65592475 7.52512014 -1.5 4.25 C-1.2215625 3.45078125 -0.943125 2.6515625 -0.65625 1.828125 C-0.4396875 1.22484375 -0.223125 0.6215625 0 0 Z " fill="#333231" transform="translate(208,352)"/>
<path d="M0 0 C1.3293457 -0.01836914 1.3293457 -0.01836914 2.68554688 -0.03710938 C10.09376174 -0.05331991 17.36635593 0.08171742 23.76171875 4.13671875 C26.60684509 8.64390672 26.46837357 12.76758357 26.5 18 C26.52513672 18.97904297 26.55027344 19.95808594 26.57617188 20.96679688 C26.63488663 23.37410197 26.6712798 25.77959562 26.6875 28.1875 C27.6775 28.5175 28.6675 28.8475 29.6875 29.1875 C29.749375 30.198125 29.81125 31.20875 29.875 32.25 C30.52459033 36.7605357 32.61187083 39.88912331 35.6875 43.1875 C38.25360666 44.99546103 38.25360666 44.99546103 40.6875 46.1875 C41.3475 46.8475 42.0075 47.5075 42.6875 48.1875 C42.3125 50.3125 42.3125 50.3125 41.6875 52.1875 C41.501875 51.56875 41.31625 50.95 41.125 50.3125 C39.40079426 47.76367412 37.97656955 47.32500168 35.0390625 46.625 C29.94266446 45.67683292 24.8197143 44.91295586 19.6875 44.1875 C19.6875 43.1975 19.6875 42.2075 19.6875 41.1875 C18.6975 40.6925 18.6975 40.6925 17.6875 40.1875 C21.3175 40.1875 24.9475 40.1875 28.6875 40.1875 C28.56375 38.558125 28.44 36.92875 28.3125 35.25 C28.20808594 33.87521484 28.20808594 33.87521484 28.1015625 32.47265625 C27.89660156 31.34150391 27.89660156 31.34150391 27.6875 30.1875 C27.0275 29.8575 26.3675 29.5275 25.6875 29.1875 C24.0931101 24.47596691 24.40847866 19.31669074 24.34570312 14.38671875 C24.20689644 10.70027138 24.09618684 8.74889272 21.87890625 5.703125 C18.9064367 3.64729936 16.24357505 3.46104423 12.6875 3.1875 C12.93306641 4.13689453 12.93306641 4.13689453 13.18359375 5.10546875 C13.86203601 9.25501093 13.79305375 13.30391498 13.75 17.5 C13.74548828 18.33595703 13.74097656 19.17191406 13.73632812 20.03320312 C13.72460548 22.08466649 13.70667203 24.13609273 13.6875 26.1875 C12.20843108 26.21439216 10.72922517 26.23384621 9.25 26.25 C8.01443359 26.26740234 8.01443359 26.26740234 6.75390625 26.28515625 C4.6875 26.1875 4.6875 26.1875 3.6875 25.1875 C3.58719781 22.96020128 3.55784054 20.72955117 3.5625 18.5 C3.55992187 17.27925781 3.55734375 16.05851562 3.5546875 14.80078125 C3.67602832 11.49959715 4.06067454 8.4260982 4.6875 5.1875 C6.9975 5.1875 9.3075 5.1875 11.6875 5.1875 C11.6875 4.1975 11.6875 3.2075 11.6875 2.1875 C2.1175 2.1875 -7.4525 2.1875 -17.3125 2.1875 C-17.3125 1.8575 -17.3125 1.5275 -17.3125 1.1875 C-11.51548423 0.19621823 -5.8752746 0.00421771 0 0 Z " fill="#8B8A88" transform="translate(227.3125,73.8125)"/>
<path d="M0 0 C0.13567574 16.36458189 -0.16941765 32.65564152 -1 49 C-2.32 49 -3.64 49 -5 49 C-5.33 49.99 -5.66 50.98 -6 52 C-6.66 52 -7.32 52 -8 52 C-9.56034281 48.87931438 -9.1629615 45.55862992 -9.16796875 42.1328125 C-9.17129715 41.34284882 -9.17462555 40.55288513 -9.17805481 39.73898315 C-9.18312645 38.05939313 -9.18546306 36.37979299 -9.18530273 34.70019531 C-9.18746182 32.16974364 -9.20553746 29.63974787 -9.22460938 27.109375 C-9.25459422 18.21079664 -8.92810201 9.73708776 -7 1 C-4.35118859 0.11706286 -2.74807818 0 0 0 Z " fill="#2D2C2B" transform="translate(150,129)"/>
<path d="M0 0 C1.97062683 1.48431396 1.97062683 1.48431396 4 4 C4.38024801 6.88053484 4.51706094 9.37363179 4.4699707 12.25097656 C4.47213561 13.08654524 4.47430052 13.92211391 4.47653103 14.78300285 C4.47879051 17.56926719 4.45237467 20.35449804 4.42578125 23.140625 C4.4212223 25.1105824 4.41834693 27.08054434 4.41705322 29.05050659 C4.40827304 34.34821149 4.37415073 39.64547665 4.33476639 44.94303131 C4.30495462 49.37062832 4.28979376 53.79822478 4.27481747 58.22589302 C4.17835662 86.5129172 3.88792835 114.79586048 3.35977173 143.078125 C2.93444504 165.9638947 2.70526521 188.85154299 2.47089767 211.73995209 C2.4375834 214.99185886 2.40402155 218.24376298 2.37039185 221.4956665 C2.24468252 233.66375539 2.12112043 245.83186459 2 258 C1.67 258 1.34 258 1 258 C1.00092179 256.70071469 1.00184359 255.40142939 1.00279331 254.0627718 C1.02444493 223.22958653 1.0409374 192.39640331 1.05106533 161.56321226 C1.05231606 157.76927366 1.05361038 153.97533507 1.05493164 150.18139648 C1.05519395 149.4260825 1.05545626 148.67076851 1.05572652 147.89256623 C1.0600794 135.65804024 1.06796486 123.42351895 1.0771528 111.18899576 C1.08649993 98.63792417 1.09205786 86.08685505 1.09408849 73.53578013 C1.09546151 65.78932624 1.09980019 58.04288561 1.10791647 50.2964358 C1.11382066 44.3593238 1.11445626 38.42221863 1.11310768 32.48510361 C1.11338342 30.04740378 1.11538077 27.60970345 1.11920547 25.17200661 C1.12416315 21.8500294 1.12299054 18.52810945 1.12025452 15.20613098 C1.12462378 13.75136241 1.12462378 13.75136241 1.12908131 12.26720458 C1.12709026 11.37595026 1.12509921 10.48469594 1.12304783 9.56643391 C1.12342755 8.79977856 1.12380727 8.03312321 1.1241985 7.24323589 C0.98649634 4.75610089 0.5399548 2.42892477 0 0 Z " fill="#908F8C" transform="translate(272,173)"/>
<path d="M0 0 C0.33 0 0.66 0 1 0 C1.02350479 16.96108824 1.0410646 33.9221713 1.05181217 50.88327217 C1.05693817 58.76105422 1.06390914 66.63882607 1.07543945 74.51660156 C1.08550058 81.39395781 1.0918802 88.27130667 1.09408849 95.14867008 C1.09537649 98.78008306 1.09833788 102.4114749 1.10573006 106.04288101 C1.13138586 119.28541728 1.1358111 132.5288743 0.68139648 145.76513672 C0.64825017 147.12191623 0.64825017 147.12191623 0.61443424 148.50610542 C0.57940516 149.32674414 0.54437609 150.14738285 0.50828552 150.9928894 C0.482723 151.70001005 0.45716047 152.4071307 0.43082333 153.13567924 C-0.11621345 155.50289557 -1.17800152 156.44936757 -3 158 C-2.835 157.36835938 -2.67 156.73671875 -2.5 156.0859375 C-1.82332505 151.90958432 -1.94050635 147.84709231 -2 143.625 C-2.09063586 132.061718 -1.59606709 120.54562934 -1 109 C-1.66 109 -2.32 109 -3 109 C-3.02471188 103.92798214 -3.04286564 98.85599929 -3.05493164 93.78393555 C-3.05996158 92.0583434 -3.06678626 90.33275552 -3.07543945 88.60717773 C-3.08756361 86.1274307 -3.09324169 83.64774 -3.09765625 81.16796875 C-3.10539818 80.01001045 -3.10539818 80.01001045 -3.11329651 78.82865906 C-3.11363318 75.6169772 -3.02326578 73.06979734 -2 70 C-1.34 70 -0.68 70 0 70 C-0.3304834 69.47374023 -0.6609668 68.94748047 -1.00146484 68.40527344 C-2.30369122 65.268468 -2.1299167 62.90640441 -1.9765625 59.515625 C-1.925 58.20207031 -1.8734375 56.88851562 -1.8203125 55.53515625 C-1.7884082 54.83664551 -1.75650391 54.13813477 -1.72363281 53.41845703 C-1.55552328 49.72254391 -1.42124505 46.02547396 -1.2890625 42.328125 C-1.2613678 41.56536255 -1.2336731 40.8026001 -1.20513916 40.01672363 C-0.87440085 30.27715604 -0.94964695 20.53727961 -1.03759766 10.79394531 C-1.04581543 9.52131836 -1.0540332 8.24869141 -1.0625 6.9375 C-1.07410156 5.81214844 -1.08570313 4.68679687 -1.09765625 3.52734375 C-1 1 -1 1 0 0 Z " fill="#3E3D3A" transform="translate(273,178)"/>
<path d="M0 0 C0.598125 0.226875 1.19625 0.45375 1.8125 0.6875 C1.1525 2.9975 0.4925 5.3075 -0.1875 7.6875 C-0.8475 7.6875 -1.5075 7.6875 -2.1875 7.6875 C-2.8475 9.9975 -3.5075 12.3075 -4.1875 14.6875 C-4.5175 14.6875 -4.8475 14.6875 -5.1875 14.6875 C-5.6825 12.2125 -5.6825 12.2125 -6.1875 9.6875 C-6.5175 17.2775 -6.8475 24.8675 -7.1875 32.6875 C-17.0875 33.1825 -17.0875 33.1825 -27.1875 33.6875 C-27.5175 34.3475 -27.8475 35.0075 -28.1875 35.6875 C-26.5375 36.0175 -24.8875 36.3475 -23.1875 36.6875 C-24.1775 37.6775 -25.1675 38.6675 -26.1875 39.6875 C-25.5275 40.3475 -24.8675 41.0075 -24.1875 41.6875 C-30.6225 42.1825 -30.6225 42.1825 -37.1875 42.6875 C-35.48145475 38.42238687 -34.08962286 36.07331001 -31.1875 32.6875 C-34.6525 35.1625 -34.6525 35.1625 -38.1875 37.6875 C-38.8475 37.3575 -39.5075 37.0275 -40.1875 36.6875 C-39.5275 36.0275 -38.8675 35.3675 -38.1875 34.6875 C-38.48119827 33.34487935 -38.8153958 32.01053717 -39.1875 30.6875 C-38.8575 30.0275 -38.5275 29.3675 -38.1875 28.6875 C-40.4975 28.6875 -42.8075 28.6875 -45.1875 28.6875 C-45.1875 28.0275 -45.1875 27.3675 -45.1875 26.6875 C-43.625 25.9375 -43.625 25.9375 -41.1875 25.6875 C-40.2284375 26.326875 -39.269375 26.96625 -38.28125 27.625 C-33.24529872 30.62357556 -27.97050104 30.35938018 -22.25 30.4375 C-21.18458984 30.46714844 -20.11917969 30.49679688 -19.02148438 30.52734375 C-16.41008213 30.59760569 -13.79954996 30.65051748 -11.1875 30.6875 C-10.53387159 27.60080895 -10.02628069 24.58054217 -9.7578125 21.4375 C-9.68433594 20.6640625 -9.61085937 19.890625 -9.53515625 19.09375 C-9.38678334 17.4902814 -9.24614849 15.88607784 -9.11328125 14.28125 C-8.56507371 8.70625807 -7.18556147 5.29366714 -3.75 0.8125 C-2.1875 -0.3125 -2.1875 -0.3125 0 0 Z " fill="#2D2D2C" transform="translate(208.1875,76.3125)"/>
<path d="M0 0 C0.33 0 0.66 0 1 0 C1.0467087 20.77504482 1.08198331 41.55008099 1.10362434 62.32516766 C1.11393947 71.9712722 1.12800433 81.61734413 1.15087891 91.26342773 C1.17080553 99.67038028 1.18371472 108.0773092 1.18817699 116.4842847 C1.1907856 120.93622023 1.1969219 125.38808818 1.21146011 129.84000206 C1.22503252 134.03010343 1.22922332 138.22010937 1.22621536 142.41023064 C1.22676568 143.94812793 1.23074518 145.48602842 1.23841095 147.02390671 C1.24836694 149.12422454 1.24596664 151.22418244 1.24050903 153.32450867 C1.24327441 155.08743775 1.24327441 155.08743775 1.24609566 156.88598156 C1.00058286 159.99262469 0.32484666 162.1985222 -1 165 C-1.33 165 -1.66 165 -2 165 C-2.92420988 155.51070915 -2.88129096 146.48924334 -2.1015625 137 C-0.60058187 116.69232898 -0.5546541 96.36276514 -0.39910889 76.00927734 C-0.35827495 70.91237544 -0.30755651 65.81557134 -0.2578125 60.71875 C-0.1625154 50.81256991 -0.07767131 40.90633294 0 31 C-0.66 30.67 -1.32 30.34 -2 30 C-1.86001598 26.31225385 -1.71195796 22.62487337 -1.5625 18.9375 C-1.52318359 17.89916016 -1.48386719 16.86082031 -1.44335938 15.79101562 C-1.22333656 10.45969359 -0.8883816 5.26310107 0 0 Z " fill="#464442" transform="translate(272,337)"/>
<path d="M0 0 C0.495 1.485 0.495 1.485 1 3 C-1.21591397 5.21591397 -6.29503904 4.48297456 -9.375 4.625 C-10.81383545 4.69255493 -10.81383545 4.69255493 -12.28173828 4.76147461 C-24.53406428 5.23136528 -36.76241733 4.61875418 -49 4 C-49.33 4.66 -49.66 5.32 -50 6 C-53.63 5.67 -57.26 5.34 -61 5 C-61 4.34 -61 3.68 -61 3 C-57.86021975 0.90681316 -56.75626877 0.69071904 -53.125 0.4375 C-52.14402344 0.3653125 -51.16304687 0.293125 -50.15234375 0.21875 C-49.11207031 0.1465625 -48.07179687 0.074375 -47 0 C-45.45505859 -0.13921875 -45.45505859 -0.13921875 -43.87890625 -0.28125 C-29.20882867 -1.57408425 -14.67090941 -0.82653011 0 0 Z " fill="#070707" transform="translate(226,151)"/>
<path d="M0 0 C4.29 0 8.58 0 13 0 C12.979375 1.11375 12.95875 2.2275 12.9375 3.375 C12.73619282 6.83215921 12.73619282 6.83215921 14 9 C13.01 9.495 13.01 9.495 12 10 C11.67 10.99 11.34 11.98 11 13 C11.66 13.33 12.32 13.66 13 14 C13 14.66 13 15.32 13 16 C11.02 16.99 11.02 16.99 9 18 C10.32 18.66 11.64 19.32 13 20 C9.04 20 5.08 20 1 20 C1 19.34 1 18.68 1 18 C1.99 17.67 2.98 17.34 4 17 C2.68 16.67 1.36 16.34 0 16 C0.185625 15.443125 0.37125 14.88625 0.5625 14.3125 C1.08345886 11.55886029 0.57288229 9.73710425 0 7 C-0.03824623 4.66698014 -0.04574284 2.33288492 0 0 Z " fill="#333230" transform="translate(207,367)"/>
<path d="M0 0 C2.31 0 4.62 0 7 0 C6.67 1.32 6.34 2.64 6 4 C5.34 3.67 4.68 3.34 4 3 C4 2.34 4 1.68 4 1 C3.34 1 2.68 1 2 1 C2.0721875 1.82242188 2.144375 2.64484375 2.21875 3.4921875 C2.78956392 10.35781052 3.1028127 17.1115493 3 24 C-1.95 24.495 -1.95 24.495 -7 25 C-7.25515919 17.47280398 -6.28297723 10.41148455 -5 3 C-4.360625 2.87625 -3.72125 2.7525 -3.0625 2.625 C-2.0415625 2.315625 -2.0415625 2.315625 -1 2 C-0.67 1.34 -0.34 0.68 0 0 Z " fill="#181818" transform="translate(213,77)"/>
<path d="M0 0 C1.01513672 0.01450195 1.01513672 0.01450195 2.05078125 0.02929688 C5.10931562 0.09867191 7.58220159 0.33990053 10.5 1.3125 C10.625 4.6875 10.625 4.6875 10.5 8.3125 C8.5 10.3125 8.5 10.3125 6.52880859 10.53955078 C5.74328613 10.52907715 4.95776367 10.51860352 4.1484375 10.5078125 C3.29765625 10.50136719 2.446875 10.49492187 1.5703125 10.48828125 C0.23613281 10.46314453 0.23613281 10.46314453 -1.125 10.4375 C-2.47078125 10.42396484 -2.47078125 10.42396484 -3.84375 10.41015625 C-6.06276586 10.3865497 -8.28125077 10.3536231 -10.5 10.3125 C-10.71525543 7.15542037 -10.74820491 4.87942259 -9.46875 1.95703125 C-6.53561105 -0.49307093 -3.6341182 -0.15574792 0 0 Z " fill="#808077" transform="translate(232.5,139.6875)"/>
<path d="M0 0 C2.70860665 -0.05429278 5.41610901 -0.09381211 8.125 -0.125 C8.88554687 -0.14175781 9.64609375 -0.15851563 10.4296875 -0.17578125 C15.03270731 -0.21546246 18.66464004 0.24092423 23 2 C22.67 2.99 22.34 3.98 22 5 C16.72 5 11.44 5 6 5 C7.03130261 8.09390782 8.06825677 11.18680799 9.1875 14.25 C10 17 10 17 9 19 C6.67843403 19.40729228 4.3431213 19.74438677 2 20 C0.5393715 17.35261084 0 16.10551666 0 13 C0.66 13 1.32 13 2 13 C2.66 10.03 3.32 7.06 4 4 C2.68 4 1.36 4 0 4 C0 2.68 0 1.36 0 0 Z " fill="#383839" transform="translate(221,117)"/>
<path d="M0 0 C0 3 0 3 -1 5 C-0.34 5 0.32 5 1 5 C1 6.65 1 8.3 1 10 C2.32 10.33 3.64 10.66 5 11 C4.67 11.66 4.34 12.32 4 13 C3.85829643 14.76764246 3.77391912 16.54004517 3.71875 18.3125 C3.68136719 19.38886719 3.64398438 20.46523437 3.60546875 21.57421875 C3.57066406 22.70472656 3.53585938 23.83523437 3.5 25 C3.25605895 32.70673025 2.89071156 40.33815101 2 48 C1.67 48 1.34 48 1 48 C1 36.12 1 24.24 1 12 C0.01 12 -0.98 12 -2 12 C-2.99 12 -3.98 12 -5 12 C-4.979375 13.1446875 -4.95875 14.289375 -4.9375 15.46875 C-4.9375 19.87501933 -5.40250274 24.13988483 -6 28.5 C-6.09539062 29.22703125 -6.19078125 29.9540625 -6.2890625 30.703125 C-6.52146167 32.46935867 -6.76006638 34.23477406 -7 36 C-7.66 36 -8.32 36 -9 36 C-9 39.3 -9 42.6 -9 46 C-9.33 46 -9.66 46 -10 46 C-10.30040072 35.46928597 -9.42530639 25.41410001 -8 15 C-7.8865625 13.77023438 -7.773125 12.54046875 -7.65625 11.2734375 C-6.92879469 7.64482114 -5.97632065 6.1936414 -3.4375 3.5625 C-2.79683594 2.88316406 -2.15617188 2.20382813 -1.49609375 1.50390625 C-1.00238281 1.00761719 -0.50867188 0.51132813 0 0 Z " fill="#A2A2A0" transform="translate(148,118)"/>
<path d="M0 0 C1.65 0.33 3.3 0.66 5 1 C4.67 1.99 4.34 2.98 4 4 C1.69 4.33 -0.62 4.66 -3 5 C-2.7215625 6.175625 -2.7215625 6.175625 -2.4375 7.375 C-2 10 -2 10 -3 12 C-2.34 12 -1.68 12 -1 12 C-0.125 14.6875 -0.125 14.6875 0 18 C-3.18082176 21.56872685 -4.60420101 22.87075935 -9.375 23.3125 C-10.24125 23.209375 -11.1075 23.10625 -12 23 C-12 21.35 -12 19.7 -12 18 C-12.66 18 -13.32 18 -14 18 C-11.84332113 11.33390169 -7.38477901 7.22050247 -2 3 C-1.34 2.01 -0.68 1.02 0 0 Z " fill="#242321" transform="translate(161,105)"/>
<path d="M0 0 C0.33 0 0.66 0 1 0 C1.36682291 20.80701039 1.36682291 20.80701039 -0.7578125 29.00390625 C-1.25827216 31.31771188 -1.25827216 31.31771188 1 34 C0.67934867 36.50108041 0.11089058 38.69505089 -0.75 41.0625 C-1.23224345 43.16696472 -1.23224345 43.16696472 0.4375 45.25 C1.2109375 46.11625 1.2109375 46.11625 2 47 C0.02 47 -1.96 47 -4 47 C-4.936671 44.189987 -5.05708097 42.80224421 -4.9375 39.9375 C-4.86055569 36.30927978 -5.35237553 33.26175889 -6.25 29.75 C-6.8203125 27.23046875 -6.8203125 27.23046875 -7 25 C-5.125 22.0625 -5.125 22.0625 -3 20 C-3 19.01 -3 18.02 -3 17 C-2.34 17 -1.68 17 -1 17 C-0.67 11.39 -0.34 5.78 0 0 Z " fill="#454442" transform="translate(270,126)"/>
<path d="M0 0 C2.31 0 4.62 0 7 0 C8.1482685 2.296537 8.11561175 3.58313167 8.09765625 6.1328125 C8.09443359 6.93847656 8.09121094 7.74414062 8.08789062 8.57421875 C8.07951172 9.41597656 8.07113281 10.25773437 8.0625 11.125 C8.05798828 11.97449219 8.05347656 12.82398437 8.04882812 13.69921875 C8.03702874 15.79950909 8.01909306 17.8997633 8 20 C5.69 20 3.38 20 1 20 C-0.23839599 13.34362157 -0.09139136 6.7528064 0 0 Z " fill="#686864" transform="translate(233,80)"/>
<path d="M0 0 C1.28132812 0.10183594 2.56265625 0.20367187 3.8828125 0.30859375 C4.87023437 0.39238281 5.85765625 0.47617188 6.875 0.5625 C6.875 3.8625 6.875 7.1625 6.875 10.5625 C2.915 10.5625 -1.045 10.5625 -5.125 10.5625 C-5.87369792 8.54427083 -6.62239583 6.52604167 -7.37109375 4.5078125 C-8.10416854 2.52601155 -8.10416854 2.52601155 -9.125 0.5625 C-6.07230154 -0.96384923 -3.36654311 -0.27544444 0 0 Z " fill="#444341" transform="translate(240.125,101.4375)"/>
<path d="M0 0 C0.33 0 0.66 0 1 0 C1.02350257 7.70383417 1.04110321 15.40765943 1.05181217 23.11152077 C1.05696018 26.69138509 1.06390429 30.27122433 1.07543945 33.85107422 C1.11803545 47.5135946 1.15735012 61.17977901 0.68359375 74.8359375 C0.66136246 75.73551178 0.63913116 76.63508606 0.6162262 77.56192017 C0.3557182 83.59409765 0.3557182 83.59409765 -1.53184509 85.74795532 C-2.01633621 86.16113007 -2.50082733 86.57430481 -3 87 C-2.8357251 86.36860107 -2.6714502 85.73720215 -2.50219727 85.08666992 C-1.82229633 80.90777467 -1.91623849 76.83886266 -1.96484375 72.61328125 C-2.02460054 62.09269337 -1.86828775 51.58622928 -1.62768555 41.06860352 C-1.56213709 38.17146001 -1.50257704 35.27423218 -1.44335938 32.37695312 C-1.2095741 21.56119953 -0.78936002 10.79050298 0 0 Z " fill="#464542" transform="translate(273,249)"/>
<path d="M0 0 C0.598125 0.226875 1.19625 0.45375 1.8125 0.6875 C1.1525 2.9975 0.4925 5.3075 -0.1875 7.6875 C-0.8475 7.6875 -1.5075 7.6875 -2.1875 7.6875 C-2.8475 9.9975 -3.5075 12.3075 -4.1875 14.6875 C-4.5175 14.6875 -4.8475 14.6875 -5.1875 14.6875 C-5.5175 13.0375 -5.8475 11.3875 -6.1875 9.6875 C-6.21255615 10.28288574 -6.2376123 10.87827148 -6.26342773 11.49169922 C-6.37927494 14.18219136 -6.50205196 16.8723234 -6.625 19.5625 C-6.66431641 20.49964844 -6.70363281 21.43679687 -6.74414062 22.40234375 C-6.78603516 23.29824219 -6.82792969 24.19414063 -6.87109375 25.1171875 C-6.90775146 25.94460449 -6.94440918 26.77202148 -6.98217773 27.62451172 C-7.1875 29.6875 -7.1875 29.6875 -8.1875 31.6875 C-16.7675 31.6875 -25.3475 31.6875 -34.1875 31.6875 C-34.1875 31.3575 -34.1875 31.0275 -34.1875 30.6875 C-26.5975 30.6875 -19.0075 30.6875 -11.1875 30.6875 C-10.54824926 27.49124628 -10.03104839 24.63635918 -9.7578125 21.4375 C-9.68433594 20.6640625 -9.61085937 19.890625 -9.53515625 19.09375 C-9.38678334 17.4902814 -9.24614849 15.88607784 -9.11328125 14.28125 C-8.56507371 8.70625807 -7.18556147 5.29366714 -3.75 0.8125 C-2.1875 -0.3125 -2.1875 -0.3125 0 0 Z " fill="#80807E" transform="translate(208.1875,76.3125)"/>
<path d="M0 0 C0.33 0 0.66 0 1 0 C1.05076475 6.31710371 1.0857608 12.63415469 1.10986328 18.95141602 C1.11991265 21.09987351 1.13355433 23.24831737 1.15087891 25.39672852 C1.17517376 28.48717622 1.18649386 31.57744287 1.1953125 34.66796875 C1.20563507 35.62648239 1.21595764 36.58499603 1.22659302 37.57255554 C1.22736062 42.14860751 1.20761889 45.85594033 -1 50 C-1.33 50 -1.66 50 -2 50 C-2.97079964 40.35849668 -2.96470903 31.13307722 -2.27587891 21.49169922 C-2.12269721 19.3426939 -1.98413359 17.193094 -1.84765625 15.04296875 C-1.09552465 3.70128361 -1.09552465 3.70128361 0 0 Z " fill="#636261" transform="translate(272,452)"/>
<path d="M0 0 C4.77650791 4.77650791 3.04760411 16.1556749 3.06591797 22.70532227 C3.0609819 26.47048186 3.03578137 30.23500488 3 34 C1.515 34.495 1.515 34.495 0 35 C-1.32557818 32.34884365 -1.12957777 30.32929477 -1.1328125 27.36328125 C-1.13410156 26.22826172 -1.13539063 25.09324219 -1.13671875 23.92382812 C-1.13285156 22.73208984 -1.12898437 21.54035156 -1.125 20.3125 C-1.12886719 19.14009766 -1.13273438 17.96769531 -1.13671875 16.75976562 C-1.13029489 11.07143351 -1.03304453 5.59975725 0 0 Z " fill="#201F1D" transform="translate(142,146)"/>
<path d="M0 0 C3.74993479 -0.05811773 7.49975352 -0.09363593 11.25 -0.125 C12.84521484 -0.15013672 12.84521484 -0.15013672 14.47265625 -0.17578125 C15.49746094 -0.18222656 16.52226562 -0.18867188 17.578125 -0.1953125 C18.52075195 -0.20578613 19.46337891 -0.21625977 20.43457031 -0.22705078 C23.09951941 0.00880787 24.71863092 0.64338341 27 2 C26.67 2.99 26.34 3.98 26 5 C16.78372955 5.30892527 8.08785235 4.39049107 -1 3 C-0.67 2.01 -0.34 1.02 0 0 Z " fill="#0F0D0D" transform="translate(236,152)"/>
<path d="M0 0 C9.57 0 19.14 0 29 0 C29 0.99 29 1.98 29 3 C26.69 3 24.38 3 22 3 C22 4.98 22 6.96 22 9 C21.67 9 21.34 9 21 9 C21 6.69 21 4.38 21 2 C20.34 2 19.68 2 19 2 C19.01160156 2.78503906 19.02320313 3.57007812 19.03515625 4.37890625 C19.08375507 10.03719775 19.01294749 15.42878878 18 21 C17.34 20.67 16.68 20.34 16 20 C15.40644386 17.35139573 15.25790731 14.70802678 15 12 C15.66 12 16.32 12 17 12 C17 8.37 17 4.74 17 1 C12.38 1 7.76 1 3 1 C2.67 1.99 2.34 2.98 2 4 C1.01 4 0.02 4 -1 4 C-0.67 2.68 -0.34 1.36 0 0 Z " fill="#2F2E2C" transform="translate(210,76)"/>
<path d="M0 0 C1.8125 0.1875 1.8125 0.1875 4 1 C5.0064275 2.66279327 6.00585407 4.32983484 7 6 C9.49759982 7.69882448 9.49759982 7.69882448 12 9 C12.66 9.66 13.32 10.32 14 11 C13.625 13.125 13.625 13.125 13 15 C12.814375 14.38125 12.62875 13.7625 12.4375 13.125 C10.71329426 10.57617412 9.28906955 10.13750168 6.3515625 9.4375 C1.25516446 8.48933292 -3.8677857 7.72545586 -9 7 C-9 6.01 -9 5.02 -9 4 C-9.66 3.67 -10.32 3.34 -11 3 C-7.37 3 -3.74 3 0 3 C0 2.01 0 1.02 0 0 Z " fill="#3B3A39" transform="translate(256,111)"/>
<path d="M0 0 C1.32 0 2.64 0 4 0 C2.87561259 4.77864649 0.18877709 6.93184227 -3.65625 9.6484375 C-7.56704706 11.90366381 -11.64062854 12.941696 -16 14 C-16.65742188 14.20496094 -17.31484375 14.40992188 -17.9921875 14.62109375 C-23.93679691 16.40940986 -29.83991385 16.18480258 -36 16 C-32.2437252 14.05709924 -29.64035002 12.97829322 -25.3125 13.125 C-20.62918625 13.19425418 -17.26055477 11.90990386 -13 10 C-12.34 9.34 -11.68 8.68 -11 8 C-9.33499557 7.65846063 -7.66821323 7.32550502 -6 7 C-5.01 6.34 -4.02 5.68 -3 5 C-2.34 5 -1.68 5 -1 5 C-0.67 3.35 -0.34 1.7 0 0 Z " fill="#61605A" transform="translate(266,502)"/>
<path d="M0 0 C0.66 0.33 1.32 0.66 2 1 C3.19104332 4.57312995 3.20528823 7.54553322 3.25 11.3125 C3.28867187 13.25576172 3.28867187 13.25576172 3.328125 15.23828125 C2.98001565 19.2291063 2.10699629 21.61960061 0 25 C-0.66 25.33 -1.32 25.66 -2 26 C-2.05401695 23.08308475 -2.09368066 20.16717276 -2.125 17.25 C-2.14175781 16.425 -2.15851563 15.6 -2.17578125 14.75 C-2.18222656 13.95078125 -2.18867188 13.1515625 -2.1953125 12.328125 C-2.20578613 11.5949707 -2.21625977 10.86181641 -2.22705078 10.10644531 C-2 8 -2 8 -0.98779297 5.97949219 C0.29767144 3.77219109 0.29767144 3.77219109 0 0 Z " fill="#3E3E3E" transform="translate(267,122)"/>
<path d="M0 0 C11.36783648 -0.16938829 22.65384417 0.36077995 34 1 C33.67 1.66 33.34 2.32 33 3 C18.81 3 4.62 3 -10 3 C-10 2.67 -10 2.34 -10 2 C-6.7 1.67 -3.4 1.34 0 1 C0 0.67 0 0.34 0 0 Z " fill="#1E1D1D" transform="translate(214,159)"/>
<path d="M0 0 C0.33 0 0.66 0 1 0 C1.33 1.98 1.66 3.96 2 6 C2.66 4.35 3.32 2.7 4 1 C4.66 1.66 5.32 2.32 6 3 C5.65374458 5.94023673 5.20741323 8.73172135 4.625 11.625 C4.47289062 12.42679688 4.32078125 13.22859375 4.1640625 14.0546875 C3.78620834 16.03842187 3.39440564 18.01948997 3 20 C1.68 20.33 0.36 20.66 -1 21 C-1.0269501 18.06243881 -1.04681474 15.12512445 -1.0625 12.1875 C-1.07087891 11.35412109 -1.07925781 10.52074219 -1.08789062 9.66210938 C-1.09111328 8.85966797 -1.09433594 8.05722656 -1.09765625 7.23046875 C-1.10289307 6.49207764 -1.10812988 5.75368652 -1.11352539 4.99291992 C-1 3 -1 3 0 0 Z " fill="#2A2A29" transform="translate(202,83)"/>
<path d="M0 0 C0.33 0 0.66 0 1 0 C1.33 10.89 1.66 21.78 2 33 C5.465 32.505 5.465 32.505 9 32 C7 34 7 34 4.0625 34.3125 C1 34 1 34 -0.67578125 32.76123047 C-2.3708587 30.50675246 -2.34097869 29.30597574 -2.25 26.5078125 C-2.22292969 25.62125977 -2.19585937 24.73470703 -2.16796875 23.82128906 C-1.89040451 19.15917801 -1.4827719 14.52004852 -1 9.875 C-0.85691406 8.44027344 -0.85691406 8.44027344 -0.7109375 6.9765625 C-0.4783375 4.65056246 -0.24130321 2.32511041 0 0 Z " fill="#979694" transform="translate(137,172)"/>
<path d="M0 0 C2.85650873 2.85650873 2.28505645 4.88192639 2.34375 8.87890625 C2.3583728 9.56500473 2.37299561 10.25110321 2.38806152 10.95799255 C2.43461097 13.15943502 2.4687223 15.36079086 2.5 17.5625 C2.63761936 30.40631933 2.63761936 30.40631933 5 43 C1.84115009 41.42057504 1.29752552 39.2280125 0 36 C-0.38181585 33.16970219 -0.35133674 30.39072314 -0.29296875 27.5390625 C-0.28872391 26.74849457 -0.28447906 25.95792664 -0.28010559 25.1434021 C-0.26341301 22.6369106 -0.22577983 20.13124539 -0.1875 17.625 C-0.17244092 15.91798042 -0.15875466 14.21094815 -0.14648438 12.50390625 C-0.11354056 8.33562275 -0.06182493 4.16795111 0 0 Z " fill="#373734" transform="translate(151,463)"/>
<path d="M0 0 C0.33 0 0.66 0 1 0 C0.67 10.56 0.34 21.12 0 32 C-0.33 32 -0.66 32 -1 32 C-1 30.02 -1 28.04 -1 26 C-1.66 26 -2.32 26 -3 26 C-3.05800828 22.39590081 -3.09359869 18.79192149 -3.125 15.1875 C-3.14175781 14.16333984 -3.15851563 13.13917969 -3.17578125 12.08398438 C-3.18222656 11.10107422 -3.18867188 10.11816406 -3.1953125 9.10546875 C-3.20578613 8.19949951 -3.21625977 7.29353027 -3.22705078 6.36010742 C-2.96017843 3.58606982 -1.98995827 1.98995827 0 0 Z " fill="#3A3A39" transform="translate(149,146)"/>
<path d="M0 0 C7.50769231 -0.36923077 7.50769231 -0.36923077 10 1.5 C10.33 1.995 10.66 2.49 11 3 C10.690625 3.5775 10.38125 4.155 10.0625 4.75 C8.80714968 7.21905868 8.80714968 7.21905868 8 11 C2.72 11 -2.56 11 -8 11 C-8 10.67 -8 10.34 -8 10 C-7.36191406 9.93941406 -6.72382813 9.87882813 -6.06640625 9.81640625 C-5.24011719 9.73261719 -4.41382813 9.64882812 -3.5625 9.5625 C-2.73878906 9.48128906 -1.91507813 9.40007812 -1.06640625 9.31640625 C0.98662025 9.21069185 0.98662025 9.21069185 2 8 C2.36760731 5.67182036 2.70241581 3.3381615 3 1 C2.01 0.67 1.02 0.34 0 0 Z " fill="#43413E" transform="translate(240,140)"/>
<path d="M0 0 C-0.33 0.99 -0.66 1.98 -1 3 C-0.34 3 0.32 3 1 3 C1 3.66 1 4.32 1 5 C0 6 -1 7 -2 8 C-2 8.66 -2 9.32 -2 10 C-4.64 10 -7.28 10 -10 10 C-10.21691118 6.81863606 -10.25066255 4.56030453 -8.9375 1.625 C-6.06052441 -0.78794727 -3.62340201 -0.2734643 0 0 Z " fill="#787772" transform="translate(232,140)"/>
<path d="M0 0 C4.62 0 9.24 0 14 0 C15.36207958 2.72415916 14.86166193 4.12779357 14 7 C11 9 11 9 8.8125 8.625 C8.214375 8.41875 7.61625 8.2125 7 8 C6.67 6.02 6.34 4.04 6 2 C4.35 2 2.7 2 1 2 C0.67 2.99 0.34 3.98 0 5 C0 3.35 0 1.7 0 0 Z M6 9 C6.66 9 7.32 9 8 9 C7.67 9.66 7.34 10.32 7 11 C6.67 10.34 6.34 9.68 6 9 Z " fill="#3F3F3C" transform="translate(207,412)"/>
<path d="M0 0 C0.99 0 1.98 0 3 0 C3 0.99 3 1.98 3 3 C3.66 3 4.32 3 5 3 C5.02689216 4.47906892 5.04634621 5.95827483 5.0625 7.4375 C5.07410156 8.26121094 5.08570313 9.08492187 5.09765625 9.93359375 C5 12 5 12 4 13 C2.00041636 13.04080783 -0.00045254 13.04254356 -2 13 C-3.46845421 7.52667068 -2.44038726 4.88077452 0 0 Z " fill="#39393B" transform="translate(241,125)"/>
<path d="M0 0 C0.33 0 0.66 0 1 0 C1.36682291 20.80701039 1.36682291 20.80701039 -0.7578125 29.00390625 C-1.25827216 31.31771188 -1.25827216 31.31771188 1 34 C0.67603844 38.21150025 -0.32124295 39.42832393 -3 43 C-2.67 39.7 -2.34 36.4 -2 33 C-2.66 32.67 -3.32 32.34 -4 32 C-3.67 27.05 -3.34 22.1 -3 17 C-2.34 17 -1.68 17 -1 17 C-0.67 11.39 -0.34 5.78 0 0 Z " fill="#9A9A98" transform="translate(270,126)"/>
<path d="M0 0 C5.28 0 10.56 0 16 0 C16.33 1.65 16.66 3.3 17 5 C16 6 16 6 13.4375 6.0625 C12.2309375 6.0315625 12.2309375 6.0315625 11 6 C11 5.01 11 4.02 11 3 C10.34 3 9.68 3 9 3 C8.67 3.99 8.34 4.98 8 6 C7.34 5.67 6.68 5.34 6 5 C6 4.01 6 3.02 6 2 C4.68 2 3.36 2 2 2 C2 2.99 2 3.98 2 5 C1.34 5 0.68 5 0 5 C0 3.35 0 1.7 0 0 Z " fill="#4C4D49" transform="translate(207,338)"/>
<path d="M0 0 C0.33 0 0.66 0 1 0 C1.80614913 13.10129443 2.1280819 25.91424998 1 39 C0.34 39 -0.32 39 -1 39 C-1.02471188 33.92798214 -1.04286564 28.85599929 -1.05493164 23.78393555 C-1.05996158 22.0583434 -1.06678626 20.33275552 -1.07543945 18.60717773 C-1.08756361 16.1274307 -1.09324169 13.64774 -1.09765625 11.16796875 C-1.10539818 10.01001045 -1.10539818 10.01001045 -1.11329651 8.82865906 C-1.11363318 5.6169772 -1.02326578 3.06979734 0 0 Z " fill="#373636" transform="translate(271,248)"/>
<path d="M0 0 C1.32 0.33 2.64 0.66 4 1 C3.34 1 2.68 1 2 1 C2 1.99 2 2.98 2 4 C5.27773504 3.24849977 5.27773504 3.24849977 7 0 C10.0625 -0.25 10.0625 -0.25 13 0 C14 1 14 1 14.125 3.5 C14 6 14 6 13 7 C11.1849043 6.96212481 9.37113915 6.84507974 7.5625 6.6875 C6.57378906 6.60886719 5.58507812 6.53023438 4.56640625 6.44921875 C2 6 2 6 0 4 C0 2.68 0 1.36 0 0 Z " fill="#484745" transform="translate(207,397)"/>
<path d="M0 0 C2.97 0.495 2.97 0.495 6 1 C6.625 4.375 6.625 4.375 7 8 C6.34 8.66 5.68 9.32 5 10 C5 10.33 5 10.66 5 11 C3.02 11 1.04 11 -1 11 C-1.33 10.01 -1.66 9.02 -2 8 C-2.66 8 -3.32 8 -4 8 C-4 7.34 -4 6.68 -4 6 C-2.35 5.67 -0.7 5.34 1 5 C0.67 4.34 0.34 3.68 0 3 C0 2.01 0 1.02 0 0 Z " fill="#1B1A19" transform="translate(164,104)"/>
<path d="M0 0 C0.74362793 0.01047363 1.48725586 0.02094727 2.25341797 0.03173828 C3.46191406 0.04140625 3.46191406 0.04140625 4.69482422 0.05126953 C5.95746094 0.07640625 5.95746094 0.07640625 7.24560547 0.10205078 C8.51984375 0.11558594 8.51984375 0.11558594 9.81982422 0.12939453 C11.9202043 0.15299431 14.02043991 0.18886595 16.12060547 0.22705078 C16.12060547 0.55705078 16.12060547 0.88705078 16.12060547 1.22705078 C14.74775391 1.283125 14.74775391 1.283125 13.34716797 1.34033203 C12.15865234 1.40607422 10.97013672 1.47181641 9.74560547 1.53955078 C8.56224609 1.59755859 7.37888672 1.65556641 6.15966797 1.71533203 C5.15677734 1.88419922 4.15388672 2.05306641 3.12060547 2.22705078 C0.99552303 5.41467444 0.61858917 7.49217301 0.12060547 11.22705078 C-1.85939453 11.22705078 -3.83939453 11.22705078 -5.87939453 11.22705078 C-5.59697812 9.76689787 -5.30312839 8.30895285 -5.00439453 6.85205078 C-4.84197266 6.03994141 -4.67955078 5.22783203 -4.51220703 4.39111328 C-3.71694199 1.67150321 -2.92170434 0.35297285 0 0 Z " fill="#3E3D3A" transform="translate(221.87939453125,138.77294921875)"/>
<path d="M0 0 C2.86714191 1.43357096 3.60338699 3.14329157 5 6 C5.25 9.25 5.25 9.25 5 12 C4 13 4 13 0.9375 13.0625 C-0.031875 13.041875 -1.00125 13.02125 -2 13 C-3.71050559 8.02398374 -2.00885647 4.57383705 0 0 Z " fill="#2B2C2E" transform="translate(207,123)"/>
<path d="M0 0 C0.99 0.33 1.98 0.66 3 1 C3 2.98 3 4.96 3 7 C0.03 7 -2.94 7 -6 7 C-6.99 5.02 -7.98 3.04 -9 1 C-6.01002175 -0.49498913 -3.29957225 -0.11577446 0 0 Z " fill="#5E5E5C" transform="translate(240,101)"/>
<path d="M0 0 C0.66 0.33 1.32 0.66 2 1 C1.43628586 4.26954202 0.50037734 5.82575883 -2 8 C-0.68 8.66 0.64 9.32 2 10 C1.01 11.98 0.02 13.96 -1 16 C-2.32 16 -3.64 16 -5 16 C-5 14.35 -5 12.7 -5 11 C-5.66 11 -6.32 11 -7 11 C-5.5140084 6.40693504 -3.14985318 3.56430755 0 0 Z " fill="#3A3A37" transform="translate(154,112)"/>
<path d="M0 0 C-2.86302809 2.86302809 -4.86879839 2.25851116 -8.87109375 2.265625 C-9.54922623 2.26753845 -10.2273587 2.2694519 -10.92604065 2.27142334 C-12.36093517 2.27278481 -13.79584201 2.26909099 -15.23071289 2.26074219 C-17.42557542 2.25005805 -19.6196164 2.26062956 -21.81445312 2.2734375 C-23.20833514 2.27211557 -24.60221664 2.26955249 -25.99609375 2.265625 C-27.26638428 2.26336914 -28.5366748 2.26111328 -29.84545898 2.25878906 C-33 2 -33 2 -36 0 C-24.0446683 -1.70415912 -12.00467034 -0.64217123 0 0 Z " fill="#151514" transform="translate(225,110)"/>
<path d="M0 0 C0.94552734 0.03544922 1.89105469 0.07089844 2.86523438 0.10742188 C4.23325195 0.17219727 4.23325195 0.17219727 5.62890625 0.23828125 C6.45592041 0.27606689 7.28293457 0.31385254 8.13500977 0.3527832 C10.4375 0.6875 10.4375 0.6875 14.4375 2.6875 C4.5375 2.6875 -5.3625 2.6875 -15.5625 2.6875 C-15.5625 2.0275 -15.5625 1.3675 -15.5625 0.6875 C-10.27275747 -0.52722528 -5.3862186 -0.2691266 0 0 Z " fill="#3C3B3B" transform="translate(237.5625,156.3125)"/>
<path d="M0 0 C0.66 0 1.32 0 2 0 C5.09719631 6.19439262 4.11132878 15.20894463 4 22 C3.01 22 2.02 22 1 22 C0.00137301 14.63512596 -0.10331031 7.42686315 0 0 Z " fill="#323232" transform="translate(215,78)"/>
<path d="M0 0 C2.24993359 -0.02707139 4.49996095 -0.04642829 6.75 -0.0625 C8.00296875 -0.07410156 9.2559375 -0.08570312 10.546875 -0.09765625 C13.28536501 -0.02021027 15.41880293 0.17219185 18 1 C17.67 1.99 17.34 2.98 17 4 C14.72942623 4.05398987 12.45848712 4.09278742 10.1875 4.125 C8.29064453 4.15980469 8.29064453 4.15980469 6.35546875 4.1953125 C3 4 3 4 0 2 C0 1.34 0 0.68 0 0 Z " fill="#5F5E5D" transform="translate(226,118)"/>
<path d="M0 0 C0.66 0 1.32 0 2 0 C2 1.65 2 3.3 2 5 C2.66 5 3.32 5 4 5 C4.33 3.68 4.66 2.36 5 1 C6.32 1.33 7.64 1.66 9 2 C9 4.31 9 6.62 9 9 C7.68 9 6.36 9 5 9 C5 8.34 5 7.68 5 7 C3.35 7.66 1.7 8.32 0 9 C-1.10844919 5.67465243 -0.84454356 3.37817425 0 0 Z " fill="#383636" transform="translate(247,102)"/>
<path d="M0 0 C0.66 0.33 1.32 0.66 2 1 C2.33 7.6 2.66 14.2 3 21 C2.34 21 1.68 21 1 21 C1 20.01 1 19.02 1 18 C0.34 18 -0.32 18 -1 18 C-2.16829852 14.49510444 -1.92852125 12.10846645 -1.625 8.4375 C-1.53476563 7.28121094 -1.44453125 6.12492187 -1.3515625 4.93359375 C-1 2 -1 2 0 0 Z " fill="#41403F" transform="translate(250,81)"/>
<path d="M0 0 C0.33 0.99 0.66 1.98 1 3 C1.66 3 2.32 3 3 3 C3 3.99 3 4.98 3 6 C4.32 6.66 5.64 7.32 7 8 C5.35 9.98 3.7 11.96 2 14 C0.68 13.67 -0.64 13.34 -2 13 C-2 11.35 -2 9.7 -2 8 C-1.01 7.67 -0.02 7.34 1 7 C0.67 4.69 0.34 2.38 0 0 Z " fill="#454442" transform="translate(159,150)"/>
<path d="M0 0 C4.29 0 8.58 0 13 0 C13 0.66 13 1.32 13 2 C12.01 2.33 11.02 2.66 10 3 C10.99 3.33 11.98 3.66 13 4 C13 4.66 13 5.32 13 6 C8.71 6 4.42 6 0 6 C0 5.34 0 4.68 0 4 C1.98 3.34 3.96 2.68 6 2 C3.03 1.505 3.03 1.505 0 1 C0 0.67 0 0.34 0 0 Z " fill="#ACABA8" transform="translate(207,306)"/>
<path d="M0 0 C2.875 0.1875 2.875 0.1875 6 1 C7.375 3.5625 7.375 3.5625 8 6 C6.8125 7.5 6.8125 7.5 5 9 C2.3125 9.1875 2.3125 9.1875 0 9 C0.33 7.02 0.66 5.04 1 3 C0.34 3 -0.32 3 -1 3 C-0.67 2.01 -0.34 1.02 0 0 Z " fill="#8B8A85" transform="translate(232,140)"/>
<path d="M0 0 C4.29 0 8.58 0 13 0 C13 0.66 13 1.32 13 2 C11.02 2.99 11.02 2.99 9 4 C10.32 4.66 11.64 5.32 13 6 C9.04 6 5.08 6 1 6 C1 5.34 1 4.68 1 4 C1.99 3.67 2.98 3.34 4 3 C2.68 2.67 1.36 2.34 0 2 C0 1.34 0 0.68 0 0 Z " fill="#B8B8B4" transform="translate(207,381)"/>
<path d="M0 0 C2.60334924 2.71182212 2.99456691 3.89133813 3.1875 7.75 C3.125625 8.8225 3.06375 9.895 3 11 C-1.875 10.125 -1.875 10.125 -3 9 C-3.04063832 7.33382885 -3.042721 5.66611905 -3 4 C-2.34 4 -1.68 4 -1 4 C-0.67 2.68 -0.34 1.36 0 0 Z " fill="#343737" transform="translate(256,127)"/>
<path d="M0 0 C0 3 0 3 -1 6 C-1 7.32 -1 8.64 -1 10 C-2.65 10.33 -4.3 10.66 -6 11 C-6.33 13.97 -6.66 16.94 -7 20 C-7.33 20 -7.66 20 -8 20 C-8.07710915 13.39064453 -7.9848598 8.34744365 -3.4375 3.25 C-2.31685587 2.14062996 -1.17925278 1.04685625 0 0 Z " fill="#A1A09E" transform="translate(148,118)"/>
<path d="M0 0 C0.99 0 1.98 0 3 0 C3 0.66 3 1.32 3 2 C3.99 2 4.98 2 6 2 C6 1.34 6 0.68 6 0 C7.65 0 9.3 0 11 0 C11.33 1.65 11.66 3.3 12 5 C11.01 4.67 10.02 4.34 9 4 C9.66 4 10.32 4 11 4 C10.67 3.34 10.34 2.68 10 2 C7.00616806 2.7195905 7.00616806 2.7195905 5.5625 4.625 C5.046875 5.07875 4.53125 5.5325 4 6 C1.8125 5.6875 1.8125 5.6875 0 5 C-0.5625 3.0625 -0.5625 3.0625 -1 1 C-0.67 0.67 -0.34 0.34 0 0 Z " fill="#B1B1AD" transform="translate(208,261)"/>
<path d="M0 0 C0.33 0.99 0.66 1.98 1 3 C-1 5 -1 5 -4.5 5.4375 C-6.2325 5.7159375 -6.2325 5.7159375 -8 6 C-8.99 7.485 -8.99 7.485 -10 9 C-10.99 9 -11.98 9 -13 9 C-13.33 7.35 -13.66 5.7 -14 4 C-13.32453125 3.96261719 -12.6490625 3.92523438 -11.953125 3.88671875 C-11.06109375 3.82097656 -10.1690625 3.75523437 -9.25 3.6875 C-8.36828125 3.62949219 -7.4865625 3.57148438 -6.578125 3.51171875 C-3.67696226 2.9358819 -2.20774393 1.92403852 0 0 Z " fill="#3B3B39" transform="translate(222,392)"/>
<path d="M0 0 C0.99 0 1.98 0 3 0 C3 0.66 3 1.32 3 2 C2.34 2 1.68 2 1 2 C1 2.66 1 3.32 1 4 C1.721875 3.525625 2.44375 3.05125 3.1875 2.5625 C5.89475226 1.05847097 7.96194275 0.43400818 11 0 C11.33 1.65 11.66 3.3 12 5 C11.01 5.33 10.02 5.66 9 6 C9 5.34 9 4.68 9 4 C9.66 4 10.32 4 11 4 C11 3.34 11 2.68 11 2 C9.68 2 8.36 2 7 2 C6.67 2.99 6.34 3.98 6 5 C3.625 5.625 3.625 5.625 1 6 C0.34 5.34 -0.32 4.68 -1 4 C-0.625 1.875 -0.625 1.875 0 0 Z " fill="#B0AFAC" transform="translate(208,352)"/>
<path d="M0 0 C8.57142857 1 8.57142857 1 12 2 C12 2.66 12 3.32 12 4 C3.57142857 6.28571429 3.57142857 6.28571429 -1 6 C-0.01 5.67 0.98 5.34 2 5 C2 3.68 2 2.36 2 1 C1.34 0.67 0.68 0.34 0 0 Z " fill="#BBBAB6" transform="translate(208,290)"/>
<path d="M0 0 C0.33 0 0.66 0 1 0 C1.6466598 8.01396246 2.16677223 15.95787245 2 24 C1.67 24 1.34 24 1 24 C1 22.02 1 20.04 1 18 C0.34 18 -0.32 18 -1 18 C-1.18451025 5.33029613 -1.18451025 5.33029613 0 0 Z " fill="#626260" transform="translate(147,154)"/>
<path d="M0 0 C0.33 0 0.66 0 1 0 C1 5.94 1 11.88 1 18 C-1.31 18 -3.62 18 -6 18 C-6.9765625 11.9453125 -6.9765625 11.9453125 -7 10 C-6.34 9.34 -5.68 8.68 -5 8 C-5 10.97 -5 13.94 -5 17 C-2.89970173 15.980938 -2.89970173 15.980938 -1 14 C-0.29727224 10.58372468 -0.29727224 10.58372468 -0.25 6.8125 C-0.19328125 5.54019531 -0.1365625 4.26789063 -0.078125 2.95703125 C-0.05234375 1.98121094 -0.0265625 1.00539063 0 0 Z " fill="#585856" transform="translate(240,82)"/>
<path d="M0 0 C0.66 0 1.32 0 2 0 C2.05425226 2.39614126 2.09379027 4.79103853 2.125 7.1875 C2.15013672 8.19780273 2.15013672 8.19780273 2.17578125 9.22851562 C2.21538674 13.28807807 1.80020002 16.34998815 0 20 C-0.33 20 -0.66 20 -1 20 C-0.67 13.4 -0.34 6.8 0 0 Z " fill="#161514" transform="translate(229,78)"/>
<path d="M0 0 C4.29 0 8.58 0 13 0 C13 1.65 13 3.3 13 5 C12.67 4.01 12.34 3.02 12 2 C10.35 2 8.7 2 7 2 C6.67 2.99 6.34 3.98 6 5 C6 4.01 6 3.02 6 2 C4.68 2 3.36 2 2 2 C2 2.99 2 3.98 2 5 C1.34 5 0.68 5 0 5 C0 3.35 0 1.7 0 0 Z " fill="#AFAEAB" transform="translate(207,367)"/>
<path d="M0 0 C1.65 0.33 3.3 0.66 5 1 C5.02689216 2.47906892 5.04634621 3.95827483 5.0625 5.4375 C5.07410156 6.26121094 5.08570313 7.08492187 5.09765625 7.93359375 C5 10 5 10 4 11 C1.98035801 11.07244053 -0.04167124 11.08377188 -2.0625 11.0625 C-3.16722656 11.05347656 -4.27195313 11.04445312 -5.41015625 11.03515625 C-6.69212891 11.01775391 -6.69212891 11.01775391 -8 11 C-8 10.67 -8 10.34 -8 10 C-7.36191406 9.93941406 -6.72382813 9.87882813 -6.06640625 9.81640625 C-5.24011719 9.73261719 -4.41382813 9.64882812 -3.5625 9.5625 C-2.73878906 9.48128906 -1.91507813 9.40007812 -1.06640625 9.31640625 C0.98662025 9.21069185 0.98662025 9.21069185 2 8 C2.36760731 5.67182036 2.70241581 3.3381615 3 1 C2.01 0.67 1.02 0.34 0 0 Z " fill="#5E5C57" transform="translate(240,140)"/>
<path d="M0 0 C0.99 0.33 1.98 0.66 3 1 C2.34 3.97 1.68 6.94 1 10 C-0.32 10 -1.64 10 -3 10 C-3.36923077 4.58461538 -3.36923077 4.58461538 -1.5 1.625 C-1.005 1.08875 -0.51 0.5525 0 0 Z " fill="#62625D" transform="translate(225,140)"/>
<path d="M0 0 C0.8353125 1.1446875 0.8353125 1.1446875 1.6875 2.3125 C3.98496406 4.9825258 5.95051939 6.31476072 9 8 C9.66 8.66 10.32 9.32 11 10 C10.625 12.125 10.625 12.125 10 14 C9.835 13.401875 9.67 12.80375 9.5 12.1875 C7.18723796 8.81472202 3.80108663 8.1668452 0 7 C0 4.69 0 2.38 0 0 Z " fill="#9F9F9C" transform="translate(259,112)"/>
<path d="M0 0 C0.66 0 1.32 0 2 0 C2.05404449 2.75026417 2.09369306 5.49946203 2.125 8.25 C2.15013672 9.41595703 2.15013672 9.41595703 2.17578125 10.60546875 C2.23662606 17.72431144 2.23662606 17.72431144 0 21 C-0.7938642 13.78194245 -1.07875823 7.19172157 0 0 Z " fill="#616260" transform="translate(146,181)"/>
<path d="M0 0 C4.29 0 8.58 0 13 0 C13 1.65 13 3.3 13 5 C12.67 4.01 12.34 3.02 12 2 C10.35 2 8.7 2 7 2 C6.67 2.99 6.34 3.98 6 5 C6 4.01 6 3.02 6 2 C4.35 2 2.7 2 1 2 C0.67 2.99 0.34 3.98 0 5 C0 3.35 0 1.7 0 0 Z " fill="#B4B4B0" transform="translate(207,412)"/>
<path d="M0 0 C1.32 0.33 2.64 0.66 4 1 C3.34 1 2.68 1 2 1 C2 1.99 2 2.98 2 4 C5.27773504 3.24849977 5.27773504 3.24849977 7 0 C10.125 -0.1875 10.125 -0.1875 13 0 C13 1.65 13 3.3 13 5 C12.01 4.67 11.02 4.34 10 4 C10.66 4 11.32 4 12 4 C11.67 3.34 11.34 2.68 11 2 C8.3094472 3.22007944 8.3094472 3.22007944 6 5 C4.33382885 5.04063832 2.66611905 5.042721 1 5 C0.67 3.35 0.34 1.7 0 0 Z " fill="#AFAFAC" transform="translate(207,397)"/>
<path d="M0 0 C2.31 0 4.62 0 7 0 C5.68 0.33 4.36 0.66 3 1 C2.67 8.26 2.34 15.52 2 23 C1.67 23 1.34 23 1 23 C0.67 15.41 0.34 7.82 0 0 Z " fill="#3C3C3A" transform="translate(240,77)"/>
<path d="M0 0 C4.29 0 8.58 0 13 0 C13 1.65 13 3.3 13 5 C12.34 4.01 11.68 3.02 11 2 C10.01 2 9.02 2 8 2 C7.34 2.66 6.68 3.32 6 4 C6 3.34 6 2.68 6 2 C4.68 2 3.36 2 2 2 C2 2.99 2 3.98 2 5 C1.34 5 0.68 5 0 5 C0 3.35 0 1.7 0 0 Z " fill="#B3B3AF" transform="translate(207,338)"/>
<path d="M0 0 C0.78375 0.04125 1.5675 0.0825 2.375 0.125 C1.385 2.435 0.395 4.745 -0.625 7.125 C-1.945 7.125 -3.265 7.125 -4.625 7.125 C-4.75 4.75 -4.75 4.75 -4.625 2.125 C-2.625 0.125 -2.625 0.125 0 0 Z " fill="#222322" transform="translate(153.625,120.875)"/>
<path d="M0 0 C2.64 0.33 5.28 0.66 8 1 C5 3 5 3 2 3 C2 3.66 2 4.32 2 5 C5.96 5 9.92 5 14 5 C14 5.33 14 5.66 14 6 C9.71 6 5.42 6 1 6 C1 5.01 1 4.02 1 3 C0.34 3 -0.32 3 -1 3 C-0.67 2.01 -0.34 1.02 0 0 Z " fill="#4B4B49" transform="translate(206,382)"/>
<path d="M0 0 C1.27230469 0.00902344 2.54460937 0.01804688 3.85546875 0.02734375 C5.31919922 0.04474609 5.31919922 0.04474609 6.8125 0.0625 C6.8125 0.3925 6.8125 0.7225 6.8125 1.0625 C5.89726562 1.09988281 4.98203125 1.13726562 4.0390625 1.17578125 C2.85054687 1.24152344 1.66203125 1.30726563 0.4375 1.375 C-0.74585938 1.43300781 -1.92921875 1.49101562 -3.1484375 1.55078125 C-4.15132812 1.71964844 -5.15421875 1.88851562 -6.1875 2.0625 C-8.31258244 5.25012365 -8.6895163 7.32762223 -9.1875 11.0625 C-9.5175 11.0625 -9.8475 11.0625 -10.1875 11.0625 C-10.1875 7.7625 -10.1875 4.4625 -10.1875 1.0625 C-6.62704823 -0.12431726 -3.74941663 -0.03439832 0 0 Z " fill="#4B4B49" transform="translate(231.1875,138.9375)"/>
<path d="M0 0 C1.39456452 0.00667256 2.78911118 0.01863093 4.18359375 0.03515625 C4.89451172 0.03966797 5.60542969 0.04417969 6.33789062 0.04882812 C8.09899388 0.06064761 9.86005411 0.07858362 11.62109375 0.09765625 C6.73021696 2.71776882 2.91904125 3.22046003 -2.62890625 3.16015625 C-3.7065625 3.15113281 -4.78421875 3.14210938 -5.89453125 3.1328125 C-6.714375 3.12121094 -7.53421875 3.10960937 -8.37890625 3.09765625 C-7.73953125 2.78828125 -7.10015625 2.47890625 -6.44140625 2.16015625 C-2.38178809 0.06883781 -2.38178809 0.06883781 0 0 Z " fill="#767674" transform="translate(238.37890625,514.90234375)"/>
<path d="M0 0 C3.0625 1.1875 3.0625 1.1875 6.0625 3.1875 C6.0625 3.8475 6.0625 4.5075 6.0625 5.1875 C5.4025 5.1875 4.7425 5.1875 4.0625 5.1875 C3.7325 6.1775 3.4025 7.1675 3.0625 8.1875 C2 6.3125 2 6.3125 1.0625 4.1875 C1.3925 3.5275 1.7225 2.8675 2.0625 2.1875 C-0.2475 2.1875 -2.5575 2.1875 -4.9375 2.1875 C-4.9375 1.5275 -4.9375 0.8675 -4.9375 0.1875 C-2.9375 -0.8125 -2.9375 -0.8125 0 0 Z " fill="#696866" transform="translate(167.9375,102.8125)"/>
<path d="M0 0 C0.33 0 0.66 0 1 0 C1.02893932 3.62498334 1.04677792 7.24993713 1.0625 10.875 C1.07087891 11.90753906 1.07925781 12.94007812 1.08789062 14.00390625 C1.09111328 14.99003906 1.09433594 15.97617188 1.09765625 16.9921875 C1.10289307 17.90339355 1.10812988 18.81459961 1.11352539 19.75341797 C1 22 1 22 0 24 C-0.66 24 -1.32 24 -2 24 C-1.84660156 23.37738281 -1.69320312 22.75476563 -1.53515625 22.11328125 C-0.79669205 17.81725228 -0.63537838 13.53758048 -0.4375 9.1875 C-0.37272461 7.86202148 -0.37272461 7.86202148 -0.30664062 6.50976562 C-0.20108464 4.34000377 -0.10008929 2.1700209 0 0 Z " fill="#6E6E6B" transform="translate(200,84)"/>
<path d="M0 0 C0.99 0.33 1.98 0.66 3 1 C3.33 1.99 3.66 2.98 4 4 C4.33 2.68 4.66 1.36 5 0 C5 1.65 5 3.3 5 5 C3.02 5 1.04 5 -1 5 C-1.33 5.66 -1.66 6.32 -2 7 C-2.66 6.67 -3.32 6.34 -4 6 C-4 5.34 -4 4.68 -4 4 C-3.34 4 -2.68 4 -2 4 C-1.34 2.68 -0.68 1.36 0 0 Z " fill="#4C4A48" transform="translate(216,262)"/>
<path d="M0 0 C2.64 0 5.28 0 8 0 C8 0.99 8 1.98 8 3 C5.69 3 3.38 3 1 3 C1 4.98 1 6.96 1 9 C0.67 9 0.34 9 0 9 C0 6.03 0 3.06 0 0 Z " fill="#343232" transform="translate(231,76)"/>
<path d="M0 0 C1.32 0.33 2.64 0.66 4 1 C3 4 3 4 0 6 C-2.6875 6.125 -2.6875 6.125 -5 6 C-3.35 4.02 -1.7 2.04 0 0 Z " fill="#73726D" transform="translate(206,76)"/>
<path d="M0 0 C3.875 1.75 3.875 1.75 5 4 C3.5625 6.625 3.5625 6.625 2 9 C0.68 8.34 -0.64 7.68 -2 7 C-1.34 6.34 -0.68 5.68 0 5 C0.16687448 2.41645782 0.16687448 2.41645782 0 0 Z " fill="#3E3D3B" transform="translate(219,352)"/>
<path d="M0 0 C1 2 1 2 0.75 4.0625 C0.5025 4.701875 0.255 5.34125 0 6 C-0.99 6.33 -1.98 6.66 -3 7 C-4.38576923 8.62332967 -5.72641268 10.28724465 -7 12 C-6.79692286 7.73538008 -5.91504038 5.56751049 -2.9375 2.625 C-1.968125 1.75875 -0.99875 0.8925 0 0 Z " fill="#626260" transform="translate(159,168)"/>
<path d="M0 0 C1.60407328 -0.02708567 3.2082785 -0.04643483 4.8125 -0.0625 C5.70582031 -0.07410156 6.59914062 -0.08570313 7.51953125 -0.09765625 C10 0 10 0 13 1 C13 1.66 13 2.32 13 3 C10.03 3 7.06 3 4 3 C4 2.34 4 1.68 4 1 C2.68 0.67 1.36 0.34 0 0 Z " fill="#31302C" transform="translate(222,150)"/>
<path d="M0 0 C2.64 0.33 5.28 0.66 8 1 C8 3.31 8 5.62 8 8 C7.67 7.34 7.34 6.68 7 6 C6.01 5.67 5.02 5.34 4 5 C3.67 4.01 3.34 3.02 3 2 C2.01 1.34 1.02 0.68 0 0 Z " fill="#797874" transform="translate(235,140)"/>
<path d="M0 0 C0 0.66 0 1.32 0 2 C-0.66 2 -1.32 2 -2 2 C-2 2.99 -2 3.98 -2 5 C-3.32 5 -4.64 5 -6 5 C-6 4.34 -6 3.68 -6 3 C-6.66 3 -7.32 3 -8 3 C-8 2.34 -8 1.68 -8 1 C-5.07175348 0.02391783 -3.04386724 -0.08226668 0 0 Z " fill="#282725" transform="translate(168,109)"/>
<path d="M0 0 C2.97 0 5.94 0 9 0 C9.33 1.65 9.66 3.3 10 5 C7.0625 4.625 7.0625 4.625 4 4 C3.67 3.34 3.34 2.68 3 2 C2.01 1.34 1.02 0.68 0 0 Z " fill="#535250" transform="translate(209,323)"/>
<path d="M0 0 C-0.33 1.65 -0.66 3.3 -1 5 C-2.32 5 -3.64 5 -5 5 C-5.33 3.35 -5.66 1.7 -6 0 C-3 -1 -3 -1 0 0 Z " fill="#3B3A39" transform="translate(149,130)"/>
<path d="M0 0 C0.33 0 0.66 0 1 0 C1 2.31 1 4.62 1 7 C-1.31 6.67 -3.62 6.34 -6 6 C-5.67 5.01 -5.34 4.02 -5 3 C-3.35 3 -1.7 3 0 3 C0 2.01 0 1.02 0 0 Z " fill="#5B5A57" transform="translate(258,112)"/>
<path d="M0 0 C0.33 0 0.66 0 1 0 C0.67 4.62 0.34 9.24 0 14 C-0.66 13.67 -1.32 13.34 -2 13 C-2.59355614 10.35139573 -2.74209269 7.70802678 -3 5 C-2.34 4.67 -1.68 4.34 -1 4 C-0.34786708 1.97536745 -0.34786708 1.97536745 0 0 Z " fill="#282627" transform="translate(228,83)"/>
<path d="M0 0 C2.04296875 0.4609375 2.04296875 0.4609375 4.1875 1.375 C4.90292969 1.67148437 5.61835938 1.96796875 6.35546875 2.2734375 C7.16951172 2.63308594 7.16951172 2.63308594 8 3 C8 3.99 8 4.98 8 6 C6.02 6 4.04 6 2 6 C2.99 5.67 3.98 5.34 5 5 C5 4.34 5 3.68 5 3 C2.36 2.67 -0.28 2.34 -3 2 C-2.01 1.34 -1.02 0.68 0 0 Z " fill="#474745" transform="translate(215,289)"/>
<path d="M0 0 C0.7425 0.2475 1.485 0.495 2.25 0.75 C1.92 1.74 1.59 2.73 1.25 3.75 C-0.59765625 4.48046875 -0.59765625 4.48046875 -2.8125 4.9375 C-3.54597656 5.09605469 -4.27945313 5.25460938 -5.03515625 5.41796875 C-5.88400391 5.58232422 -5.88400391 5.58232422 -6.75 5.75 C-6.75 3.75 -6.75 3.75 -5.0625 1.5625 C-2.75 -0.25 -2.75 -0.25 0 0 Z " fill="#4C4C4A" transform="translate(163.75,105.25)"/>
<path d="M0 0 C1.32 0 2.64 0 4 0 C2.82744291 3.33727786 1.81131596 5.77437487 -1 8 C-1.66 8 -2.32 8 -3 8 C-3 7.01 -3 6.02 -3 5 C-2.34 5 -1.68 5 -1 5 C-0.67 3.35 -0.34 1.7 0 0 Z " fill="#817F7B" transform="translate(266,502)"/>
<path d="M0 0 C0 1.65 0 3.3 0 5 C-0.66 5 -1.32 5 -2 5 C-2.33 5.66 -2.66 6.32 -3 7 C-3 6.34 -3 5.68 -3 5 C-4.98 5 -6.96 5 -9 5 C-6 3 -6 3 -3 3 C-3 2.34 -3 1.68 -3 1 C-1 0 -1 0 0 0 Z " fill="#444340" transform="translate(223,305)"/>
<path d="M0 0 C1.48828125 0.98828125 1.48828125 0.98828125 3 3 C3.21714241 5.81127043 3.28284276 8.3883345 3.1875 11.1875 C3.16719727 12.31188477 3.16719727 12.31188477 3.14648438 13.45898438 C3.11118539 15.30629767 3.05737917 17.15324066 3 19 C2.67 19 2.34 19 2 19 C1.93941406 18.04738281 1.87882812 17.09476563 1.81640625 16.11328125 C1.73261719 14.85902344 1.64882813 13.60476562 1.5625 12.3125 C1.48128906 11.07113281 1.40007812 9.82976562 1.31640625 8.55078125 C1.05508683 5.61819663 0.65201621 2.86558383 0 0 Z " fill="#64635E" transform="translate(272,173)"/>
<path d="M0 0 C0.0825 0.61875 0.165 1.2375 0.25 1.875 C0.79994195 4.1765144 0.79994195 4.1765144 3 5.125 C3.66 5.41375 4.32 5.7025 5 6 C5.33 6.66 5.66 7.32 6 8 C4.02 8 2.04 8 0 8 C-1.09658936 4.71023192 -0.79953138 3.28696233 0 0 Z " fill="#60605E" transform="translate(266,165)"/>
<path d="M0 0 C1.45922693 0.11409593 2.91740598 0.24165544 4.375 0.375 C5.59316406 0.47941406 5.59316406 0.47941406 6.8359375 0.5859375 C9 1 9 1 11 3 C10 4 10 4 6.4375 4.0625 C5.303125 4.041875 4.16875 4.02125 3 4 C3.33 3.01 3.66 2.02 4 1 C2.68 0.67 1.36 0.34 0 0 Z " fill="#41403F" transform="translate(240,118)"/>
<path d="M0 0 C0.99 0.33 1.98 0.66 3 1 C3 2.65 3 4.3 3 6 C4.32 6.33 5.64 6.66 7 7 C5.02 7.66 3.04 8.32 1 9 C0.67 6.03 0.34 3.06 0 0 Z " fill="#50504E" transform="translate(146,122)"/>
<path d="M0 0 C0 0.33 0 0.66 0 1 C-1.65 1 -3.3 1 -5 1 C-4.67 2.98 -4.34 4.96 -4 7 C-4.99 6.67 -5.98 6.34 -7 6 C-8.1875 3.4375 -8.1875 3.4375 -9 1 C-6.04335481 -0.4783226 -3.25770263 -0.06032783 0 0 Z " fill="#4B4B49" transform="translate(240,101)"/>
<path d="M0 0 C0.99 0.33 1.98 0.66 3 1 C3.73046875 3.06640625 3.73046875 3.06640625 4.1875 5.5625 C4.34605469 6.38878906 4.50460938 7.21507812 4.66796875 8.06640625 C4.77753906 8.70449219 4.88710937 9.34257812 5 10 C1.94597912 8.47298956 1.34130519 6.04842088 0 3 C0 2.01 0 1.02 0 0 Z " fill="#77786D" transform="translate(151,496)"/>
<path d="M0 0 C4.29 0 8.58 0 13 0 C13 0.66 13 1.32 13 2 C11.02 2.33 9.04 2.66 7 3 C7 2.67 7 2.34 7 2 C4.69 1.67 2.38 1.34 0 1 C0 0.67 0 0.34 0 0 Z " fill="#C3C2BE" transform="translate(207,306)"/>
<path d="M0 0 C2.97 0 5.94 0 9 0 C9 0.66 9 1.32 9 2 C5.62182575 2.84454356 3.32534757 3.10844919 0 2 C0 1.34 0 0.68 0 0 Z " fill="#8F8F8C" transform="translate(211,292)"/>
<path d="M0 0 C1.65 0.33 3.3 0.66 5 1 C3.37660195 2.70884005 1.70680947 4.37446717 0 6 C-0.66 6 -1.32 6 -2 6 C-1.34 4.02 -0.68 2.04 0 0 Z " fill="#696A69" transform="translate(155,122)"/>
<path d="M0 0 C4.62 0 9.24 0 14 0 C14 0.33 14 0.66 14 1 C10.7 1 7.4 1 4 1 C4 1.66 4 2.32 4 3 C2.68 2.67 1.36 2.34 0 2 C0 1.34 0 0.68 0 0 Z " fill="#5B595B" transform="translate(226,118)"/>
<path d="M0 0 C0.33 0 0.66 0 1 0 C1 2.64 1 5.28 1 8 C-0.65 7.67 -2.3 7.34 -4 7 C-4 6.34 -4 5.68 -4 5 C-2.68 4.67 -1.36 4.34 0 4 C0 2.68 0 1.36 0 0 Z " fill="#212221" transform="translate(205,99)"/>
<path d="M0 0 C1.65 0 3.3 0 5 0 C4.67 1.65 4.34 3.3 4 5 C3.67 4.34 3.34 3.68 3 3 C1.68 3.33 0.36 3.66 -1 4 C-0.67 2.68 -0.34 1.36 0 0 Z " fill="#3C3C38" transform="translate(208,414)"/>
<path d="M0 0 C0.99 0.33 1.98 0.66 3 1 C3.33 1.99 3.66 2.98 4 4 C4.33 2.68 4.66 1.36 5 0 C5 1.65 5 3.3 5 5 C3.35 5 1.7 5 0 5 C0 3.35 0 1.7 0 0 Z " fill="#52524F" transform="translate(216,398)"/>
<path d="M0 0 C0.99 0 1.98 0 3 0 C3 0.66 3 1.32 3 2 C3.66 2.33 4.32 2.66 5 3 C4 4 4 4 1.4375 4.0625 C0.2309375 4.0315625 0.2309375 4.0315625 -1 4 C-0.67 2.68 -0.34 1.36 0 0 Z " fill="#6F6E6A" transform="translate(208,261)"/>
<path d="M0 0 C0.33 0 0.66 0 1 0 C1 1.98 1 3.96 1 6 C-0.32 6 -1.64 6 -3 6 C-3 5.34 -3 4.68 -3 4 C-2.34 4 -1.68 4 -1 4 C-0.67 2.68 -0.34 1.36 0 0 Z " fill="#403D39" transform="translate(269,496)"/>
<path d="M0 0 C0.66 0.33 1.32 0.66 2 1 C2.59355614 3.64860427 2.74209269 6.29197322 3 9 C2.34 9 1.68 9 1 9 C0.63877119 7.68942607 0.28619689 6.37646376 -0.0625 5.0625 C-0.35833984 3.96615234 -0.35833984 3.96615234 -0.66015625 2.84765625 C-0.77230469 2.23792969 -0.88445312 1.62820313 -1 1 C-0.67 0.67 -0.34 0.34 0 0 Z " fill="#32332F" transform="translate(155,497)"/>
<path d="M0 0 C1.65 0 3.3 0 5 0 C5.33 1.32 5.66 2.64 6 4 C3.03 3.505 3.03 3.505 0 3 C0 2.01 0 1.02 0 0 Z " fill="#555450" transform="translate(214,369)"/>
<path d="M0 0 C2 2 2 2 2 4 C2.66 4.66 3.32 5.32 4 6 C2.02 6.99 2.02 6.99 0 8 C-0.66 5.69 -1.32 3.38 -2 1 C-1.34 0.67 -0.68 0.34 0 0 Z " fill="#41403D" transform="translate(220,364)"/>
<path d="" fill="#FFFFFF" transform="translate(0,0)"/>
<path d="" fill="#FFFFFF" transform="translate(0,0)"/>
<path d="" fill="#FFFFFF" transform="translate(0,0)"/>
<path d="" fill="#FFFFFF" transform="translate(0,0)"/>
<path d="" fill="#FFFFFF" transform="translate(0,0)"/>
<path d="" fill="#FFFFFF" transform="translate(0,0)"/>
<path d="" fill="#FFFFFF" transform="translate(0,0)"/>
<path d="" fill="#FFFFFF" transform="translate(0,0)"/>
<path d="" fill="#FFFFFF" transform="translate(0,0)"/>
<path d="" fill="#FFFFFF" transform="translate(0,0)"/>
<path d="" fill="#FFFFFF" transform="translate(0,0)"/>
<path d="" fill="#FFFFFF" transform="translate(0,0)"/>
<path d="" fill="#FFFFFF" transform="translate(0,0)"/>
<path d="" fill="#FFFFFF" transform="translate(0,0)"/>
<path d="" fill="#FFFFFF" transform="translate(0,0)"/>
<path d="" fill="#FFFFFF" transform="translate(0,0)"/>
<path d="" fill="#FFFFFF" transform="translate(0,0)"/>
<path d="" fill="#FFFFFF" transform="translate(0,0)"/>
<path d="" fill="#FFFFFF" transform="translate(0,0)"/>
<path d="" fill="#FFFFFF" transform="translate(0,0)"/>
<path d="" fill="#FFFFFF" transform="translate(0,0)"/>
<path d="" fill="#FFFFFF" transform="translate(0,0)"/>
<path d="" fill="#FFFFFF" transform="translate(0,0)"/>
<path d="" fill="#FFFFFF" transform="translate(0,0)"/>
<path d="" fill="#FFFFFF" transform="translate(0,0)"/>
<path d="" fill="#FFFFFF" transform="translate(0,0)"/>
<path d="" fill="#FFFFFF" transform="translate(0,0)"/>
<path d="" fill="#FFFFFF" transform="translate(0,0)"/>
<path d="" fill="#FFFFFF" transform="translate(0,0)"/>
<path d="" fill="#FFFFFF" transform="translate(0,0)"/>
<path d="" fill="#FFFFFF" transform="translate(0,0)"/>
<path d="" fill="#FFFFFF" transform="translate(0,0)"/>
<path d="" fill="#FFFFFF" transform="translate(0,0)"/>
<path d="" fill="#FFFFFF" transform="translate(0,0)"/>
<path d="" fill="#FFFFFF" transform="translate(0,0)"/>
<path d="" fill="#FFFFFF" transform="translate(0,0)"/>
<path d="" fill="#FFFFFF" transform="translate(0,0)"/>
<path d="" fill="#FFFFFF" transform="translate(0,0)"/>
<path d="" fill="#FFFFFF" transform="translate(0,0)"/>
<path d="" fill="#FFFFFF" transform="translate(0,0)"/>
<path d="" fill="#FFFFFF" transform="translate(0,0)"/>
<path d="" fill="#FFFFFF" transform="translate(0,0)"/>
<path d="" fill="#FFFFFF" transform="translate(0,0)"/>
<path d="" fill="#FFFFFF" transform="translate(0,0)"/>
<path d="" fill="#FFFFFF" transform="translate(0,0)"/>
<path d="" fill="#FFFFFF" transform="translate(0,0)"/>
<path d="" fill="#FFFFFF" transform="translate(0,0)"/>
<path d="" fill="#FFFFFF" transform="translate(0,0)"/>
<path d="" fill="#FFFFFF" transform="translate(0,0)"/>
<path d="" fill="#FFFFFF" transform="translate(0,0)"/>
<path d="" fill="#FFFFFF" transform="translate(0,0)"/>
<path d="" fill="#FFFFFF" transform="translate(0,0)"/>
<path d="" fill="#FFFFFF" transform="translate(0,0)"/>
<path d="" fill="#FFFFFF" transform="translate(0,0)"/>
<path d="" fill="#FFFFFF" transform="translate(0,0)"/>
<path d="" fill="#FFFFFF" transform="translate(0,0)"/>
<path d="" fill="#FFFFFF" transform="translate(0,0)"/>
<path d="" fill="#FFFFFF" transform="translate(0,0)"/>
<path d="" fill="#FFFFFF" transform="translate(0,0)"/>
<path d="" fill="#FFFFFF" transform="translate(0,0)"/>
<path d="" fill="#FFFFFF" transform="translate(0,0)"/>
<path d="" fill="#FFFFFF" transform="translate(0,0)"/>
<path d="" fill="#FFFFFF" transform="translate(0,0)"/>
<path d="" fill="#FFFFFF" transform="translate(0,0)"/>
<path d="" fill="#FFFFFF" transform="translate(0,0)"/>
<path d="" fill="#FFFFFF" transform="translate(0,0)"/>
<path d="" fill="#FFFFFF" transform="translate(0,0)"/>
<path d="" fill="#FFFFFF" transform="translate(0,0)"/>
<path d="" fill="#FFFFFF" transform="translate(0,0)"/>
<path d="" fill="#FFFFFF" transform="translate(0,0)"/>
<path d="" fill="#FFFFFF" transform="translate(0,0)"/>
<path d="" fill="#FFFFFF" transform="translate(0,0)"/>
<path d="" fill="#FFFFFF" transform="translate(0,0)"/>
<path d="" fill="#FFFFFF" transform="translate(0,0)"/>
</svg>
