<?xml version="1.0" encoding="UTF-8"?>
<svg version="1.1" xmlns="http://www.w3.org/2000/svg" width="440" height="566">
<path d="M0 0 C1.98 0 3.96 0 6 0 C9.35018506 5.08805226 10.58088606 8.72165268 10.3125 14.875 C10.28603394 15.96288818 10.28603394 15.96288818 10.2590332 17.07275391 C10.19420872 19.38308854 10.09701643 21.69081696 10 24 C9.95515186 25.59373386 9.91087912 27.18748402 9.8671875 28.78125 C9.80996615 30.31260228 9.75015406 31.84386038 9.6875 33.375 C9.66534424 34.09413574 9.64318848 34.81327148 9.62036133 35.55419922 C9.4650171 38.45931091 9.31706307 40.54080521 7.640625 42.96875 C5.1449503 44.53745981 2.8908497 44.11799387 0 44 C-1.32 44.33 -2.64 44.66 -4 45 C-3.01 50.445 -3.01 50.445 -2 56 C-0.68644531 55.97679687 0.62710938 55.95359375 1.98046875 55.9296875 C3.71614013 55.91092349 5.45181768 55.89272396 7.1875 55.875 C8.05181641 55.85824219 8.91613281 55.84148438 9.80664062 55.82421875 C14.46741048 55.78850404 17.69316938 56.12805472 22 58 C25.1472864 58.59871652 28.32232998 58.97359782 31.5 59.375 C39.10068008 60.4008013 46.65047074 61.57794473 54.1875 63 C55.44046875 63.23082275 55.44046875 63.23082275 56.71875 63.46630859 C68.37690604 65.7091556 82.60143259 68.9820826 90.8359375 78.1796875 C92.83460368 81.3051185 93.92502917 84.6993663 95.0703125 88.2109375 C95.90759848 90.72279544 96.87702473 93.04356046 98 95.4375 C100.02080573 99.8515737 101.51215165 104.38183656 102.97265625 109.0078125 C103.31167969 109.99523437 103.65070313 110.98265625 104 112 C104.38285156 113.16015625 104.76570313 114.3203125 105.16015625 115.515625 C107.50204589 119.95079603 110.26889669 121.89816691 114.375 124.625 C122.57800852 130.23252536 129.84984913 136.05503485 133.3125 145.6875 C133.93898438 147.39486328 133.93898438 147.39486328 134.578125 149.13671875 C134.80306641 149.75466309 135.02800781 150.37260742 135.25976562 151.00927734 C136.05574767 153.14992298 136.8901635 155.27245693 137.734375 157.39453125 C141.22342034 166.16771047 144.39185806 174.91726008 147 184 C147.31453125 185.02351562 147.6290625 186.04703125 147.953125 187.1015625 C151.30498283 198.2478199 153.59631447 209.62008034 156 221 C156.78613128 224.70953691 157.57755303 228.41787894 158.375 232.125 C158.57528809 233.05828125 158.77557617 233.9915625 158.98193359 234.953125 C160.42187733 241.57263434 162.00979277 248.14761347 163.6418457 254.72216797 C166.89285713 267.84173622 169.47627542 280.89839854 171.55273438 294.24902344 C172.25357164 298.5596317 173.09422239 302.84038425 173.9375 307.125 C176.3508415 319.50248946 178.36070036 331.94593391 180.40185547 344.38916016 C180.9439345 347.66154743 181.50065615 350.93085437 182.06640625 354.19921875 C183.89327859 364.7913698 185.55730596 375.40322021 187.03244019 386.05004883 C187.305748 388.01398153 187.58746087 389.97673875 187.86938477 391.93945312 C189.00402554 400.34353486 188.59905588 406.9176915 186.5 415.125 C185.11319736 420.88556483 184.57978762 426.40557207 184.40625 432.3203125 C184 435 184 435 182.59375 436.8671875 C181 438 181 438 179 438 C179.05800781 438.68707031 179.11601562 439.37414062 179.17578125 440.08203125 C179.22089844 440.98308594 179.26601563 441.88414062 179.3125 442.8125 C179.37050781 443.70582031 179.42851562 444.59914063 179.48828125 445.51953125 C179.32714844 446.33808594 179.16601562 447.15664063 179 448 C177.82050781 448.60908203 177.82050781 448.60908203 176.6171875 449.23046875 C173.5834779 451.28161867 173.49091903 451.85338367 172.70703125 455.28125 C172.38769189 457.01707318 172.09052883 458.75708299 171.8125 460.5 C171.64943359 461.39968506 171.48636719 462.29937012 171.31835938 463.22631836 C170.63513945 467.02964454 170.02422961 470.83898477 169.44921875 474.66015625 C169.30097656 475.61792969 169.15273438 476.57570313 169 477.5625 C168.896875 478.36816406 168.79375 479.17382812 168.6875 480.00390625 C167.74711696 482.73422292 166.46819961 483.56685184 164 485 C150.88812782 487.3262999 137.2110992 485.89566774 124 485 C121.7095952 489.23267128 120.3227857 493.13178875 119.28125 497.82421875 C118.84232422 499.73750977 118.84232422 499.73750977 118.39453125 501.68945312 C117.94357365 503.69658408 117.49625229 505.70445459 117.05224609 507.71313477 C116.61699503 509.66891043 116.16805468 511.62162375 115.71875 513.57421875 C115.46029297 514.73526123 115.20183594 515.89630371 114.93554688 517.0925293 C114.01103136 519.965717 113.438881 521.27117296 111 523 C108.28515625 523.14453125 108.28515625 523.14453125 105.0625 522.8125 C104.02222656 522.71582031 102.98195313 522.61914062 101.91015625 522.51953125 C98.7640285 522.10151428 95.68294844 521.5816107 92.5625 521.015625 C85.05526764 519.74151804 77.52804596 519.34456398 69.9375 518.9375 C67.84864911 518.8204114 65.75992502 518.70140683 63.67127991 518.58070374 C61.77966441 518.47215026 59.88776448 518.3685854 57.99584961 518.26538086 C54.89495651 518.08007528 51.81081815 517.79303312 48.71923828 517.49072266 C43.09091511 516.96835044 37.48962408 516.78209623 31.83984375 516.68359375 C30.8104921 516.66281265 29.78114044 516.64203156 28.72059631 516.62062073 C26.5550589 516.57767847 24.38948377 516.53660094 22.22387695 516.49731445 C18.97011485 516.43809361 15.71651662 516.37288034 12.46289062 516.30664062 C-7.64763777 515.9092608 -27.71400587 516.00387174 -47.82495117 516.37231445 C-51.45550813 516.43782494 -55.08613464 516.49728974 -58.71679688 516.55664062 C-61.05990248 516.59858881 -63.40300172 516.64089388 -65.74609375 516.68359375 C-66.81403671 516.70030624 -67.88197968 516.71701874 -68.98228455 516.73423767 C-74.92456277 516.85018471 -80.79250582 517.18083052 -86.70602417 517.78283691 C-89.37446746 518.03544959 -92.00801309 518.10133314 -94.6875 518.0625 C-95.51636719 518.05347656 -96.34523438 518.04445313 -97.19921875 518.03515625 C-97.79347656 518.02355469 -98.38773437 518.01195312 -99 518 C-99.33 518.66 -99.66 519.32 -100 520 C-103.43742918 520.05802698 -106.87473253 520.09360486 -110.3125 520.125 C-111.28896484 520.14175781 -112.26542969 520.15851562 -113.27148438 520.17578125 C-114.67817383 520.18544922 -114.67817383 520.18544922 -116.11328125 520.1953125 C-117.40939331 520.21102295 -117.40939331 520.21102295 -118.73168945 520.22705078 C-121 520 -121 520 -124 518 C-124.92433498 515.13456157 -125.68686751 512.35984376 -126.375 509.4375 C-126.80116805 507.72080219 -127.22960667 506.00466666 -127.66015625 504.2890625 C-127.87816895 503.41411133 -128.09618164 502.53916016 -128.32080078 501.63769531 C-129.38625136 497.49997854 -130.59063982 493.40630257 -131.8125 489.3125 C-132.03147949 488.57636475 -132.25045898 487.84022949 -132.47607422 487.08178711 C-132.9816752 485.38714789 -133.49044576 483.69345473 -134 482 C-134.5576001 482.06582275 -135.1152002 482.13164551 -135.68969727 482.19946289 C-149.74263213 483.81479254 -163.26745441 485.24144446 -177 481 C-179.08312259 472.76472201 -180.56302808 464.63538808 -181.5703125 456.21484375 C-181.90330563 453.72344971 -182.31457944 451.41099687 -183 449 C-183.99 449 -184.98 449 -186 449 C-186.625 447.1875 -186.625 447.1875 -187 445 C-186.34 444.01 -185.68 443.02 -185 442 C-184.34 442 -183.68 442 -183 442 C-183 441.34 -183 440.68 -183 440 C-183.75925781 440.03480469 -184.51851562 440.06960938 -185.30078125 440.10546875 C-186.29464844 440.13253906 -187.28851563 440.15960938 -188.3125 440.1875 C-189.79169922 440.23970703 -189.79169922 440.23970703 -191.30078125 440.29296875 C-194 440 -194 440 -195.828125 438.78125 C-198.16871582 435.22355196 -197.56970335 431.07187976 -197 427 C-195.91620735 424.07704406 -194.59968999 421.69947686 -193 419 C-193.78375 418.731875 -194.5675 418.46375 -195.375 418.1875 C-198 417 -198 417 -200 414 C-200.19984428 411.02290803 -200.28305014 408.16288268 -200.25 405.1875 C-200.24468262 404.33164307 -200.23936523 403.47578613 -200.23388672 402.59399414 C-200.14341617 396.47348976 -199.56228414 390.57025211 -198.55859375 384.52734375 C-198.06368163 381.40212944 -197.70466858 378.29073852 -197.39819336 375.14233398 C-195.33472375 354.16093676 -191.45439467 333.08489844 -187.03515625 312.48046875 C-183.97711422 298.05796348 -182.27921887 283.58126869 -180.66162109 268.93652344 C-179.29321567 256.74167452 -177.34494508 245.23002007 -173.74755859 233.49658203 C-172.58615475 229.61790283 -171.52853421 225.71140177 -170.45605469 221.80737305 C-167.46024922 210.92834286 -164.24642997 200.14505096 -160.76806641 189.41162109 C-159.94910216 186.8401879 -159.16554971 184.25964013 -158.38671875 181.67578125 C-143.84299861 133.85061781 -143.84299861 133.85061781 -124.76831055 122.97485352 C-117.65887691 118.84487305 -114.56046506 115.76588249 -112.13671875 107.61328125 C-110.80037512 103.36545357 -108.96293374 99.57887099 -106.9375 95.625 C-106.60830566 94.97136475 -106.27911133 94.31772949 -105.93994141 93.64428711 C-104.33876348 90.49525041 -102.67242066 87.4027805 -100.8984375 84.34765625 C-98.86853631 80.76818029 -97.23982071 77.1163054 -95.63671875 73.33203125 C-91.33771483 67.20672017 -83.44331784 65.66174385 -76.5625 63.9375 C-75.54639648 63.68000977 -74.53029297 63.42251953 -73.48339844 63.15722656 C-62.93194328 60.67582623 -52.30024478 59.72127344 -41.51391602 58.93725586 C-40.20479248 58.83936768 -38.89566895 58.74147949 -37.546875 58.640625 C-36.37995117 58.56360352 -35.21302734 58.48658203 -34.01074219 58.40722656 C-31.13800166 58.01866581 -29.51419664 57.33162723 -27 56 C-24.89355469 55.68115234 -24.89355469 55.68115234 -22.671875 55.5859375 C-21.87265625 55.54726563 -21.0734375 55.50859375 -20.25 55.46875 C-19.425 55.4378125 -18.6 55.406875 -17.75 55.375 C-16.90953125 55.33632813 -16.0690625 55.29765625 -15.203125 55.2578125 C-13.13576618 55.16384164 -11.06791373 55.08084436 -9 55 C-8.34 50.71 -7.68 46.42 -7 42 C-2.6601667 40.69805001 1.52037 39.7288075 6 39 C5.93104723 34.51540319 5.84304555 30.03170291 5.73754883 25.54785156 C5.7043412 24.0232166 5.67629622 22.49845994 5.65356445 20.97363281 C5.61994042 18.77877046 5.56762458 16.58501912 5.51171875 14.390625 C5.48553467 13.07094727 5.45935059 11.75126953 5.43237305 10.39160156 C4.98181678 6.85736796 4.30036526 5.60603495 2 3 C2 2.34 2 1.68 2 1 C1.01 0.505 1.01 0.505 0 0 Z " fill="#171719" transform="translate(225,0)"/>
<path d="M0 0 C0.66 0 1.32 0 2 0 C2.99 2.64 3.98 5.28 5 8 C14.31763119 9.26989062 19.267459 9.21812788 27.125 3.875 C30.66448166 1.5666424 33.13431221 0.64703204 37.3125 1.4375 C37.869375 1.623125 38.42625 1.80875 39 2 C38.125 5.875 38.125 5.875 37 7 C36.8466865 8.99274158 36.76152381 10.99075538 36.70288086 12.98852539 C36.66291489 14.26977798 36.62294891 15.55103058 36.58177185 16.87110901 C36.5426932 18.27995525 36.50371967 19.6888044 36.46484375 21.09765625 C36.42185351 22.53113553 36.37843706 23.96460209 36.33460999 25.39805603 C36.2202086 29.17746507 36.11162018 32.95701993 36.00421143 36.7366333 C35.89366463 40.59080229 35.77766258 44.44480656 35.66210938 48.29882812 C35.43604448 55.86573422 35.21611578 63.43280252 35 71 C36.11383057 70.97744141 37.22766113 70.95488281 38.37524414 70.93164062 C43.43906926 71.02713945 44.4960951 72.58155619 48 76 C48.33 74.35 48.66 72.7 49 71 C53.62 71 58.24 71 63 71 C63 72.65 63 74.3 63 76 C60.03 76 57.06 76 54 76 C54 78.31 54 80.62 54 83 C55.98 83 57.96 83 60 83 C60 84.32 60 85.64 60 87 C58.02 87 56.04 87 54 87 C54 89.97 54 92.94 54 96 C56.64 96 59.28 96 62 96 C62 96.99 62 97.98 62 99 C57.71 99 53.42 99 49 99 C48.505 95.535 48.505 95.535 48 92 C47.319375 93.11375 46.63875 94.2275 45.9375 95.375 C43.09969087 99.41153884 40.77314141 100.15768093 36 101 C36 102.98 36 104.96 36 107 C35.01 107.495 35.01 107.495 34 108 C33.67 104.37 33.34 100.74 33 97 C32.01 97.495 32.01 97.495 31 98 C31 98.99 31 99.98 31 101 C30.01 100.67 29.02 100.34 28 100 C25.94106379 99.77674186 23.87766347 99.59294241 21.8125 99.4375 C20.18248047 99.31181641 20.18248047 99.31181641 18.51953125 99.18359375 C17.68808594 99.12300781 16.85664063 99.06242187 16 99 C15.67 95.37 15.34 91.74 15 88 C14.34 88 13.68 88 13 88 C13.0825 89.2375 13.165 90.475 13.25 91.75 C13.22877515 94.74801006 13.11390595 95.81490282 11.5 98.4375 C8.01854101 100.61341187 5.07278365 100.59939833 1 101 C0.67 101.66 0.34 102.32 0 103 C-0.33 100.69 -0.66 98.38 -1 96 C-1.66 96 -2.32 96 -3 96 C-3.33 96.99 -3.66 97.98 -4 99 C-5.98 99 -7.96 99 -10 99 C-11.98 92.07 -11.98 92.07 -14 85 C-14.33 89.62 -14.66 94.24 -15 99 C-16.32 99 -17.64 99 -19 99 C-19 90.09 -19 81.18 -19 72 C-17.02 72 -15.04 72 -13 72 C-12.01 75.96 -11.02 79.92 -10 84 C-9.67 80.04 -9.34 76.08 -9 72 C-2.25 72 -2.25 72 1 73 C1.02320482 64.36791366 1.04095654 55.73583811 1.05181217 47.10372734 C1.05702321 43.09518199 1.06408847 39.08665804 1.07543945 35.078125 C1.08633166 31.20723384 1.09229024 27.33636322 1.09487724 23.46545792 C1.09672009 21.99113771 1.10031868 20.51681859 1.10573006 19.04250717 C1.1130246 16.97216136 1.11398741 14.90189963 1.11352539 12.83154297 C1.11685631 11.06615677 1.11685631 11.06615677 1.12025452 9.2651062 C1.0033795 6.09175896 0.59683336 3.11555031 0 0 Z " fill="#19191C" transform="translate(198,142)"/>
<path d="M0 0 C1.98 0 3.96 0 6 0 C9.35018506 5.08805226 10.58088606 8.72165268 10.3125 14.875 C10.29485596 15.60025879 10.27721191 16.32551758 10.2590332 17.07275391 C10.19420872 19.38308854 10.09701643 21.69081696 10 24 C9.95515186 25.59373386 9.91087912 27.18748402 9.8671875 28.78125 C9.80996615 30.31260228 9.75015406 31.84386038 9.6875 33.375 C9.66534424 34.09413574 9.64318848 34.81327148 9.62036133 35.55419922 C9.4650171 38.45931091 9.31706307 40.54080521 7.640625 42.96875 C5.1449503 44.53745981 2.8908497 44.11799387 0 44 C-1.98 44.495 -1.98 44.495 -4 45 C-3.34 48.63 -2.68 52.26 -2 56 C-0.68644531 55.97679687 0.62710938 55.95359375 1.98046875 55.9296875 C3.71614013 55.91092349 5.45181768 55.89272396 7.1875 55.875 C8.05181641 55.85824219 8.91613281 55.84148438 9.80664062 55.82421875 C14.32208103 55.78961767 17.90081483 55.84432084 22 58 C21.01 58.495 21.01 58.495 20 59 C25.43328828 68.30135775 31.88084219 76.20170109 39.7421875 83.5703125 C42.8984985 86.96689631 42.8984985 86.96689631 43 90 C42.22265625 92.359375 42.22265625 92.359375 41.0625 94.75 C40.68222656 95.54921875 40.30195313 96.3484375 39.91015625 97.171875 C39.60980469 97.77515625 39.30945313 98.3784375 39 99 C35.58102689 98.42061466 32.74668559 97.56494335 29.63671875 96.0390625 C28.42918945 95.45511719 28.42918945 95.45511719 27.19726562 94.859375 C26.36904297 94.45203125 25.54082031 94.0446875 24.6875 93.625 C21.47233871 92.05167719 18.24887095 90.50260709 15 89 C14.33009033 88.68893311 13.66018066 88.37786621 12.9699707 88.05737305 C7.59611352 85.78696745 2.60557239 85.4944021 -3.1875 85.5625 C-4.58331299 85.5771228 -4.58331299 85.5771228 -6.00732422 85.59204102 C-21.14918485 85.98026011 -36.17546175 92.71282946 -48.875 100.83984375 C-49.57625 101.22269531 -50.2775 101.60554688 -51 102 C-54 101 -54 101 -54.94921875 99.29296875 C-55.19285156 98.59816406 -55.43648437 97.90335937 -55.6875 97.1875 C-55.93886719 96.50042969 -56.19023437 95.81335938 -56.44921875 95.10546875 C-57 93 -57 93 -57 89 C-55.55859375 87.60546875 -55.55859375 87.60546875 -53.4375 86.1875 C-48.64995886 82.67105484 -44.45881817 78.7363176 -40.25 74.5625 C-39.61247803 73.94205811 -38.97495605 73.32161621 -38.31811523 72.68237305 C-34.12865881 68.4907229 -30.91538066 64.1579159 -28 59 C-29.485 58.505 -29.485 58.505 -31 58 C-28.13026116 56.38364512 -25.95535797 55.7266582 -22.671875 55.5859375 C-21.87265625 55.54726563 -21.0734375 55.50859375 -20.25 55.46875 C-19.425 55.4378125 -18.6 55.406875 -17.75 55.375 C-16.48929688 55.31699219 -16.48929688 55.31699219 -15.203125 55.2578125 C-13.13576618 55.16384164 -11.06791373 55.08084436 -9 55 C-8.34 50.71 -7.68 46.42 -7 42 C-2.6601667 40.69805001 1.52037 39.7288075 6 39 C5.93104723 34.51540319 5.84304555 30.03170291 5.73754883 25.54785156 C5.7043412 24.0232166 5.67629622 22.49845994 5.65356445 20.97363281 C5.61994042 18.77877046 5.56762458 16.58501912 5.51171875 14.390625 C5.48553467 13.07094727 5.45935059 11.75126953 5.43237305 10.39160156 C4.98181678 6.85736796 4.30036526 5.60603495 2 3 C2 2.34 2 1.68 2 1 C1.34 0.67 0.68 0.34 0 0 Z " fill="#ECC592" transform="translate(225,0)"/>
<path d="M0 0 C3.50496269 1.94720149 6.49967216 3.82650697 9 7 C8.75 9.25 8.75 9.25 8 11 C7.505 10.505 7.505 10.505 7 10 C5.68 12.31 4.36 14.62 3 17 C2.34 17 1.68 17 1 17 C0.75378906 17.58136719 0.50757813 18.16273437 0.25390625 18.76171875 C-1.20201231 21.36060142 -2.81306352 22.86457529 -5.0625 24.8125 C-6.26326172 25.85277344 -6.26326172 25.85277344 -7.48828125 26.9140625 C-10.60309731 29.50086153 -13.79939744 31.96556472 -17.0234375 34.4140625 C-19.16707525 36.05464983 -19.16707525 36.05464983 -21.375 38.5625 C-26.40547403 43.23365446 -32.88790605 45.96552512 -39 49 C-39 49.66 -39 50.32 -39 51 C-40.67245641 51.95568937 -42.34522707 52.91083276 -44.01953125 53.86328125 C-45.7734923 54.86999262 -47.51291971 55.9019329 -49.25 56.9375 C-52.21226202 58.63781183 -55.25578983 60.04732277 -58.375 61.4375 C-62.68502569 63.35961816 -66.78919786 65.48016432 -70.88671875 67.81640625 C-73.53053636 69.29713959 -76.2355653 70.62617465 -78.95703125 71.95703125 C-81.98139456 73.50101787 -84.90077741 75.22294534 -87.82421875 76.94921875 C-90.20691728 78.09992953 -92.39573684 78.58495981 -95 79 C-93.72973218 75.18919655 -92.52873259 74.86713858 -89.08203125 72.93359375 C-88.07462891 72.36576172 -87.06722656 71.79792969 -86.02929688 71.21289062 C-84.96775391 70.62701172 -83.90621094 70.04113281 -82.8125 69.4375 C-81.77029297 68.84775391 -80.72808594 68.25800781 -79.65429688 67.65039062 C-71.76738911 63.24314846 -71.76738911 63.24314846 -67.72143555 61.96118164 C-64.80629581 61.28982276 -64.80629581 61.28982276 -63.875 58.6875 C-63.58625 57.800625 -63.2975 56.91375 -63 56 C-61.68334336 54.32012773 -60.34736973 52.65533995 -59 51 C-53.61465208 43.22116412 -49.92706 34.57521786 -46 26 C-45.34 26 -44.68 26 -44 26 C-43.896875 25.360625 -43.79375 24.72125 -43.6875 24.0625 C-42.61162031 19.26994504 -41.20213423 14.40426846 -39 10 C-38.01 10 -37.02 10 -36 10 C-36.49845574 14.85994345 -38.0719679 18.55524726 -40.2578125 22.8515625 C-41.21398252 24.97138131 -41.21398252 24.97138131 -40.44921875 27.0703125 C-40.30097656 27.70710938 -40.15273438 28.34390625 -40 29 C-41.07421875 30.640625 -41.07421875 30.640625 -42.6875 32.25 C-45.57023204 35.35243217 -47.29640376 38.34112133 -49.0703125 42.16015625 C-50.36835007 44.7289617 -52.17892199 46.78056117 -54 49 C-55.40944271 51.29758469 -56.70212486 53.63601315 -58 56 C-41.99450192 49.63732052 -13.33127777 33.66255554 -5.375 17.75 C-4 15 -4 15 -1 14 C-1 14.66 -1 15.32 -1 16 C-1.66 16 -2.32 16 -3 16 C-3 16.66 -3 17.32 -3 18 C-0.69 16.02 1.62 14.04 4 12 C3.34 12 2.68 12 2 12 C1.34 12.66 0.68 13.32 0 14 C-2.4606443 8.53190155 -1.71084699 5.51272919 0 0 Z " fill="#242425" transform="translate(308,73)"/>
<path d="M0 0 C5 0 5 0 6.546875 1.3125 C6.94390625 1.869375 7.3409375 2.42625 7.75 3 C8.4925 3.99 9.235 4.98 10 6 C10.33 6 10.66 6 11 6 C11.33 4.35 11.66 2.7 12 1 C16.29 1 20.58 1 25 1 C25 1.99 25 2.98 25 4 C22.36 4 19.72 4 17 4 C17 6.64 17 9.28 17 12 C19.31 12 21.62 12 24 12 C24 13.32 24 14.64 24 16 C21.69 16 19.38 16 17 16 C17 18.97 17 21.94 17 25 C19.64 25 22.28 25 25 25 C25 25.99 25 26.98 25 28 C20.71 28 16.42 28 12 28 C11.67 24.37 11.34 20.74 11 17 C10.34 17 9.68 17 9 17 C9.12375 18.85625 9.12375 18.85625 9.25 20.75 C9.22877515 23.74801006 9.11390595 24.81490282 7.5 27.4375 C4.01854101 29.61341187 1.07278365 29.59939833 -3 30 C-3.33 30.66 -3.66 31.32 -4 32 C-4.99110367 26.20402574 -5.18322787 20.56167215 -5.1875 14.6875 C-5.19974609 13.78193359 -5.21199219 12.87636719 -5.22460938 11.94335938 C-5.22654297 11.07904297 -5.22847656 10.21472656 -5.23046875 9.32421875 C-5.23457764 8.54135498 -5.23868652 7.75849121 -5.24291992 6.9519043 C-5 5 -5 5 -3 3 C-2.67 9.27 -2.34 15.54 -2 22 C-1.34 14.74 -0.68 7.48 0 0 Z " fill="#353535" transform="translate(202,213)"/>
<path d="M0 0 C4.10346546 0.54712873 5.80917623 2.58121045 8.8125 5.375 C9.1425 3.725 9.4725 2.075 9.8125 0.375 C14.4325 0.375 19.0525 0.375 23.8125 0.375 C23.8125 2.025 23.8125 3.675 23.8125 5.375 C20.8425 5.375 17.8725 5.375 14.8125 5.375 C14.8125 7.685 14.8125 9.995 14.8125 12.375 C16.7925 12.375 18.7725 12.375 20.8125 12.375 C20.8125 13.695 20.8125 15.015 20.8125 16.375 C18.8325 16.375 16.8525 16.375 14.8125 16.375 C14.8125 19.345 14.8125 22.315 14.8125 25.375 C17.4525 25.375 20.0925 25.375 22.8125 25.375 C22.8125 26.365 22.8125 27.355 22.8125 28.375 C18.5225 28.375 14.2325 28.375 9.8125 28.375 C9.4825 26.065 9.1525 23.755 8.8125 21.375 C8.53277344 21.8803125 8.25304687 22.385625 7.96484375 22.90625 C6.7014158 24.95373452 5.52704814 26.68167152 3.8125 28.375 C0 28.8125 0 28.8125 -3.1875 28.375 C-3.1875 26.065 -3.1875 23.755 -3.1875 21.375 C-2.8575 22.695 -2.5275 24.015 -2.1875 25.375 C-1.1975 25.045 -0.2075 24.715 0.8125 24.375 C1.14748301 22.04334966 1.14748301 22.04334966 0.8125 19.375 C0.15378906 18.80652344 -0.50492188 18.23804688 -1.18359375 17.65234375 C-3.97468027 14.48040722 -3.62489299 12.34342184 -3.5 8.1875 C-3.46326172 6.30998047 -3.46326172 6.30998047 -3.42578125 4.39453125 C-3.12121801 0.53506594 -3.12121801 0.53506594 0 0 Z " fill="#555556" transform="translate(237.1875,212.625)"/>
<path d="M0 0 C1.98 0 3.96 0 6 0 C9.35018506 5.08805226 10.58088606 8.72165268 10.3125 14.875 C10.29485596 15.60025879 10.27721191 16.32551758 10.2590332 17.07275391 C10.19420872 19.38308854 10.09701643 21.69081696 10 24 C9.95515186 25.59373386 9.91087912 27.18748402 9.8671875 28.78125 C9.80996615 30.31260228 9.75015406 31.84386038 9.6875 33.375 C9.66534424 34.09413574 9.64318848 34.81327148 9.62036133 35.55419922 C9.4650171 38.45931091 9.31706307 40.54080521 7.640625 42.96875 C5.1449503 44.53745981 2.8908497 44.11799387 0 44 C-1.98 44.495 -1.98 44.495 -4 45 C-3.01 50.445 -3.01 50.445 -2 56 C-0.68644531 55.97679687 0.62710938 55.95359375 1.98046875 55.9296875 C3.71614013 55.91092349 5.45181768 55.89272396 7.1875 55.875 C8.05181641 55.85824219 8.91613281 55.84148438 9.80664062 55.82421875 C14.32208103 55.78961767 17.90081483 55.84432084 22 58 C21.01 58.495 21.01 58.495 20 59 C21.12459671 60.77108948 22.24969203 62.54186236 23.375 64.3125 C24.00148437 65.29863281 24.62796875 66.28476563 25.2734375 67.30078125 C26.49651613 69.21287929 27.7409356 71.1114034 29 73 C26 73 26 73 24.625 71.875 C24.08875 71.25625 23.5525 70.6375 23 70 C22.57074219 69.52820313 22.14148438 69.05640625 21.69921875 68.5703125 C18 64.38133803 18 64.38133803 18 61 C17.34 61 16.68 61 16 61 C15.67 60.01 15.34 59.02 15 58 C11.72922836 57.83210783 8.45837336 57.66589762 5.1875 57.5 C4.25873047 57.45230469 3.32996094 57.40460937 2.37304688 57.35546875 C1.48037109 57.31035156 0.58769531 57.26523437 -0.33203125 57.21875 C-1.56530151 57.1559082 -1.56530151 57.1559082 -2.82348633 57.09179688 C-4.54772929 57.01907502 -6.27422415 57 -8 57 C-14.33333333 57 -20.66666667 57 -27 57 C-27 56.67 -27 56.34 -27 56 C-21.06 55.67 -15.12 55.34 -9 55 C-8.34 50.71 -7.68 46.42 -7 42 C-2.6601667 40.69805001 1.52037 39.7288075 6 39 C5.93104723 34.51540319 5.84304555 30.03170291 5.73754883 25.54785156 C5.7043412 24.0232166 5.67629622 22.49845994 5.65356445 20.97363281 C5.61994042 18.77877046 5.56762458 16.58501912 5.51171875 14.390625 C5.48553467 13.07094727 5.45935059 11.75126953 5.43237305 10.39160156 C4.98181678 6.85736796 4.30036526 5.60603495 2 3 C2 2.34 2 1.68 2 1 C1.34 0.67 0.68 0.34 0 0 Z " fill="#B8B4AD" transform="translate(225,0)"/>
<path d="M0 0 C1.98 0 3.96 0 6 0 C7.85961414 4.2505466 8.93204565 8.49933525 10 13 C10.33 9.04 10.66 5.08 11 1 C12.32 1 13.64 1 15 1 C15 9.91 15 18.82 15 28 C13.35 28 11.7 28 10 28 C8.38262517 23.37892907 7.14751403 18.7539867 6 14 C5.67 18.62 5.34 23.24 5 28 C3.35 28 1.7 28 0 28 C0 18.76 0 9.52 0 0 Z " fill="#DFDFDF" transform="translate(263,213)"/>
<path d="M0 0 C0.33 0 0.66 0 1 0 C0.979375 0.94875 0.95875 1.8975 0.9375 2.875 C0.77448174 5.90666283 0.77448174 5.90666283 2 8 C1.01 8.66 0.02 9.32 -1 10 C-1 11.32 -1 12.64 -1 14 C-1.1875 16.125 -1.1875 16.125 -2 18 C-3.64551962 18.71727778 -5.31422289 19.38325228 -7 20 C-7.66 20.99 -8.32 21.98 -9 23 C-10.175625 23.433125 -10.175625 23.433125 -11.375 23.875 C-14.83688514 25.35866506 -16.01430306 26.79514158 -18 30 C-18.13491509 32.88460419 -18.06499392 35.30886732 -17.7578125 38.14453125 C-17.62518824 39.76220613 -17.49673346 41.3802273 -17.37207031 42.99853516 C-17.30507935 43.82710022 -17.23808838 44.65566528 -17.16906738 45.50933838 C-16.90173807 49.44757209 -16.8712455 53.37812442 -16.8671875 57.32421875 C-16.86591858 58.09492706 -16.86464966 58.86563538 -16.86334229 59.65969849 C-16.86330161 61.22048074 -16.86539519 62.78126451 -16.86962891 64.34204102 C-16.87502288 66.69749304 -16.86961899 69.05275652 -16.86328125 71.40820312 C-16.85954552 80.98176527 -17.22434978 90.45632198 -18 100 C-18.33 100 -18.66 100 -19 100 C-19.03758423 98.14991333 -19.03758423 98.14991333 -19.07592773 96.26245117 C-19.17166759 91.58985816 -19.27144787 86.91735796 -19.37231445 82.24487305 C-19.41504574 80.24066369 -19.45674921 78.2364321 -19.49731445 76.23217773 C-19.706366 65.93703441 -19.95758058 55.64828858 -20.47265625 45.36328125 C-20.50975204 44.58848923 -20.54684784 43.8136972 -20.58506775 43.01542664 C-20.78826297 39.26060013 -21.13480474 35.66294636 -22 32 C-22.66 32 -23.32 32 -24 32 C-24.268125 32.598125 -24.53625 33.19625 -24.8125 33.8125 C-25.99917406 35.99847854 -27.09599113 37.41332594 -29 39 C-29.66 39 -30.32 39 -31 39 C-28.12921461 28.91581986 -20.89646479 23.37327511 -12.25 18.1875 C-5.31820702 13.98925192 -2.88670551 10.37210576 -0.56640625 2.4921875 C-0.37949219 1.66976562 -0.19257812 0.84734375 0 0 Z " fill="#2E2D30" transform="translate(114,104)"/>
<path d="M0 0 C1.98 0 3.96 0 6 0 C6.99 3.96 7.98 7.92 9 12 C9.33 8.04 9.66 4.08 10 0 C11.32 0 12.64 0 14 0 C14 8.91 14 17.82 14 27 C12.35 27 10.7 27 9 27 C7.68 22.38 6.36 17.76 5 13 C4.67 17.62 4.34 22.24 4 27 C2.68 27 1.36 27 0 27 C0 18.09 0 9.18 0 0 Z " fill="#F3F3F3" transform="translate(179,214)"/>
<path d="M0 0 C1.4540625 0.0309375 1.4540625 0.0309375 2.9375 0.0625 C3.77738453 3.97779148 4.60826813 7.89493972 5.4375 11.8125 C5.67597656 12.92367187 5.91445312 14.03484375 6.16015625 15.1796875 C6.38574219 16.24960938 6.61132812 17.31953125 6.84375 18.421875 C7.15795898 19.89865723 7.15795898 19.89865723 7.47851562 21.40527344 C7.9375 24.0625 7.9375 24.0625 7.9375 28.0625 C6.2875 28.0625 4.6375 28.0625 2.9375 28.0625 C2.9375 26.4125 2.9375 24.7625 2.9375 23.0625 C0.9575 23.0625 -1.0225 23.0625 -3.0625 23.0625 C-3.3925 24.7125 -3.7225 26.3625 -4.0625 28.0625 C-5.3825 28.0625 -6.7025 28.0625 -8.0625 28.0625 C-7.55272248 21.63930327 -6.66752458 15.34341324 -5.5625 9 C-5.43190186 8.2376001 -5.30130371 7.4752002 -5.16674805 6.68969727 C-3.98864033 0.08140082 -3.98864033 0.08140082 0 0 Z " fill="#E9E9E9" transform="translate(168.0625,212.9375)"/>
<path d="M0 0 C0.66 0 1.32 0 2 0 C3.5233665 3.04673301 3.1881733 6.2345893 3.22119141 9.57983398 C3.2326973 10.3622496 3.24420319 11.14466522 3.25605774 11.95079041 C3.29286493 14.54918452 3.3224578 17.14760273 3.3515625 19.74609375 C3.37468651 21.555347 3.39807692 23.36459687 3.42172241 25.17384338 C3.47024974 28.97613433 3.51515205 32.77844723 3.55761719 36.58081055 C3.612103 41.42923941 3.67601333 46.27748878 3.74279213 51.12576199 C3.79318419 54.86889655 3.83817642 58.61208189 3.88163376 62.35530281 C3.90305384 64.14090161 3.92617653 65.92648089 3.9510994 67.71203423 C4.07611805 76.8665606 4.16011784 85.89602039 3 95 C-0.02093215 91.97906785 0.53323166 88.43627928 0.375 84.375 C0.33632812 83.57320313 0.29765625 82.77140625 0.2578125 81.9453125 C0.16346069 79.96392444 0.08063785 77.98199355 0 76 C-0.02578125 77.24136719 -0.0515625 78.48273438 -0.078125 79.76171875 C-0.13442082 81.40368028 -0.19176783 83.045606 -0.25 84.6875 C-0.26417969 85.50412109 -0.27835938 86.32074219 -0.29296875 87.16210938 C-0.32519531 87.95810547 -0.35742188 88.75410156 -0.390625 89.57421875 C-0.41157227 90.30213623 -0.43251953 91.03005371 -0.45410156 91.7800293 C-1 94 -1 94 -5 99 C-5 90.09 -5 81.18 -5 72 C-3.02 72.33 -1.04 72.66 1 73 C1.02320482 64.36791366 1.04095654 55.73583811 1.05181217 47.10372734 C1.05702321 43.09518199 1.06408847 39.08665804 1.07543945 35.078125 C1.08633166 31.20723384 1.09229024 27.33636322 1.09487724 23.46545792 C1.09672009 21.99113771 1.10031868 20.51681859 1.10573006 19.04250717 C1.1130246 16.97216136 1.11398741 14.90189963 1.11352539 12.83154297 C1.115746 11.65461884 1.11796661 10.4776947 1.12025452 9.2651062 C1.0033795 6.09175896 0.59683336 3.11555031 0 0 Z " fill="#2A2A2B" transform="translate(198,142)"/>
<path d="M0 0 C4.29 0 8.58 0 13 0 C13 1.65 13 3.3 13 5 C10.36 5 7.72 5 5 5 C5 7.31 5 9.62 5 12 C6.98 12 8.96 12 11 12 C11 13.32 11 14.64 11 16 C9.02 16 7.04 16 5 16 C5 18.64 5 21.28 5 24 C7.64 24 10.28 24 13 24 C13 25.32 13 26.64 13 28 C8.71 28 4.42 28 0 28 C0 18.76 0 9.52 0 0 Z " fill="#EFEFEF" transform="translate(299,213)"/>
<path d="M0 0 C2 2 2 2 2.125 4.625 C2.08375 5.40875 2.0425 6.1925 2 7 C0.68 7 -0.64 7 -2 7 C-2 6.01 -2 5.02 -2 4 C-3.32 4 -4.64 4 -6 4 C-5.01103457 8.39540192 -3.39282784 10.78967493 -0.3125 13.9375 C2.99208826 17.50947195 2.99208826 17.50947195 3.0625 21.875 C2 25 2 25 0 27 C-2.09375 27.265625 -2.09375 27.265625 -4.5 27.25 C-5.2940625 27.25515625 -6.088125 27.2603125 -6.90625 27.265625 C-9 27 -9 27 -11 25 C-11.125 21.875 -11.125 21.875 -11 19 C-9.68 19 -8.36 19 -7 19 C-6.67 20.32 -6.34 21.64 -6 23 C-5.01 23 -4.02 23 -3 23 C-3.26603048 19.09821959 -3.46517492 17.47997123 -6.4375 14.8125 C-7.283125 14.214375 -8.12875 13.61625 -9 13 C-11.52185169 9.21722246 -11.72956472 6.44203329 -11 2 C-7.93817059 -2.04161482 -4.56939437 -1.10003939 0 0 Z " fill="#EAEAEB" transform="translate(141,214)"/>
<path d="M0 0 C3.375 0.875 3.375 0.875 5.375 2.875 C5.5 5.5 5.5 5.5 5.375 7.875 C4.055 7.875 2.735 7.875 1.375 7.875 C1.045 6.885 0.715 5.895 0.375 4.875 C-0.285 4.875 -0.945 4.875 -1.625 4.875 C-1.91997055 7.92478482 -2.02012418 9.37000711 -0.09375 11.83203125 C0.5559375 12.44433594 1.205625 13.05664062 1.875 13.6875 C4.56580835 16.5522596 5.88688363 18.26576892 5.9375 22.25 C5.375 25.875 5.375 25.875 3.375 27.875 C1.28125 28.140625 1.28125 28.140625 -1.125 28.125 C-1.9190625 28.13015625 -2.713125 28.1353125 -3.53125 28.140625 C-5.625 27.875 -5.625 27.875 -7.625 25.875 C-7.75 22.75 -7.75 22.75 -7.625 19.875 C-6.305 19.875 -4.985 19.875 -3.625 19.875 C-3.521875 20.514375 -3.41875 21.15375 -3.3125 21.8125 C-2.9721875 22.8334375 -2.9721875 22.8334375 -2.625 23.875 C-1.635 24.205 -0.645 24.535 0.375 24.875 C-0.55115588 20.3368362 -1.51926678 17.73526733 -4.75 14.375 C-7.20575185 11.69654516 -7.60770994 10.97701137 -8.25 7.1875 C-7.625 3.875 -7.625 3.875 -6.0625 1.375 C-3.625 -0.125 -3.625 -0.125 0 0 Z " fill="#E9E9E9" transform="translate(289.625,213.125)"/>
<path d="M0 0 C0.66 0.33 1.32 0.66 2 1 C2.08714316 4.91652632 2.14043985 8.83280311 2.1875 12.75 C2.22520508 14.41675781 2.22520508 14.41675781 2.26367188 16.1171875 C2.27817383 17.72207031 2.27817383 17.72207031 2.29296875 19.359375 C2.31653442 20.83615723 2.31653442 20.83615723 2.34057617 22.34277344 C1.94965182 25.39282409 1.03157056 26.74113723 -1 29 C-1 28.01 -1 27.02 -1 26 C-3.64 26 -6.28 26 -9 26 C-9 23.03 -9 20.06 -9 17 C-7.02 17 -5.04 17 -3 17 C-3 15.68 -3 14.36 -3 13 C-4.98 13 -6.96 13 -9 13 C-9 10.69 -9 8.38 -9 6 C-6.03 6 -3.06 6 0 6 C0 4.02 0 2.04 0 0 Z " fill="#212122" transform="translate(261,212)"/>
<path d="M0 0 C0.33 0.99 0.66 1.98 1 3 C2.32 3 3.64 3 5 3 C5.66 1.68 6.32 0.36 7 -1 C10.93846154 2.32307692 10.93846154 2.32307692 11.25 5.75 C11.1675 6.4925 11.085 7.235 11 8 C10.360625 8.103125 9.72125 8.20625 9.0625 8.3125 C8.381875 8.539375 7.70125 8.76625 7 9 C6.67 9.99 6.34 10.98 6 12 C7.65 12 9.3 12 11 12 C11 12.33 11 12.66 11 13 C9.35 13.33 7.7 13.66 6 14 C6 15.98 6 17.96 6 20 C5.34 20.33 4.68 20.66 4 21 C3.67 17.37 3.34 13.74 3 10 C2.01 10.495 2.01 10.495 1 11 C1 11.99 1 12.98 1 14 C0.01 13.67 -0.98 13.34 -2 13 C-1.67 11.68 -1.34 10.36 -1 9 C-3.64 9 -6.28 9 -9 9 C-9 6.03 -9 3.06 -9 0 C-2.25 -1.125 -2.25 -1.125 0 0 Z " fill="#2A2A2A" transform="translate(228,229)"/>
<path d="M0 0 C3.96 0 7.92 0 12 0 C12 0.99 12 1.98 12 3 C9.36 3 6.72 3 4 3 C4 5.64 4 8.28 4 11 C6.31 11 8.62 11 11 11 C11 12.32 11 13.64 11 15 C8.69 15 6.38 15 4 15 C4 17.97 4 20.94 4 24 C6.64 24 9.28 24 12 24 C12 24.99 12 25.98 12 27 C8.04 27 4.08 27 0 27 C0 18.09 0 9.18 0 0 Z " fill="#FBFBFB" transform="translate(215,214)"/>
<path d="M0 0 C0.33 0 0.66 0 1 0 C0.91308261 2.77236494 0.80622639 5.54147078 0.6875 8.3125 C0.66494141 9.09818359 0.64238281 9.88386719 0.61914062 10.69335938 C0.58369141 11.45068359 0.54824219 12.20800781 0.51171875 12.98828125 C0.48553467 13.68477783 0.45935059 14.38127441 0.43237305 15.09887695 C0 17 0 17 -1.53198242 18.50073242 C-3.46641405 20.12662541 -3.46641405 20.12662541 -3 24 C-3.969375 24.268125 -4.93875 24.53625 -5.9375 24.8125 C-6.948125 25.204375 -7.95875 25.59625 -9 26 C-9.33 26.99 -9.66 27.98 -10 29 C-7.525 29.99 -7.525 29.99 -5 31 C-5.33 31.66 -5.66 32.32 -6 33 C-6.99 32.67 -7.98 32.34 -9 32 C-11.26414875 35.39622313 -11.95451142 37.37453207 -12.25 41.4375 C-13 45 -13 45 -15.5625 47.4375 C-16.7690625 48.2109375 -16.7690625 48.2109375 -18 49 C-15.39149931 35.17738418 -10.13144997 10.13144997 0 0 Z " fill="#424245" transform="translate(82,143)"/>
<path d="M0 0 C3.96 0 7.92 0 12 0 C12 0.99 12 1.98 12 3 C9.36 3 6.72 3 4 3 C4 5.64 4 8.28 4 11 C5.98 11 7.96 11 10 11 C10 12.32 10 13.64 10 15 C8.02 15 6.04 15 4 15 C4 17.97 4 20.94 4 24 C6.64 24 9.28 24 12 24 C12 24.99 12 25.98 12 27 C8.04 27 4.08 27 0 27 C0 18.09 0 9.18 0 0 Z " fill="#FBFBFC" transform="translate(248,214)"/>
<path d="M0 0 C0 0.33 0 0.66 0 1 C-1.66611905 1.042721 -3.33382885 1.04063832 -5 1 C-5.495 0.505 -5.495 0.505 -6 0 C-8.86267567 -0.07325168 -11.700719 -0.09238205 -14.5625 -0.0625 C-15.36880859 -0.05798828 -16.17511719 -0.05347656 -17.00585938 -0.04882812 C-19.00393756 -0.03700518 -21.00197783 -0.01906914 -23 0 C-22.979375 0.92039062 -22.95875 1.84078125 -22.9375 2.7890625 C-23.00458876 6.23574753 -23.77939273 8.79590591 -25 12 C-25.99 12 -26.98 12 -28 12 C-28.28875 11.030625 -28.5775 10.06125 -28.875 9.0625 C-29.64214682 5.89335797 -29.64214682 5.89335797 -32 5 C-33.81656815 4.06608997 -33.81656815 4.06608997 -36 4 C-37.67083819 5.32810215 -39.33729713 6.66172696 -41 8 C-42.66611905 8.042721 -44.33382885 8.04063832 -46 8 C-47.010625 8.515625 -48.02125 9.03125 -49.0625 9.5625 C-52.27558967 11.13486303 -52.79377554 11.04116106 -56 10 C-17.40986819 -9.14200192 -17.40986819 -9.14200192 0 0 Z " fill="#261D16" transform="translate(237,87)"/>
<path d="M0 0 C1.12588014 0.95729916 2.2506715 1.91587895 3.375 2.875 C4.00148438 3.40867187 4.62796875 3.94234375 5.2734375 4.4921875 C6.55836651 5.61432007 7.79371975 6.79371975 9 8 C8.62793814 12.34072171 6.77048085 16.07415115 5 20 C0.76677156 19.37954537 -2.52290295 17.89476441 -6.3125 15.9375 C-7.38113281 15.38964844 -8.44976562 14.84179688 -9.55078125 14.27734375 C-10.35902344 13.85582031 -11.16726562 13.43429688 -12 13 C-9.96259735 12.48425581 -7.93380732 11.98637209 -5.875 11.5625 C-3.77917672 11.09524327 -3.77917672 11.09524327 -2 9 C-2.33 8.01 -2.66 7.02 -3 6 C-2.5625 3.8125 -2.5625 3.8125 -2 2 C-1.34 2 -0.68 2 0 2 C0 1.34 0 0.68 0 0 Z " fill="#DDB37F" transform="translate(259,79)"/>
<path d="M0 0 C0 8.91 0 17.82 0 27 C-3 28 -3 28 -6 28 C-5.67 27.01 -5.34 26.02 -5 25 C-4.20984555 19.57705247 -4.20984555 19.57705247 -6.5625 14.875 C-7.82517035 13.53086705 -9.12667247 12.22188606 -10.46875 10.95703125 C-12.39512418 8.49500711 -12.29497055 7.04978482 -12 4 C-10.68 4 -9.36 4 -8 4 C-8 4.99 -8 5.98 -8 7 C-6.68 7 -5.36 7 -4 7 C-3.87625 6.030625 -3.7525 5.06125 -3.625 4.0625 C-3.41875 3.051875 -3.2125 2.04125 -3 1 C-1 0 -1 0 0 0 Z " fill="#282828" transform="translate(299,214)"/>
<path d="M0 0 C0.99 0.66 1.98 1.32 3 2 C2.505 2.350625 2.01 2.70125 1.5 3.0625 C-0.25283137 5.02732096 -0.25283137 5.02732096 -0.625 8.1875 C0.16250867 12.99130287 2.14376148 14.66259988 5.44140625 18.06640625 C7 20 7 20 7.4375 23.5 C7.2209375 24.7375 7.2209375 24.7375 7 26 C5.68 25.67 4.36 25.34 3 25 C3 23.68 3 22.36 3 21 C1.68 21 0.36 21 -1 21 C-1 21.99 -1 22.98 -1 24 C-1.99 24 -2.98 24 -4 24 C-4 25.65 -4 27.3 -4 29 C-4.33 29 -4.66 29 -5 29 C-5 20.09 -5 11.18 -5 2 C-3.35 1.34 -1.7 0.68 0 0 Z " fill="#222222" transform="translate(283,212)"/>
<path d="M0 0 C2.6875 0.3125 2.6875 0.3125 5 2.0625 C6.6875 4.3125 6.6875 4.3125 6.6875 8.3125 C5.0375 8.3125 3.3875 8.3125 1.6875 8.3125 C1.3575 7.3225 1.0275 6.3325 0.6875 5.3125 C0.0275 5.3125 -0.6325 5.3125 -1.3125 5.3125 C-1.90447613 7.51164497 -1.90447613 7.51164497 -1.3125 10.3125 C0.22604885 12.02195694 0.22604885 12.02195694 2.125 13.6875 C4.91379578 16.28396504 5.65359226 17.20135795 6.8125 21 C6.6875 24.3125 6.6875 24.3125 5.6875 26.75 C2.74721021 29.0471014 0.30136759 28.58524472 -3.3125 28.3125 C-3.3125 26.0025 -3.3125 23.6925 -3.3125 21.3125 C-2.9825 22.6325 -2.6525 23.9525 -2.3125 25.3125 C-1.3225 24.9825 -0.3325 24.6525 0.6875 24.3125 C1.02248301 21.98084966 1.02248301 21.98084966 0.6875 19.3125 C0.02878906 18.74402344 -0.62992188 18.17554688 -1.30859375 17.58984375 C-4.09968027 14.41790722 -3.74989299 12.28092184 -3.625 8.125 C-3.58826172 6.24748047 -3.58826172 6.24748047 -3.55078125 4.33203125 C-3.24351498 0.43831284 -3.24351498 0.43831284 0 0 Z " fill="#EAEAEA" transform="translate(237.3125,212.6875)"/>
<path d="M0 0 C0.99 0 1.98 0 3 0 C2.125 3.875 2.125 3.875 1 5 C0.8466865 6.99274158 0.76152381 8.99075538 0.70288086 10.98852539 C0.66291489 12.26977798 0.62294891 13.55103058 0.58177185 14.87110901 C0.5426932 16.27995525 0.50371967 17.6888044 0.46484375 19.09765625 C0.42185351 20.53113553 0.37843706 21.96460209 0.33460999 23.39805603 C0.2202086 27.17746507 0.11162018 30.95701993 0.00421143 34.7366333 C-0.10633537 38.59080229 -0.22233742 42.44480656 -0.33789062 46.29882812 C-0.56395552 53.86573422 -0.78388422 61.43280252 -1 69 C-0.34 69.33 0.32 69.66 1 70 C0.67 74.62 0.34 79.24 0 84 C-3.91309271 80.08690729 -3.65319567 78.37546719 -4 73 C-3.505 72.505 -3.505 72.505 -3 72 C-2.88682786 70.04856493 -2.84315675 68.09307003 -2.82641602 66.13842773 C-2.80618126 64.25528114 -2.80618126 64.25528114 -2.78553772 62.33409119 C-2.78047777 61.65830458 -2.77541782 60.98251797 -2.77020454 60.28625298 C-2.75380845 58.17097596 -2.73056577 56.0558777 -2.70530701 53.94068909 C-2.634533 47.92466155 -2.5747096 41.90855641 -2.52319336 35.89233398 C-2.49121943 32.21467891 -2.44988557 28.53722152 -2.40299797 24.85972786 C-2.38707157 23.46245993 -2.37470727 22.06514638 -2.36609077 20.66781425 C-2.32112467 13.47264895 -2.18450777 6.88783657 0 0 Z " fill="#242426" transform="translate(234,144)"/>
<path d="M0 0 C4.62 0 9.24 0 14 0 C14 1.32 14 2.64 14 4 C12.35 4 10.7 4 9 4 C9 11.92 9 19.84 9 28 C7.68 28 6.36 28 5 28 C5 20.08 5 12.16 5 4 C3.35 4 1.7 4 0 4 C0 2.68 0 1.36 0 0 Z " fill="#EFEFF0" transform="translate(146,213)"/>
<path d="M0 0 C1.32 1.65 2.64 3.3 4 5 C3.34 5 2.68 5 2 5 C2.11976044 9.622522 2.24407629 14.24489291 2.37231445 18.8671875 C2.41518286 20.43421238 2.45688301 22.00126973 2.49731445 23.56835938 C2.71321578 31.90588209 3.02689662 40.18418065 3.79272461 48.49316406 C4.06305864 51.76264561 4.09815451 54.96978462 4.0625 58.25 C4.05347656 59.34828125 4.04445312 60.4465625 4.03515625 61.578125 C4.02355469 62.37734375 4.01195312 63.1765625 4 64 C3.34 64 2.68 64 2 64 C1.93941406 63.21753906 1.87882813 62.43507813 1.81640625 61.62890625 C1.73261719 60.61699219 1.64882812 59.60507812 1.5625 58.5625 C1.48128906 57.55316406 1.40007812 56.54382813 1.31640625 55.50390625 C1.26788532 53.06359221 1.26788532 53.06359221 0 52 C-0.09340434 50.37325222 -0.11745171 48.74245949 -0.11352539 47.11303711 C-0.11344986 46.07203354 -0.11337433 45.03102997 -0.11329651 43.95848083 C-0.10813522 42.8262056 -0.10297394 41.69393036 -0.09765625 40.52734375 C-0.0962413 39.37456436 -0.09482635 38.22178497 -0.09336853 37.03407288 C-0.08775005 33.33518936 -0.07519442 29.63636536 -0.0625 25.9375 C-0.05748738 23.43684983 -0.05292406 20.93619871 -0.04882812 18.43554688 C-0.03777462 12.29034412 -0.02101852 6.14517631 0 0 Z " fill="#262628" transform="translate(197,241)"/>
<path d="M0 0 C1.32 0 2.64 0 4 0 C4 8.91 4 17.82 4 27 C2.35 27 0.7 27 -1 27 C-2.42500059 23.00999834 -3.40075776 19.19469571 -4 15 C-3.01 14.67 -2.02 14.34 -1 14 C-0.67 9.38 -0.34 4.76 0 0 Z " fill="#F6F6F6" transform="translate(274,214)"/>
<path d="M0 0 C0.33 0 0.66 0 1 0 C1.33 6.27 1.66 12.54 2 19 C2.66 19 3.32 19 4 19 C4.33 19.66 4.66 20.32 5 21 C5.99 21 6.98 21 8 21 C8.33 19.02 8.66 17.04 9 15 C10.32 15 11.64 15 13 15 C13.48 21.24 13.48 21.24 11.5 24.375 C8.01971593 26.63718464 5.1152481 26.5952215 1 27 C0.67 27.66 0.34 28.32 0 29 C-1.00012445 23.19769071 -1.15066179 17.56832643 -1.125 11.6875 C-1.12886719 10.78193359 -1.13273438 9.87636719 -1.13671875 8.94335938 C-1.13542969 8.07904297 -1.13414062 7.21472656 -1.1328125 6.32421875 C-1.13168457 5.54135498 -1.13055664 4.75849121 -1.12939453 3.9519043 C-1 2 -1 2 0 0 Z " fill="#6E6E6E" transform="translate(198,216)"/>
<path d="M0 0 C1.98 0 3.96 0 6 0 C9.38281643 5.12426631 10.57924106 8.80007256 10.3125 15 C10.29558105 15.72896484 10.27866211 16.45792969 10.26123047 17.20898438 C10.19906569 19.47432751 10.10312294 21.73618271 10 24 C9.97244629 24.73605469 9.94489258 25.47210937 9.91650391 26.23046875 C9.56916636 35.17692032 9.56916636 35.17692032 9 39 C8.01 39.495 8.01 39.495 7 40 C6.97494385 39.35562988 6.9498877 38.71125977 6.92407227 38.04736328 C6.80664654 35.07311076 6.684597 32.09906429 6.5625 29.125 C6.52318359 28.11179687 6.48386719 27.09859375 6.44335938 26.0546875 C6.31753301 23.03485478 6.16743484 20.01780182 6 17 C5.94956543 16.05995117 5.89913086 15.11990234 5.84716797 14.15136719 C5.78287598 13.27383789 5.71858398 12.39630859 5.65234375 11.4921875 C5.59941162 10.71987793 5.54647949 9.94756836 5.49194336 9.15185547 C4.89321053 6.53288221 3.65073715 5.08627546 2 3 C2 2.34 2 1.68 2 1 C1.34 0.67 0.68 0.34 0 0 Z " fill="#BBBAB7" transform="translate(225,0)"/>
<path d="M0 0 C0.33 0 0.66 0 1 0 C0.979375 0.94875 0.95875 1.8975 0.9375 2.875 C0.77448174 5.90666283 0.77448174 5.90666283 2 8 C1.01 8.66 0.02 9.32 -1 10 C-1 11.32 -1 12.64 -1 14 C-1.1875 16.125 -1.1875 16.125 -2 18 C-3.64551962 18.71727778 -5.31422289 19.38325228 -7 20 C-7.66 20.99 -8.32 21.98 -9 23 C-12.21872231 24.56586491 -15.4353342 25.61463072 -19 26 C-19.66 25.34 -20.32 24.68 -21 24 C-19.27278316 22.72651788 -17.54313762 21.45632943 -15.8125 20.1875 C-14.84957031 19.47980469 -13.88664062 18.77210937 -12.89453125 18.04296875 C-10 16 -10 16 -7.3125 14.65625 C-4.10567381 12.35946908 -3.46509473 9.99927336 -2.1875 6.3125 C-1.76855469 5.13300781 -1.34960938 3.95351562 -0.91796875 2.73828125 C-0.46357422 1.38283203 -0.46357422 1.38283203 0 0 Z " fill="#3E3E40" transform="translate(114,104)"/>
<path d="M0 0 C0.66 0.33 1.32 0.66 2 1 C3.49678591 1.12791043 4.99840617 1.20199037 6.5 1.24609375 C7.386875 1.27896484 8.27375 1.31183594 9.1875 1.34570312 C11.0623767 1.40689702 12.93738481 1.46418943 14.8125 1.51757812 C15.699375 1.55173828 16.58625 1.58589844 17.5 1.62109375 C18.3146875 1.6461499 19.129375 1.67120605 19.96875 1.69702148 C22 2 22 2 24 4 C21.95920995 4.1968121 19.91729993 4.38202831 17.875 4.5625 C16.16957031 4.71912109 16.16957031 4.71912109 14.4296875 4.87890625 C11.07680564 4.99728818 8.29717017 4.55191317 5 4 C3.05674805 3.86166625 1.11085381 3.75686009 -0.8359375 3.68359375 C-1.89941406 3.64169922 -2.96289062 3.59980469 -4.05859375 3.55664062 C-5.15300781 3.51732422 -6.24742187 3.47800781 -7.375 3.4375 C-9.05142578 3.37272461 -9.05142578 3.37272461 -10.76171875 3.30664062 C-13.50770199 3.20102589 -16.25376881 3.0989203 -19 3 C-18.96132812 4.16402344 -18.96132812 4.16402344 -18.921875 5.3515625 C-19.02177074 8.7380281 -20.12814377 10.19221565 -22 13 C-22.73743112 14.26605558 -23.466387 15.53707951 -24.1875 16.8125 C-24.785625 17.864375 -25.38375 18.91625 -26 20 C-26.66 19.34 -27.32 18.68 -28 18 C-25.92090046 13.15580362 -23.86684109 8.44360369 -21 4 C-21.99 3.67 -22.98 3.34 -24 3 C-21.20554192 2.06851397 -19.2721537 1.8266176 -16.3671875 1.71875 C-15.47902344 1.68136719 -14.59085938 1.64398438 -13.67578125 1.60546875 C-11.80079229 1.53486247 -9.92579215 1.4645524 -8.05078125 1.39453125 C-7.16519531 1.35714844 -6.27960938 1.31976563 -5.3671875 1.28125 C-4.55362793 1.25095703 -3.74006836 1.22066406 -2.90185547 1.18945312 C-0.99070369 1.20188132 -0.99070369 1.20188132 0 0 Z " fill="#EDD5B7" transform="translate(218,55)"/>
<path d="M0 0 C0.33 0.66 0.66 1.32 1 2 C1.66 2 2.32 2 3 2 C4.7265625 3.75 4.7265625 3.75 6.625 6 C7.25664062 6.7425 7.88828125 7.485 8.5390625 8.25 C9.02117187 8.8275 9.50328125 9.405 10 10 C7.28922757 12.97126708 4.86848614 13.88243734 1 15 C0.32404685 13.58774074 -0.34040059 12.16997095 -1 10.75 C-1.37125 9.96109375 -1.7425 9.1721875 -2.125 8.359375 C-3 6 -3 6 -3 2 C-2.01 1.34 -1.02 0.68 0 0 Z " fill="#B8976C" transform="translate(171,87)"/>
<path d="M0 0 C0.495 1.485 0.495 1.485 1 3 C-1 5 -1 5 -4.43994141 5.22705078 C-5.91051979 5.22673369 -7.38112142 5.21540987 -8.8515625 5.1953125 C-9.62559418 5.1924826 -10.39962585 5.18965271 -11.19711304 5.18673706 C-13.67323157 5.17552754 -16.1489905 5.15042203 -18.625 5.125 C-20.30207812 5.11497118 -21.97916189 5.10584516 -23.65625 5.09765625 C-27.77097223 5.07558574 -31.88542511 5.04105102 -36 5 C-35.67 4.34 -35.34 3.68 -35 3 C-32.42724609 2.60522461 -32.42724609 2.60522461 -29.0234375 2.40234375 C-27.79496094 2.32306641 -26.56648437 2.24378906 -25.30078125 2.16210938 C-24.00527344 2.08798828 -22.70976562 2.01386719 -21.375 1.9375 C-18.84100838 1.78217427 -16.30714818 1.62468681 -13.7734375 1.46484375 C-12.07840088 1.36610962 -12.07840088 1.36610962 -10.34912109 1.26538086 C-6.86959642 0.98966696 -3.4494832 0.52801564 0 0 Z " fill="#1B1C1E" transform="translate(256,109)"/>
<path d="M0 0 C0.95648438 0.19078125 1.91296875 0.3815625 2.8984375 0.578125 C5.22581492 1.04360048 7.55107444 1.51763952 9.875 2 C9.875 2.33 9.875 2.66 9.875 3 C3.76186646 4.93046322 1.1256668 4.84869773 -5.125 3 C-8.84393648 2.43687224 -12.59084137 2.12724844 -16.3359375 1.7890625 C-18.27339295 1.59122374 -20.20119953 1.30309329 -22.125 1 C-22.455 0.34 -22.785 -0.32 -23.125 -1 C-16.50083061 -4.31208469 -6.8744431 -1.42895727 0 0 Z " fill="#323232" transform="translate(279.125,63)"/>
<path d="M0 0 C0.33 0 0.66 0 1 0 C1.28875 1.134375 1.5775 2.26875 1.875 3.4375 C2.24625 4.613125 2.6175 5.78875 3 7 C3.66 7.33 4.32 7.66 5 8 C4.37240135 10.92879371 3.41377341 13.36095629 2 16 C2 15.01 2 14.02 2 13 C-0.64 13 -3.28 13 -6 13 C-6 10.03 -6 7.06 -6 4 C-4.02 4 -2.04 4 0 4 C0 2.68 0 1.36 0 0 Z " fill="#333334" transform="translate(258,225)"/>
<path d="M0 0 C2.5 1.6875 2.5 1.6875 5 4 C5.3125 6.75 5.3125 6.75 5 9 C4.360625 9.103125 3.72125 9.20625 3.0625 9.3125 C2.0415625 9.6528125 2.0415625 9.6528125 1 10 C0.67 10.99 0.34 11.98 0 13 C1.65 13 3.3 13 5 13 C5 13.33 5 13.66 5 14 C3.35 14.33 1.7 14.66 0 15 C0 16.98 0 18.96 0 21 C-0.66 21.33 -1.32 21.66 -2 22 C-2.06058594 21.21753906 -2.12117187 20.43507812 -2.18359375 19.62890625 C-2.26738281 18.61699219 -2.35117188 17.60507813 -2.4375 16.5625 C-2.51871094 15.55316406 -2.59992188 14.54382813 -2.68359375 13.50390625 C-2.73211468 11.06359221 -2.73211468 11.06359221 -4 10 C-4.04063832 8.33382885 -4.042721 6.66611905 -4 5 C-3.01 4.67 -2.02 4.34 -1 4 C-0.26676204 1.98491642 -0.26676204 1.98491642 0 0 Z " fill="#323232" transform="translate(234,228)"/>
<path d="M0 0 C0.33 0 0.66 0 1 0 C1 8.91 1 17.82 1 27 C-1.70879335 28.35439668 -4.00933268 28.06501451 -7 28 C-7 27.67 -7 27.34 -7 27 C-5.35 27 -3.7 27 -2 27 C-2.33 25.80375 -2.66 24.6075 -3 23.375 C-3.89265823 19.84208503 -4.18296045 16.65920891 -4 13 C-2.68 12.34 -1.36 11.68 0 11 C0 7.37 0 3.74 0 0 Z " fill="#424242" transform="translate(178,214)"/>
<path d="M0 0 C-2 2 -2 2 -5.9140625 2.1953125 C-7.48449351 2.18200376 -9.05486221 2.15813602 -10.625 2.125 C-11.42679688 2.11597656 -12.22859375 2.10695312 -13.0546875 2.09765625 C-15.03658523 2.07406223 -17.01832981 2.03819065 -19 2 C-19 2.66 -19 3.32 -19 4 C-21.77723925 4.78688445 -24.22610077 5.11949924 -27.109375 5.09765625 C-27.86347656 5.09443359 -28.61757812 5.09121094 -29.39453125 5.08789062 C-30.17183594 5.07951172 -30.94914063 5.07113281 -31.75 5.0625 C-32.54277344 5.05798828 -33.33554688 5.05347656 -34.15234375 5.04882812 C-36.10159508 5.03708565 -38.05080738 5.01915146 -40 5 C-36.90505638 2.93670426 -35.50681218 2.60479139 -31.9140625 2.1484375 C-30.40199219 1.95471558 -30.40199219 1.95471558 -28.859375 1.75708008 C-27.79203125 1.63099365 -26.7246875 1.50490723 -25.625 1.375 C-24.00464844 1.17716919 -24.00464844 1.17716919 -22.3515625 0.9753418 C-14.85650657 0.10433432 -7.54768927 -0.39802268 0 0 Z " fill="#5E5E60" transform="translate(194,59)"/>
<path d="M0 0 C0.99 0 1.98 0 3 0 C2.50154426 4.85994345 0.9280321 8.55524726 -1.2578125 12.8515625 C-2.21656078 14.96836323 -2.21656078 14.96836323 -1.43359375 17.0390625 C-1 19 -1 19 -2.21484375 20.921875 C-2.78332031 21.52515625 -3.35179687 22.1284375 -3.9375 22.75 C-4.50339844 23.36359375 -5.06929688 23.9771875 -5.65234375 24.609375 C-6.09707031 25.06828125 -6.54179687 25.5271875 -7 26 C-7.33 25.34 -7.66 24.68 -8 24 C-7.29543044 22.32245342 -6.58362593 20.64742136 -5.828125 18.9921875 C-4.74179937 16.37885698 -4.11085632 13.74254291 -3.46875 10.9921875 C-1.66666667 3.33333333 -1.66666667 3.33333333 0 0 Z M-9 26 C-8.67 26.99 -8.34 27.98 -8 29 C-9.4375 31.1875 -9.4375 31.1875 -11 33 C-10.125 28.25 -10.125 28.25 -9 26 Z " fill="#1E1B1D" transform="translate(269,83)"/>
<path d="M0 0 C0.33 1.32 0.66 2.64 1 4 C1.99 3.67 2.98 3.34 4 3 C6.33299825 2.96045766 8.66708189 2.95598268 11 3 C10.67 3.99 10.34 4.98 10 6 C9.05125 6.0825 8.1025 6.165 7.125 6.25 C3.90618118 6.64523931 3.90618118 6.64523931 2.6875 9 C2.3471875 9.99 2.3471875 9.99 2 11 C1.67 11.33 1.34 11.66 1 12 C0.76346477 14.52596259 0.57826308 17.03107207 0.4375 19.5625 C0.39431641 20.27341797 0.35113281 20.98433594 0.30664062 21.71679688 C0.20028223 23.47761912 0.09961154 25.2387832 0 27 C-0.33 27 -0.66 27 -1 27 C-1.02721831 23.9999376 -1.04694378 21.00012744 -1.0625 18 C-1.07087891 17.16082031 -1.07925781 16.32164062 -1.08789062 15.45703125 C-1.10824033 10.20680661 -0.76368207 5.19544338 0 0 Z " fill="#535255" transform="translate(26,387)"/>
<path d="M0 0 C2.0622048 -0.054348 4.12482816 -0.09294961 6.1875 -0.125 C7.33605469 -0.14820313 8.48460937 -0.17140625 9.66796875 -0.1953125 C12.91740372 -0.00484152 15.08660521 0.60639873 18 2 C17.01 2.495 17.01 2.495 16 3 C17.12459671 4.77108948 18.24969203 6.54186236 19.375 8.3125 C20.00148437 9.29863281 20.62796875 10.28476563 21.2734375 11.30078125 C22.49651613 13.21287929 23.7409356 15.1114034 25 17 C22 17 22 17 20.625 15.875 C20.08875 15.25625 19.5525 14.6375 19 14 C18.57074219 13.52820313 18.14148438 13.05640625 17.69921875 12.5703125 C14 8.38133803 14 8.38133803 14 5 C13.34 5 12.68 5 12 5 C11.67 4.01 11.34 3.02 11 2 C7.37 1.67 3.74 1.34 0 1 C0 0.67 0 0.34 0 0 Z " fill="#C7AB8C" transform="translate(229,56)"/>
<path d="M0 0 C4.29 0 8.58 0 13 0 C13 1.65 13 3.3 13 5 C10.36 5 7.72 5 5 5 C5 7.31 5 9.62 5 12 C4.67 12 4.34 12 4 12 C4 8.7 4 5.4 4 2 C3.01 1.67 2.02 1.34 1 1 C1 5.62 1 10.24 1 15 C0.67 15 0.34 15 0 15 C0 10.05 0 5.1 0 0 Z " fill="#CCCCCD" transform="translate(299,213)"/>
<path d="M0 0 C0.33 0 0.66 0 1 0 C1 11.88 1 23.76 1 36 C0.01 36.495 0.01 36.495 -1 37 C-2.44358641 24.47591252 -1.3984846 12.49050441 0 0 Z " fill="#464648" transform="translate(233,263)"/>
<path d="M0 0 C2.31 0 4.62 0 7 0 C7 3.63 7 7.26 7 11 C5.35 11.66 3.7 12.32 2 13 C1.34 8.71 0.68 4.42 0 0 Z " fill="#252527" transform="translate(171,214)"/>
<path d="M0 0 C1.98 0 3.96 0 6 0 C6 1.65 6 3.3 6 5 C5.38125 5.28875 4.7625 5.5775 4.125 5.875 C1.86674235 6.93720042 1.86674235 6.93720042 0 9 C-2.5 9.3125 -2.5 9.3125 -5 9 C-7 6 -7 6 -7 3 C-6.34 3 -5.68 3 -5 3 C-5 3.66 -5 4.32 -5 5 C-3.68 5 -2.36 5 -1 5 C-0.67 3.35 -0.34 1.7 0 0 Z " fill="#323233" transform="translate(165,236)"/>
<path d="M0 0 C0.33 0 0.66 0 1 0 C0.25 6.75 0.25 6.75 -2 9 C-4.09375 9.265625 -4.09375 9.265625 -6.5 9.25 C-7.2940625 9.25515625 -8.088125 9.2603125 -8.90625 9.265625 C-11 9 -11 9 -13 7 C-13.125 3.875 -13.125 3.875 -13 1 C-11.68 1 -10.36 1 -9 1 C-8.67 2.32 -8.34 3.64 -8 5 C-5.03 5.495 -5.03 5.495 -2 6 C-1.34 4.02 -0.68 2.04 0 0 Z " fill="#EDEDED" transform="translate(143,232)"/>
<path d="M0 0 C0.66 0 1.32 0 2 0 C2.84327749 8.35748222 3.12190678 16.60197746 3 25 C2.34 25 1.68 25 1 25 C0.93941406 24.21753906 0.87882813 23.43507813 0.81640625 22.62890625 C0.73261719 21.61699219 0.64882812 20.60507812 0.5625 19.5625 C0.48128906 18.55316406 0.40007812 17.54382813 0.31640625 16.50390625 C0.26788532 14.06359221 0.26788532 14.06359221 -1 13 C-1.09886353 11.37747508 -1.12971167 9.75052727 -1.125 8.125 C-1.12757813 7.24070312 -1.13015625 6.35640625 -1.1328125 5.4453125 C-1 3 -1 3 0 0 Z " fill="#4B4A4B" transform="translate(198,280)"/>
<path d="M0 0 C1.32 0 2.64 0 4 0 C4.35915493 6.34507042 4.35915493 6.34507042 2.9375 8.9375 C-0.01168691 10.55479605 -2.70867559 10.18630138 -6 10 C-6 8.02 -6 6.04 -6 4 C-5.34 4.66 -4.68 5.32 -4 6 C-3.01 6 -2.02 6 -1 6 C-0.67 4.02 -0.34 2.04 0 0 Z " fill="#EDEDEE" transform="translate(207,231)"/>
<path d="M0 0 C0.33 0 0.66 0 1 0 C0.979375 0.94875 0.95875 1.8975 0.9375 2.875 C0.77448174 5.90666283 0.77448174 5.90666283 2 8 C1.01 8.66 0.02 9.32 -1 10 C-1 11.32 -1 12.64 -1 14 C-1.2981424 15.34164079 -1.62243192 16.67851173 -2 18 C-4.91482778 18.80967438 -6.46113217 19.21845993 -9.3125 18.0625 C-10.1478125 17.5365625 -10.1478125 17.5365625 -11 17 C-10.113125 16.608125 -9.22625 16.21625 -8.3125 15.8125 C-3.08013925 12.4444008 -1.83200616 5.60950559 0 0 Z " fill="#49494D" transform="translate(114,104)"/>
<path d="M0 0 C2.03125 3.671875 2.03125 3.671875 1.75 6.625 C1 9 1 9 -1 11 C-1.40047444 13.32275177 -1.7397104 15.65739357 -2 18 C-2.99 17.67 -3.98 17.34 -5 17 C-8.11785113 17.64644661 -8.11785113 17.64644661 -9 20 C-8.64525647 16.89599412 -8.20517446 15.24762434 -6.1875 12.8125 C-3.15353555 8.91168857 -1.68383839 4.61264239 0 0 Z " fill="#555557" transform="translate(129,74)"/>
<path d="M0 0 C1.65 0 3.3 0 5 0 C3.68 0.33 2.36 0.66 1 1 C1.33 8.92 1.66 16.84 2 25 C1.34 25 0.68 25 0 25 C0 25.66 0 26.32 0 27 C-1.98 27.33 -3.96 27.66 -6 28 C-6 24.23312136 -5.76462683 23.08809695 -4 20 C-4 21.32 -4 22.64 -4 24 C-2.68 24 -1.36 24 0 24 C0 16.08 0 8.16 0 0 Z " fill="#3C3C3F" transform="translate(155,217)"/>
<path d="M0 0 C2.6875 0.3125 2.6875 0.3125 5 2.0625 C6.6875 4.3125 6.6875 4.3125 6.6875 8.3125 C5.0375 8.3125 3.3875 8.3125 1.6875 8.3125 C1.3575 7.3225 1.0275 6.3325 0.6875 5.3125 C0.0275 5.3125 -0.6325 5.3125 -1.3125 5.3125 C-1.9725 6.6325 -2.6325 7.9525 -3.3125 9.3125 C-3.41015625 3.16015625 -3.41015625 3.16015625 -3.3125 1.3125 C-2.3125 0.3125 -2.3125 0.3125 0 0 Z " fill="#DADADA" transform="translate(237.3125,212.6875)"/>
<path d="M0 0 C3.50496269 1.94720149 6.49967216 3.82650697 9 7 C8.75 9.25 8.75 9.25 8 11 C7.34 10.67 6.68 10.34 6 10 C6 9.34 6 8.68 6 8 C5.236875 8.165 4.47375 8.33 3.6875 8.5 C1 9 1 9 -2 9 C-1.34 6.03 -0.68 3.06 0 0 Z " fill="#282828" transform="translate(308,73)"/>
<path d="M0 0 C3.22939919 -0.35882213 4.61209763 -0.27258004 7.3125 1.625 C9.42956587 4.60457419 9.32523926 6.42236811 9 10 C7.68 10 6.36 10 5 10 C5 8.35 5 6.7 5 5 C3.35 5 1.7 5 0 5 C0 3.35 0 1.7 0 0 Z " fill="#DCDCDD" transform="translate(202,213)"/>
<path d="M0 0 C0.33 0 0.66 0 1 0 C1 5.61 1 11.22 1 17 C0.67 17 0.34 17 0 17 C-0.33 19.31 -0.66 21.62 -1 24 C-1.33 24 -1.66 24 -2 24 C-2.05787784 20.37506666 -2.0935542 16.75025143 -2.125 13.125 C-2.14175781 12.09246094 -2.15851563 11.05992187 -2.17578125 9.99609375 C-2.18222656 9.00996094 -2.18867188 8.02382813 -2.1953125 7.0078125 C-2.20578613 6.09660645 -2.21625977 5.18540039 -2.22705078 4.24658203 C-2 2 -2 2 0 0 Z " fill="#201F23" transform="translate(234,248)"/>
<path d="M0 0 C1.98 0 3.96 0 6 0 C4.41332422 3.90285767 1.86649519 6.33520982 -1.125 9.25 C-2.03507813 10.14203125 -2.94515625 11.0340625 -3.8828125 11.953125 C-4.58148438 12.62859375 -5.28015625 13.3040625 -6 14 C-7.0625 12.125 -7.0625 12.125 -8 10 C-7.67 9.34 -7.34 8.68 -7 8 C-6.195625 7.7525 -5.39125 7.505 -4.5625 7.25 C-1.67628816 6.19044598 -1.67628816 6.19044598 -0.6875 2.875 C-0.460625 1.92625 -0.23375 0.9775 0 0 Z " fill="#140D08" transform="translate(185,67)"/>
<path d="M0 0 C2.31 0 4.62 0 7 0 C7.33 0.66 7.66 1.32 8 2 C7.01 2.495 7.01 2.495 6 3 C6.33 3.66 6.66 4.32 7 5 C7.039992 6.99960012 7.04346799 9.00047242 7 11 C6.67 9.68 6.34 8.36 6 7 C4.02 7 2.04 7 0 7 C0 4.69 0 2.38 0 0 Z " fill="#222224" transform="translate(304,218)"/>
<path d="M0 0 C0.66 0.33 1.32 0.66 2 1 C2 2.32 2 3.64 2 5 C3.65 5 5.3 5 7 5 C7.33 5.66 7.66 6.32 8 7 C5.10765685 7.82638376 3.11257569 8 0 8 C-0.99 8.33 -1.98 8.66 -3 9 C-3.66 8.67 -4.32 8.34 -5 8 C-5 7.34 -5 6.68 -5 6 C-7.97 6 -10.94 6 -14 6 C-14 5.67 -14 5.34 -14 5 C-9.38 5 -4.76 5 0 5 C0 3.35 0 1.7 0 0 Z " fill="#1B1B1D" transform="translate(261,236)"/>
<path d="M0 0 C1.33332095 2.6666419 0.67102033 4.16680303 0 7 C-0.66 7 -1.32 7 -2 7 C-2.268125 7.598125 -2.53625 8.19625 -2.8125 8.8125 C-3.99917406 10.99847854 -5.09599113 12.41332594 -7 14 C-7.66 14 -8.32 14 -9 14 C-7.64002446 7.95566426 -4.14348206 4.36505864 0 0 Z " fill="#575759" transform="translate(92,129)"/>
<path d="M0 0 C-2.1875 2.5 -2.1875 2.5 -5 5 C-7.4375 5.125 -7.4375 5.125 -10 5 C-11.010625 5.515625 -12.02125 6.03125 -13.0625 6.5625 C-16.27558967 8.13486303 -16.79377554 8.04116106 -20 7 C-17.79875692 5.81796262 -15.59058171 4.65459892 -13.375 3.5 C-12.75753906 3.16613281 -12.14007813 2.83226563 -11.50390625 2.48828125 C-7.48487206 0.41530572 -4.51058755 -0.38860447 0 0 Z " fill="#2A190D" transform="translate(201,90)"/>
<path d="M0 0 C2 3 2 3 1.81640625 4.828125 C0.76474314 7.62585077 -0.60336176 10.14217847 -2.0625 12.75 C-2.61035156 13.73484375 -3.15820312 14.7196875 -3.72265625 15.734375 C-4.14417969 16.48203125 -4.56570312 17.2296875 -5 18 C-5.66 17.34 -6.32 16.68 -7 16 C-4.92090046 11.15580362 -2.86684109 6.44360369 0 2 C-0.99 1.67 -1.98 1.34 -3 1 C-2.01 0.67 -1.02 0.34 0 0 Z " fill="#ECD0AC" transform="translate(197,57)"/>
<path d="M0 0 C-1.32 0.33 -2.64 0.66 -4 1 C-4 5.95 -4 10.9 -4 16 C-5.74325447 13.3851183 -6.41587957 11.9946567 -7.125 9.0625 C-7.29257812 8.39347656 -7.46015625 7.72445312 -7.6328125 7.03515625 C-8 5 -8 5 -8 1 C-5.29120665 -0.35439668 -2.99066732 -0.06501451 0 0 Z " fill="#3E3E3E" transform="translate(278,213)"/>
<path d="M0 0 C0.33 0 0.66 0 1 0 C0.67 5.61 0.34 11.22 0 17 C-0.66 17.33 -1.32 17.66 -2 18 C-3.79195953 12.62412142 -3.69626843 7.62462633 -1.5 2.5 C-1.005 1.675 -0.51 0.85 0 0 Z " fill="#424145" transform="translate(82,143)"/>
<path d="M0 0 C2.27029534 0.39143023 3.83408198 0.88741278 5.75 2.1875 C7.54267046 4.78687216 7.20510719 6.92339216 7 10 C5.68 9.67 4.36 9.34 3 9 C3 7.68 3 6.36 3 5 C1.68 4.67 0.36 4.34 -1 4 C-0.67 2.68 -0.34 1.36 0 0 Z " fill="#2A2A2A" transform="translate(283,228)"/>
<path d="M0 0 C1.32 0 2.64 0 4 0 C4 0.99 4 1.98 4 3 C5.32 3.33 6.64 3.66 8 4 C7.34 5.65 6.68 7.3 6 9 C6.66 9.33 7.32 9.66 8 10 C5 10 5 10 2.3125 7.8125 C0 5 0 5 -0.3125 2.1875 C-0.209375 1.465625 -0.10625 0.74375 0 0 Z " fill="#272729" transform="translate(135,218)"/>
<path d="M0 0 C0.33 0.66 0.66 1.32 1 2 C2.65 2 4.3 2 6 2 C4.68 2.33 3.36 2.66 2 3 C2 7.62 2 12.24 2 17 C-0.58003093 14.41996907 -0.64428842 12.63187182 -1.25 9.0625 C-1.44078125 8.00160156 -1.6315625 6.94070312 -1.828125 5.84765625 C-2 3 -2 3 0 0 Z " fill="#3A3A3B" transform="translate(187,211)"/>
<path d="M0 0 C0.99 0.33 1.98 0.66 3 1 C2.67 5.62 2.34 10.24 2 15 C-1.40252038 11.59747962 -1.58478859 10.44033259 -2.015625 5.94140625 C-1.9961673 3.52378714 -1.3934648 1.96724443 0 0 Z " fill="#3D3D3D" transform="translate(232,213)"/>
<path d="M0 0 C2.4375 0.375 2.4375 0.375 5 1 C6.35439668 3.70879335 6.06501451 6.00933268 6 9 C4.68 9 3.36 9 2 9 C0.50178941 5.62902617 0 3.79557881 0 0 Z " fill="#F4F4F4" transform="translate(289,228)"/>
<path d="M0 0 C1.32 0.99 2.64 1.98 4 3 C3.33501617 7.38889325 1.81242323 10.9811485 0 15 C-1.65 14.67 -3.3 14.34 -5 14 C-4.67 13.34 -4.34 12.68 -4 12 C-3.01 12 -2.02 12 -1 12 C-1 10.68 -1 9.36 -1 8 C-0.34 8 0.32 8 1 8 C0.67 5.36 0.34 2.72 0 0 Z " fill="#CAAA7F" transform="translate(264,84)"/>
<path d="M0 0 C3.69230769 0.69230769 3.69230769 0.69230769 5 2 C5.29386153 5.72224599 5.14809171 6.77786243 3 10 C2.34 10 1.68 10 1 10 C0.63883954 8.5225254 0.28624952 7.04295325 -0.0625 5.5625 C-0.25972656 4.73878906 -0.45695313 3.91507813 -0.66015625 3.06640625 C-0.82837891 2.04353516 -0.82837891 2.04353516 -1 1 C-0.67 0.67 -0.34 0.34 0 0 Z " fill="#F7F7F7" transform="translate(138,228)"/>
<path d="M0 0 C1.2065625 0.0309375 1.2065625 0.0309375 2.4375 0.0625 C1.509375 1.0525 1.509375 1.0525 0.5625 2.0625 C-2.06124482 5.76661034 -2.66336342 8.64174515 -3.5625 13.0625 C-4.5525 13.0625 -5.5425 13.0625 -6.5625 13.0625 C-6.08761102 11.08230257 -5.60747141 9.10336365 -5.125 7.125 C-4.85816406 6.02285156 -4.59132812 4.92070312 -4.31640625 3.78515625 C-3.29051578 0.08025648 -3.29051578 0.08025648 0 0 Z " fill="#BDBDBD" transform="translate(210.5625,-0.0625)"/>
<path d="M0 0 C1.14926266 0.95421808 2.29430541 1.91352045 3.4375 2.875 C4.07558594 3.40867188 4.71367187 3.94234375 5.37109375 4.4921875 C7 6 7 6 8 8 C7.01 8 6.02 8 5 8 C4.67 8.66 4.34 9.32 4 10 C2 8.375 2 8.375 0 6 C-0.25 2.75 -0.25 2.75 0 0 Z " fill="#F2F2F2" transform="translate(234,222)"/>
<path d="M0 0 C0.99 0 1.98 0 3 0 C2.43174347 5.54050113 0.37113483 10.03715966 -2 15 C-3.49693208 12.63300992 -4.0958646 11.51538217 -3.57421875 8.7109375 C-3.28160156 7.94007812 -2.98898437 7.16921875 -2.6875 6.375 C-2.40261719 5.59898438 -2.11773437 4.82296875 -1.82421875 4.0234375 C-1 2 -1 2 0 0 Z " fill="#3C2B21" transform="translate(269,83)"/>
<path d="M0 0 C2 3.75 2 3.75 2 6 C2.66 6 3.32 6 4 6 C2.88243734 9.86848614 1.97126708 12.28922757 -1 15 C-1.10251672 9.87416389 -1.03590199 5.05002222 0 0 Z " fill="#474549" transform="translate(46,257)"/>
<path d="M0 0 C0.66 0.33 1.32 0.66 2 1 C-1.49359465 4.59634744 -5.11098131 7.83451967 -9 11 C-8.71872579 9.51882199 -8.42466268 8.04006751 -8.125 6.5625 C-7.96257812 5.73878906 -7.80015625 4.91507813 -7.6328125 4.06640625 C-7.42398437 3.38449219 -7.21515625 2.70257813 -7 2 C-6.34 1.67 -5.68 1.34 -5 1 C-4.67 1.66 -4.34 2.32 -4 3 C-2.68 2.01 -1.36 1.02 0 0 Z " fill="#201F22" transform="translate(356,176)"/>
<path d="M0 0 C0.99 0 1.98 0 3 0 C3 1.32 3 2.64 3 4 C4.32 4.33 5.64 4.66 7 5 C6.34 5 5.68 5 5 5 C4.67 6.98 4.34 8.96 4 11 C1.9656541 9.58480285 1.09589607 8.45017877 0.578125 6.01953125 C0.33726048 4.01823046 0.16467259 2.0090056 0 0 Z " fill="#292422" transform="translate(163,84)"/>
<path d="M0 0 C0.33 0.99 0.66 1.98 1 3 C-2.75 4.125 -2.75 4.125 -5 3 C-6.3734635 2.84995027 -7.7528526 2.75161994 -9.1328125 2.68359375 C-9.93847656 2.64169922 -10.74414062 2.59980469 -11.57421875 2.55664062 C-12.41597656 2.51732422 -13.25773438 2.47800781 -14.125 2.4375 C-14.97449219 2.39431641 -15.82398438 2.35113281 -16.69921875 2.30664062 C-18.79928223 2.20045764 -20.89961948 2.09971503 -23 2 C-23 1.67 -23 1.34 -23 1 C-19.54170353 0.83256252 -16.08335707 0.66618079 -12.625 0.5 C-11.64015625 0.45230469 -10.6553125 0.40460938 -9.640625 0.35546875 C-8.69960937 0.31035156 -7.75859375 0.26523438 -6.7890625 0.21875 C-5.91975098 0.17685547 -5.05043945 0.13496094 -4.15478516 0.09179688 C-2.77077412 0.03283606 -1.38526637 0 0 0 Z " fill="#BA9B70" transform="translate(237,83)"/>
<path d="M0 0 C2.27857412 4.0429175 2.21605122 6.46007543 1 11 C-1.5625 13.4375 -1.5625 13.4375 -4 15 C-3.34728444 11.48294042 -2.48606976 8.10674923 -1.4375 4.6875 C-1.16808594 3.80449219 -0.89867188 2.92148438 -0.62109375 2.01171875 C-0.41613281 1.34785156 -0.21117188 0.68398437 0 0 Z " fill="#67676A" transform="translate(68,177)"/>
<path d="M0 0 C0.99 0.33 1.98 0.66 3 1 C3.33 5.95 3.66 10.9 4 16 C3.34 16.33 2.68 16.66 2 17 C1.93941406 16.21753906 1.87882813 15.43507812 1.81640625 14.62890625 C1.73261719 13.61699219 1.64882812 12.60507813 1.5625 11.5625 C1.48128906 10.55316406 1.40007812 9.54382813 1.31640625 8.50390625 C1.26788532 6.06359221 1.26788532 6.06359221 0 5 C-0.04063832 3.33382885 -0.042721 1.66611905 0 0 Z " fill="#3E3E3E" transform="translate(230,233)"/>
<path d="M0 0 C0.99 0 1.98 0 3 0 C3.68707555 2.49064888 4 4.37886292 4 7 C2.35 7.33 0.7 7.66 -1 8 C-1.125 2.25 -1.125 2.25 0 0 Z " fill="#100D0A" transform="translate(168,80)"/>
<path d="M0 0 C0.33 0 0.66 0 1 0 C1.22281874 1.91503674 1.42771076 3.83216506 1.625 5.75 C1.74101563 6.81734375 1.85703125 7.8846875 1.9765625 8.984375 C2.00029475 12.03792399 1.61420985 13.46162421 0 16 C0.66 16 1.32 16 2 16 C1.67 16.99 1.34 17.98 1 19 C0.01 19.33 -0.98 19.66 -2 20 C-1.34 13.4 -0.68 6.8 0 0 Z " fill="#6D6B6F" transform="translate(44,272)"/>
<path d="M0 0 C4.95696581 1.23924145 7.11658466 2.78577758 10 7 C5.28571429 7 5.28571429 7 3 6 C1.25 2.9375 1.25 2.9375 0 0 Z " fill="#E3BE8E" transform="translate(249,72)"/>
<path d="M0 0 C4.51617599 -0.07654536 8.59085217 -0.10228696 13 1 C13 1.33 13 1.66 13 2 C11.02 2 9.04 2 7 2 C7 2.66 7 3.32 7 4 C5.02 4 3.04 4 1 4 C0.67 2.68 0.34 1.36 0 0 Z " fill="#443E39" transform="translate(245,59)"/>
<path d="M0 0 C0 1.65 0 3.3 0 5 C-1.875 6.0625 -1.875 6.0625 -4 7 C-4.66 6.67 -5.32 6.34 -6 6 C-6.625 3.9375 -6.625 3.9375 -7 2 C-2.25 0 -2.25 0 0 0 Z " fill="#1D1D1F" transform="translate(210,240)"/>
<path d="M0 0 C1.5625 1.1875 1.5625 1.1875 3 3 C2.6875 5.6875 2.6875 5.6875 2 8 C0.68 7.67 -0.64 7.34 -2 7 C-1.125 1.125 -1.125 1.125 0 0 Z " fill="#383838" transform="translate(136,230)"/>
<path d="M0 0 C0.66 0 1.32 0 2 0 C2 0.66 2 1.32 2 2 C4.475 2.99 4.475 2.99 7 4 C6.67 4.66 6.34 5.32 6 6 C5.01 5.67 4.02 5.34 3 5 C2.01 6.485 2.01 6.485 1 8 C0.01 8.495 0.01 8.495 -1 9 C-0.67 6.03 -0.34 3.06 0 0 Z " fill="#36363B" transform="translate(70,170)"/>
<path d="M0 0 C5.63281599 -0.2396943 10.54538831 0.61470179 16 2 C15.67 2.66 15.34 3.32 15 4 C12.87422093 3.9131724 10.74930419 3.8050049 8.625 3.6875 C7.44164062 3.62949219 6.25828125 3.57148438 5.0390625 3.51171875 C3.53472656 3.25841797 3.53472656 3.25841797 2 3 C1.34 2.01 0.68 1.02 0 0 Z " fill="#3F3F40" transform="translate(29,437)"/>
<path d="M0 0 C0.33 0 0.66 0 1 0 C0.979375 0.94875 0.95875 1.8975 0.9375 2.875 C0.77448174 5.90666283 0.77448174 5.90666283 2 8 C1.01 8.66 0.02 9.32 -1 10 C-1 10.66 -1 11.32 -1 12 C-1.66 12 -2.32 12 -3 12 C-3 12.66 -3 13.32 -3 14 C-3.66 13.67 -4.32 13.34 -5 13 C-3.35 8.71 -1.7 4.42 0 0 Z " fill="#605E63" transform="translate(114,104)"/>
<path d="M0 0 C3.41021743 0.78697325 6.68885166 1.87119943 10 3 C8.35 4.32 6.7 5.64 5 7 C5 6.01 5 5.02 5 4 C4.01 4.33 3.02 4.66 2 5 C1.34 3.35 0.68 1.7 0 0 Z " fill="#3C3C3C" transform="translate(296,68)"/>
<path d="M0 0 C2 2 2 2 2 5 C1.0409375 5.804375 1.0409375 5.804375 0.0625 6.625 C-2.93831571 10.08048476 -2.80983094 13.55004388 -3 18 C-3.33 18 -3.66 18 -4 18 C-4.53449652 10.75460274 -3.71607548 6.27087737 0 0 Z " fill="#5C5C5F" transform="translate(32,419)"/>
<path d="M0 0 C0 2.64 0 5.28 0 8 C-0.99 8.495 -0.99 8.495 -2 9 C-2 8.34 -2 7.68 -2 7 C-2.99 6.67 -3.98 6.34 -5 6 C-4.67 4.35 -4.34 2.7 -4 1 C-1 0 -1 0 0 0 Z " fill="#1A1A1C" transform="translate(263,225)"/>
<path d="M0 0 C0.33 0 0.66 0 1 0 C1.33 4.29 1.66 8.58 2 13 C1.01 13 0.02 13 -1 13 C-1.07654536 8.48382401 -1.10228696 4.40914783 0 0 Z " fill="#454545" transform="translate(167,219)"/>
<path d="M0 0 C4.29 0.66 8.58 1.32 13 2 C13 2.33 13 2.66 13 3 C5.64296754 5.32972694 5.64296754 5.32972694 2.5625 3.75 C1 2 1 2 0 0 Z " fill="#555555" transform="translate(276,63)"/>
<path d="M0 0 C0 0.66 0 1.32 0 2 C-0.969375 2.12375 -1.93875 2.2475 -2.9375 2.375 C-3.948125 2.58125 -4.95875 2.7875 -6 3 C-6.33 3.66 -6.66 4.32 -7 5 C-7.33 3.35 -7.66 1.7 -8 0 C-5.13822943 -1.43088528 -3.06624227 -0.59991697 0 0 Z " fill="#212023" transform="translate(175,242)"/>
<path d="M0 0 C2.0625 0.4375 2.0625 0.4375 4 1 C4 3.31 4 5.62 4 8 C3.01 7.67 2.02 7.34 1 7 C-0.1875 3.9375 -0.1875 3.9375 -1 1 C-0.67 0.67 -0.34 0.34 0 0 Z " fill="#111111" transform="translate(227,225)"/>
<path d="M0 0 C2.31 0 4.62 0 7 0 C7 1.32 7 2.64 7 4 C4.69 4 2.38 4 0 4 C0 2.68 0 1.36 0 0 Z " fill="#EAEAEA" transform="translate(219,225)"/>
<path d="M0 0 C1.98 0 3.96 0 6 0 C6 1.33333333 6 2.66666667 6 4 C6.65257873 5.672233 7.31867549 7.33927151 8 9 C7.34 9.66 6.68 10.32 6 11 C3.125 4.375 3.125 4.375 2 1 C1.34 0.67 0.68 0.34 0 0 Z " fill="#C3C3C1" transform="translate(225,0)"/>
<path d="M0 0 C1.65 0 3.3 0 5 0 C4.34 4.29 3.68 8.58 3 13 C2.67 13 2.34 13 2 13 C1.93941406 12.39671875 1.87882812 11.7934375 1.81640625 11.171875 C1.69072266 9.97304688 1.69072266 9.97304688 1.5625 8.75 C1.48128906 7.96109375 1.40007813 7.1721875 1.31640625 6.359375 C1.02365007 4.17635361 0.57935581 2.1226818 0 0 Z " fill="#3F3F3F" transform="translate(42,449)"/>
<path d="M0 0 C0.33 0 0.66 0 1 0 C2.01991658 5.09958291 1.88742927 8.17656965 0 13 C-0.36106097 14.66088045 -0.70462173 16.32618981 -1 18 C-1.33 18 -1.66 18 -2 18 C-2.23268915 11.71739294 -1.40454548 6.11980533 0 0 Z " fill="#747475" transform="translate(32,345)"/>
<path d="M0 0 C0.66 0 1.32 0 2 0 C2.36923077 5.53846154 2.36923077 5.53846154 0.5 7.875 C-0.2425 8.431875 -0.2425 8.431875 -1 9 C-1.625 5.625 -1.625 5.625 -2 2 C-1.34 1.34 -0.68 0.68 0 0 Z " fill="#222222" transform="translate(245,226)"/>
<path d="M0 0 C-0.6875 1.9375 -0.6875 1.9375 -2 4 C-4.5 4.875 -4.5 4.875 -7 5 C-7.66 4.34 -8.32 3.68 -9 3 C-6.15236477 0.15236477 -3.96383452 0 0 0 Z " fill="#484849" transform="translate(102,125)"/>
<path d="M0 0 C4.95 0.99 4.95 0.99 10 2 C10.33 2.99 10.66 3.98 11 5 C6.55129785 5.39253254 3.85756507 4.15305957 0 2 C0 1.34 0 0.68 0 0 Z " fill="#120D06" transform="translate(239,90)"/>
<path d="M0 0 C1.32 0 2.64 0 4 0 C4 0.66 4 1.32 4 2 C5.32 1.67 6.64 1.34 8 1 C8.33 1.66 8.66 2.32 9 3 C4.545 3.495 4.545 3.495 0 4 C-0.33 3.01 -0.66 2.02 -1 1 C-0.67 0.67 -0.34 0.34 0 0 Z " fill="#0A0908" transform="translate(226,512)"/>
<path d="M0 0 C3.00617269 3.00617269 2.59585316 5.82381598 3 10 C2.01 10 1.02 10 0 10 C0 6.7 0 3.4 0 0 Z " fill="#323232" transform="translate(268,225)"/>
<path d="M0 0 C1.10102197 3.30306592 0.95067299 4.71585695 0 8 C-0.99 8.495 -0.99 8.495 -2 9 C-2.33 6.69 -2.66 4.38 -3 2 C-2.01 1.34 -1.02 0.68 0 0 Z " fill="#AF9372" transform="translate(171,87)"/>
<path d="M0 0 C2 3 2 3 1.9375 5.0625 C1 7 1 7 -1.5625 8.25 C-2.366875 8.4975 -3.17125 8.745 -4 9 C-2.68 6.69 -1.36 4.38 0 2 C-0.99 1.67 -1.98 1.34 -3 1 C-2.01 0.67 -1.02 0.34 0 0 Z " fill="#D6C3A8" transform="translate(197,57)"/>
<path d="M0 0 C0.33 0.99 0.66 1.98 1 3 C1.99 2.67 2.98 2.34 4 2 C4.33 3.98 4.66 5.96 5 8 C3.68 7.67 2.36 7.34 1 7 C0.67 4.69 0.34 2.38 0 0 Z " fill="#373636" transform="translate(47,474)"/>
<path d="M0 0 C0.99 0.495 0.99 0.495 2 1 C1.67 1.66 1.34 2.32 1 3 C2.98 3.495 2.98 3.495 5 4 C5 4.99 5 5.98 5 7 C3.35 7 1.7 7 0 7 C0 4.69 0 2.38 0 0 Z " fill="#141416" transform="translate(29,430)"/>
<path d="M0 0 C1.98 0 3.96 0 6 0 C6.33 0.66 6.66 1.32 7 2 C4 4 4 4 1 4 C0.67 4.66 0.34 5.32 0 6 C0 4.02 0 2.04 0 0 Z " fill="#222224" transform="translate(304,229)"/>
<path d="M0 0 C2.31 1.65 4.62 3.3 7 5 C5.02 5.99 5.02 5.99 3 7 C2.67 6.01 2.34 5.02 2 4 C1.01 4 0.02 4 -1 4 C-0.67 2.68 -0.34 1.36 0 0 Z " fill="#323232" transform="translate(333,120)"/>
<path d="M0 0 C1.32 0.66 2.64 1.32 4 2 C3.01 3.98 2.02 5.96 1 8 C-1 5 -1 5 -0.625 2.3125 C-0.41875 1.549375 -0.2125 0.78625 0 0 Z " fill="#0E0E10" transform="translate(258,100)"/>
<path d="M0 0 C0.66 0.33 1.32 0.66 2 1 C2.6328125 3.06640625 2.6328125 3.06640625 3.125 5.5625 C3.29257813 6.38878906 3.46015625 7.21507813 3.6328125 8.06640625 C3.75398437 8.70449219 3.87515625 9.34257813 4 10 C3.01 9.67 2.02 9.34 1 9 C-1.26415094 3.79245283 -1.26415094 3.79245283 0 0 Z " fill="#25190B" transform="translate(167,92)"/>
<path d="M0 0 C-0.33 0.99 -0.66 1.98 -1 3 C-3.91482778 3.80967438 -5.46113217 4.21845993 -8.3125 3.0625 C-8.869375 2.711875 -9.42625 2.36125 -10 2 C-8.71211992 1.46987262 -7.41953322 0.9511671 -6.125 0.4375 C-5.40570313 0.14746094 -4.68640625 -0.14257812 -3.9453125 -0.44140625 C-2 -1 -2 -1 0 0 Z " fill="#3E2D1E" transform="translate(208,87)"/>
<path d="M0 0 C0.99 0.33 1.98 0.66 3 1 C3 1.66 3 2.32 3 3 C3.66 3 4.32 3 5 3 C5.66 4.65 6.32 6.3 7 8 C4.13792848 6.71700242 1.9754912 5.469364 0 3 C0 2.01 0 1.02 0 0 Z " fill="#1C1205" transform="translate(257,74)"/>
<path d="M0 0 C0.99 0.33 1.98 0.66 3 1 C3.33 2.65 3.66 4.3 4 6 C4.99 6.33 5.98 6.66 7 7 C6.67 7.99 6.34 8.98 6 10 C4.99421411 8.71283353 3.99553202 7.42011342 3 6.125 C2.443125 5.40570313 1.88625 4.68640625 1.3125 3.9453125 C0 2 0 2 0 0 Z " fill="#1E1104" transform="translate(247,62)"/>
<path d="M0 0 C0.33 0.99 0.66 1.98 1 3 C2.32 3 3.64 3 5 3 C4.34 4.32 3.68 5.64 3 7 C1.68 6.67 0.36 6.34 -1 6 C-0.67 4.02 -0.34 2.04 0 0 Z " fill="#E2E2E2" transform="translate(290,234)"/>
<path d="M0 0 C0.33 0 0.66 0 1 0 C0.75 3.375 0.75 3.375 0 7 C-2.0625 8.4375 -2.0625 8.4375 -4 9 C-4.33 7.68 -4.66 6.36 -5 5 C-4.01 5.33 -3.02 5.66 -2 6 C-1.34 4.02 -0.68 2.04 0 0 Z " fill="#DBDBDB" transform="translate(143,232)"/>
<path d="M0 0 C-1.0625 1.5 -1.0625 1.5 -3 3 C-6.6875 3.1875 -6.6875 3.1875 -10 3 C-6.68152292 -0.06320961 -4.44849969 -0.3033068 0 0 Z " fill="#28282A" transform="translate(46,435)"/>
<path d="M0 0 C2.97 0 5.94 0 9 0 C8.34 1.65 7.68 3.3 7 5 C6.67 3.68 6.34 2.36 6 1 C4.35 1.33 2.7 1.66 1 2 C0.67 1.34 0.34 0.68 0 0 Z " fill="#171717" transform="translate(76,408)"/>
<path d="M0 0 C3 0 3 0 4.6875 1.5 C5.120625 1.995 5.55375 2.49 6 3 C5.67 3.99 5.34 4.98 5 6 C3.35 5.67 1.7 5.34 0 5 C0 3.35 0 1.7 0 0 Z " fill="#C8A06B" transform="translate(171,89)"/>
<path d="M0 0 C1.98 1.65 3.96 3.3 6 5 C5.67 6.32 5.34 7.64 5 9 C1.9083091 6.47043472 1.09068668 3.77545388 0 0 Z " fill="#404040" transform="translate(311,75)"/>
<path d="M0 0 C2.08954032 4.17908064 2.16552619 4.80410573 1 9 C-0.32 9 -1.64 9 -3 9 C-2.01 6.03 -1.02 3.06 0 0 Z " fill="#626262" transform="translate(129,74)"/>
<path d="M0 0 C0.66 0 1.32 0 2 0 C2 0.66 2 1.32 2 2 C3.32 2.33 4.64 2.66 6 3 C5.01 3.99 4.02 4.98 3 6 C1.5 4.6875 1.5 4.6875 0 3 C0 2.01 0 1.02 0 0 Z " fill="#28272B" transform="translate(158,239)"/>
<path d="M0 0 C1.65 0 3.3 0 5 0 C5 1.32 5 2.64 5 4 C3.35 4 1.7 4 0 4 C0 2.68 0 1.36 0 0 Z " fill="#F5F5F6" transform="translate(253,225)"/>
<path d="M0 0 C0.99 0.33 1.98 0.66 3 1 C3 1.99 3 2.98 3 4 C2.34 4 1.68 4 1 4 C0.67 4.99 0.34 5.98 0 7 C-1 6 -1 6 -1.125 3.5 C-1 1 -1 1 0 0 Z " fill="#313131" transform="translate(236,217)"/>
<path d="M0 0 C0.66 0.33 1.32 0.66 2 1 C0.9024777 3.99324263 0.32317108 4.84610901 -2.625 6.25 C-3.40875 6.4975 -4.1925 6.745 -5 7 C-4.67 6.01 -4.34 5.02 -4 4 C-3.01 4 -2.02 4 -1 4 C-1.33 3.01 -1.66 2.02 -2 1 C-1.34 0.67 -0.68 0.34 0 0 Z " fill="#F1D5A9" transform="translate(181,80)"/>
<path d="M0 0 C1 2 1 2 0.375 4.0625 C-1 6 -1 6 -3.625 6.75 C-4.800625 6.87375 -4.800625 6.87375 -6 7 C-4.02 4.69 -2.04 2.38 0 0 Z " fill="#D0BDA0" transform="translate(191,68)"/>
<path d="M0 0 C0.33 0 0.66 0 1 0 C2.0070238 5.03511899 1.97387813 8.23947038 0 13 C-0.33 13 -0.66 13 -1 13 C-1.07654536 8.48382401 -1.10228696 4.40914783 0 0 Z " fill="#626264" transform="translate(29,363)"/>
<path d="M0 0 C0.99 0 1.98 0 3 0 C3 1.32 3 2.64 3 4 C2.34 4 1.68 4 1 4 C1 4.66 1 5.32 1 6 C0.01 5.67 -0.98 5.34 -2 5 C-1.34 3.35 -0.68 1.7 0 0 Z " fill="#1C1C1E" transform="translate(236,290)"/>
<path d="M0 0 C4.29 0 8.58 0 13 0 C12.01 1.485 12.01 1.485 11 3 C10.34 3 9.68 3 9 3 C9 2.34 9 1.68 9 1 C6.03 1 3.06 1 0 1 C0 0.67 0 0.34 0 0 Z " fill="#2A2A2C" transform="translate(247,241)"/>
<path d="M0 0 C0.99 0.33 1.98 0.66 3 1 C2.6875 2.9375 2.6875 2.9375 2 5 C1.01 5.33 0.02 5.66 -1 6 C-1.042721 4.33388095 -1.04063832 2.66617115 -1 1 C-0.67 0.67 -0.34 0.34 0 0 Z " fill="#353534" transform="translate(288,217)"/>
<path d="M0 0 C0.33 0 0.66 0 1 0 C1 2.31 1 4.62 1 7 C-0.98 7.99 -0.98 7.99 -3 9 C-2.01 6.03 -1.02 3.06 0 0 Z " fill="#565659" transform="translate(74,161)"/>
<path d="M0 0 C0.99 0 1.98 0 3 0 C2.625 2.9375 2.625 2.9375 2 6 C1.01 6.495 1.01 6.495 0 7 C-0.38133299 5.0085944 -0.71325582 3.00720923 -1 1 C-0.67 0.67 -0.34 0.34 0 0 Z " fill="#272322" transform="translate(269,83)"/>
<path d="M0 0 C1.485 0.99 1.485 0.99 3 2 C2.67 3.98 2.34 5.96 2 8 C1.34 7.67 0.68 7.34 0 7 C0 4.69 0 2.38 0 0 Z " fill="#212121" transform="translate(231,226)"/>
<path d="M0 0 C0.99 1.32 1.98 2.64 3 4 C2.54625 4.433125 2.0925 4.86625 1.625 5.3125 C-0.20024334 7.10798342 -0.20024334 7.10798342 -2 10 C-1.54177532 6.53058454 -1.10868317 3.32604951 0 0 Z " fill="#67676A" transform="translate(63,193)"/>
<path d="M0 0 C1.9375 0.375 1.9375 0.375 4 1 C4.33 1.66 4.66 2.32 5 3 C3.02 3.33 1.04 3.66 -1 4 C-0.67 2.68 -0.34 1.36 0 0 Z " fill="#18181A" transform="translate(251,125)"/>
<path d="M0 0 C1.32 0.99 2.64 1.98 4 3 C3.67 4.65 3.34 6.3 3 8 C2.34 7.67 1.68 7.34 1 7 C0.59270772 4.67843403 0.25561323 2.3431213 0 0 Z " fill="#B99E7B" transform="translate(264,84)"/>
<path d="M0 0 C2.9375 0.375 2.9375 0.375 6 1 C6.33 1.66 6.66 2.32 7 3 C4.03 3 1.06 3 -2 3 C-1.34 2.01 -0.68 1.02 0 0 Z " fill="#E1BB82" transform="translate(207,82)"/>
<path d="M0 0 C0.33 0 0.66 0 1 0 C1 2.64 1 5.28 1 8 C0.01 7.67 -0.98 7.34 -2 7 C-1.125 2.25 -1.125 2.25 0 0 Z " fill="#202021" transform="translate(135,78)"/>
<path d="M0 0 C2.09350689 3.4019487 2.17942163 6.05272412 2 10 C1.34 9.67 0.68 9.34 0 9 C-1.28571429 2.57142857 -1.28571429 2.57142857 0 0 Z " fill="#2F2F2F" transform="translate(131,71)"/>
<path d="" fill="#000000" transform="translate(0,0)"/>
<path d="" fill="#000000" transform="translate(0,0)"/>
<path d="" fill="#FFFFFF" transform="translate(0,0)"/>
<path d="" fill="#000000" transform="translate(0,0)"/>
<path d="" fill="#000000" transform="translate(0,0)"/>
<path d="" fill="#000000" transform="translate(0,0)"/>
<path d="" fill="#000000" transform="translate(0,0)"/>
<path d="" fill="#FFFFFF" transform="translate(0,0)"/>
<path d="" fill="#FFFFFF" transform="translate(0,0)"/>
<path d="" fill="#FFFFFF" transform="translate(0,0)"/>
<path d="" fill="#FFFFFF" transform="translate(0,0)"/>
<path d="" fill="#000000" transform="translate(0,0)"/>
<path d="" fill="#FFFFFF" transform="translate(0,0)"/>
<path d="" fill="#FFFFFF" transform="translate(0,0)"/>
<path d="" fill="#FFFFFF" transform="translate(0,0)"/>
<path d="" fill="#FF00FF" transform="translate(0,0)"/>
<path d="" fill="#FFFFFF" transform="translate(0,0)"/>
<path d="" fill="#000000" transform="translate(0,0)"/>
<path d="" fill="#FFFFFF" transform="translate(0,0)"/>
<path d="" fill="#000000" transform="translate(0,0)"/>
<path d="" fill="#000000" transform="translate(0,0)"/>
<path d="" fill="#FFFFFF" transform="translate(0,0)"/>
<path d="" fill="#FFFFFF" transform="translate(0,0)"/>
<path d="" fill="#FFFFFF" transform="translate(0,0)"/>
<path d="" fill="#FFFFFF" transform="translate(0,0)"/>
<path d="" fill="#FFFFFF" transform="translate(0,0)"/>
<path d="" fill="#FFFFFF" transform="translate(0,0)"/>
<path d="" fill="#FFFFFF" transform="translate(0,0)"/>
<path d="" fill="#FFFFFF" transform="translate(0,0)"/>
<path d="" fill="#FFFFFF" transform="translate(0,0)"/>
<path d="" fill="#FFFFFF" transform="translate(0,0)"/>
<path d="" fill="#FFFFFF" transform="translate(0,0)"/>
<path d="" fill="#FFFFFF" transform="translate(0,0)"/>
<path d="" fill="#FFFFFF" transform="translate(0,0)"/>
<path d="" fill="#FFFFFF" transform="translate(0,0)"/>
<path d="" fill="#FFFFFF" transform="translate(0,0)"/>
<path d="" fill="#FFFFFF" transform="translate(0,0)"/>
<path d="" fill="#FFFFFF" transform="translate(0,0)"/>
<path d="" fill="#FFFFFF" transform="translate(0,0)"/>
<path d="" fill="#FFFFFF" transform="translate(0,0)"/>
<path d="" fill="#FFFFFF" transform="translate(0,0)"/>
<path d="" fill="#FFFFFF" transform="translate(0,0)"/>
<path d="" fill="#FFFFFF" transform="translate(0,0)"/>
</svg>
