<?xml version="1.0" encoding="UTF-8"?>
<svg version="1.1" xmlns="http://www.w3.org/2000/svg" width="310" height="318">
<path d="M0 0 C0 0.66 0 1.32 0 2 C0.81210937 2.14115234 0.81210937 2.14115234 1.640625 2.28515625 C4.69771088 3.21139253 7.05769005 4.7245356 9.75 6.4375 C10.73484375 7.05496094 11.7196875 7.67242187 12.734375 8.30859375 C13.85585938 9.14583984 13.85585938 9.14583984 15 10 C15 10.66 15 11.32 15 12 C15.70125 12.226875 16.4025 12.45375 17.125 12.6875 C20.74128535 14.33841288 23.08769976 16.2908835 26 19 C26 19.66 26 20.32 26 21 C26.66 21 27.32 21 28 21 C28 21.66 28 22.32 28 23 C28.66 23 29.32 23 30 23 C31.76370108 24.95966787 33.38975585 26.9185796 35 29 C35.48694336 29.62865967 35.97388672 30.25731934 36.47558594 30.9050293 C52.0004119 51.29580799 61.38822893 73.32820143 64 99 C64.12761719 100.24910156 64.12761719 100.24910156 64.2578125 101.5234375 C64.58446828 107.72989723 62.46740673 112.4030071 60 118 C59.07222699 120.37068345 58.15574273 122.74581256 57.25 125.125 C56.82203125 126.24132812 56.3940625 127.35765625 55.953125 128.5078125 C55.63859375 129.33023438 55.3240625 130.15265625 55 131 C52 130 52 130 50.9375 128.06640625 C50.628125 127.24011719 50.31875 126.41382813 50 125.5625 C49.66097656 124.66660156 49.32195312 123.77070313 48.97265625 122.84765625 C47.75494377 119.28254621 46.73846212 115.6814165 45.80859375 112.03125 C45.08092973 109.64380672 45.08092973 109.64380672 42 108 C41.41015625 105.12109375 41.41015625 105.12109375 41.0625 101.4375 C37.8496252 72.65505764 25.60396072 49.10037956 3.625 30.1875 C-17.58040288 13.55880278 -44.28102961 5.40877 -71.12402344 8.22265625 C-98.76592391 11.95201479 -123.82138555 25.85867471 -141 48 C-153.22247072 65.66252994 -159.26786878 83.84051565 -162 105 C-162.66 105 -163.32 105 -164 105 C-167.09479537 97.25032799 -169.84645995 89.52067864 -172.10546875 81.484375 C-172.73262848 78.84617116 -172.73262848 78.84617116 -175 78 C-175.19335938 78.58007812 -175.38671875 79.16015625 -175.5859375 79.7578125 C-176.12526098 81.37578295 -176.66704135 82.99293596 -177.2109375 84.609375 C-177.84165105 86.52024973 -178.42833678 88.44563664 -179 90.375 C-179.99217896 92.97946977 -180.86643918 94.25435933 -183 96 C-183.29644596 89.58194506 -182.31640012 84.26801599 -180.5 78.125 C-180.23082764 77.20952393 -179.96165527 76.29404785 -179.68432617 75.35083008 C-175.0887945 60.26501576 -168.59686613 47.32983639 -159.22607422 34.65917969 C-158.14410525 33.19500981 -157.08758944 31.71210438 -156.03515625 30.2265625 C-154.75199837 28.43829847 -153.3879317 26.70822363 -152 25 C-151.34 25 -150.68 25 -150 25 C-150 24.34 -150 23.68 -150 23 C-149.34 23 -148.68 23 -148 23 C-148 22.34 -148 21.68 -148 21 C-147.34 21 -146.68 21 -146 21 C-146 20.34 -146 19.68 -146 19 C-143.9548396 17.20292119 -141.90701382 15.52888762 -139.75 13.875 C-139.10957764 13.38217529 -138.46915527 12.88935059 -137.80932617 12.3815918 C-135.88083636 10.910183 -133.94209586 9.45338353 -132 8 C-131.03191406 7.26652344 -130.06382812 6.53304687 -129.06640625 5.77734375 C-90.8877582 -21.46217394 -40.72204716 -18.90666475 0 0 Z " fill="#72B39F" transform="translate(214,52)"/>
<path d="M0 0 C1.61575928 0.05160278 1.61575928 0.05160278 3.26416016 0.10424805 C13.99925095 0.55544732 24.22874257 2.22458988 34.5 5.375 C35.78342285 5.76800293 35.78342285 5.76800293 37.09277344 6.16894531 C55.89991478 12.09295004 73.86622746 21.6078211 88.75 34.6875 C88.75 35.3475 88.75 36.0075 88.75 36.6875 C89.3275 36.955625 89.905 37.22375 90.5 37.5 C92.80550043 38.71679189 94.77056192 39.99083879 96.75 41.6875 C96.75 42.3475 96.75 43.0075 96.75 43.6875 C97.41 43.6875 98.07 43.6875 98.75 43.6875 C98.75 44.3475 98.75 45.0075 98.75 45.6875 C99.41 45.6875 100.07 45.6875 100.75 45.6875 C103.75 49.14903846 103.75 49.14903846 103.75 51.6875 C104.74 52.0175 105.73 52.3475 106.75 52.6875 C108.45421804 54.82290573 110.02113665 56.93979921 111.5625 59.1875 C112.00899902 59.82969482 112.45549805 60.47188965 112.91552734 61.13354492 C113.80290046 62.41278484 114.68709589 63.69423575 115.56787109 64.97802734 C116.50975393 66.34008097 117.4788983 67.68327181 118.45703125 69.01953125 C133.68994675 90.29525621 141.65231275 119.67012946 141.75 145.6875 C139.75383446 147.68366554 135.93298037 147.09733427 133.1875 147.25 C132.47658203 147.29318359 131.76566406 147.33636719 131.03320312 147.38085938 C129.27238088 147.48721777 127.5112168 147.58788846 125.75 147.6875 C125.71036133 147.14037354 125.67072266 146.59324707 125.62988281 146.02954102 C124.68827013 133.57398205 123.10461574 121.72684315 119.75 109.6875 C119.46382813 108.63433594 119.17765625 107.58117187 118.8828125 106.49609375 C115.43240169 95.0303481 109.12924603 84.62210075 102.78125 74.54296875 C101.75 72.6875 101.75 72.6875 101.75 70.6875 C101.09 70.6875 100.43 70.6875 99.75 70.6875 C98.55859375 69.2890625 98.55859375 69.2890625 97.1875 67.3125 C90.45629771 58.09367947 82.78855999 50.63052793 73.75 43.6875 C72.90953125 43.01976562 72.0690625 42.35203125 71.203125 41.6640625 C60.31336374 33.31524553 47.83853792 26.79827043 34.75 22.6875 C33.80769531 22.35234375 32.86539063 22.0171875 31.89453125 21.671875 C2.14301945 11.56616503 -32.92488653 13.6365414 -61.6875 26.1875 C-63.31516655 27.02025963 -64.92791114 27.88452517 -66.5078125 28.8046875 C-68.25 29.6875 -68.25 29.6875 -71.25 29.6875 C-71.25 30.3475 -71.25 31.0075 -71.25 31.6875 C-72.99681293 32.67234108 -74.7475851 33.65016187 -76.5 34.625 C-77.47453125 35.17027344 -78.4490625 35.71554688 -79.453125 36.27734375 C-81.78610409 37.45360835 -83.70350762 38.20851691 -86.25 38.6875 C-86.25 39.3475 -86.25 40.0075 -86.25 40.6875 C-87.8671875 42.09765625 -87.8671875 42.09765625 -90.125 43.75 C-99.34330942 50.18812795 -99.34330942 50.18812795 -106.25 58.6875 C-106.91 58.6875 -107.57 58.6875 -108.25 58.6875 C-108.518125 59.25984375 -108.78625 59.8321875 -109.0625 60.421875 C-110.29132636 62.76634634 -111.67522176 64.81154938 -113.25 66.9375 C-113.765625 67.64390625 -114.28125 68.3503125 -114.8125 69.078125 C-115.286875 69.60921875 -115.76125 70.1403125 -116.25 70.6875 C-116.91 70.6875 -117.57 70.6875 -118.25 70.6875 C-118.518125 71.38875 -118.78625 72.09 -119.0625 72.8125 C-120.3181449 75.8524824 -121.75235123 78.7602774 -123.25 81.6875 C-123.91 81.6875 -124.57 81.6875 -125.25 81.6875 C-125.35570312 82.23019531 -125.46140625 82.77289063 -125.5703125 83.33203125 C-126.70294311 87.25718215 -128.78072494 90.7219154 -130.6796875 94.32421875 C-137.6143428 109.17680136 -140.65422953 125.66632124 -141.890625 141.8828125 C-142.25 145.6875 -142.25 145.6875 -143.25 146.6875 C-145.78049402 146.76063567 -148.28304837 146.77997527 -150.8125 146.75 C-151.52341797 146.74548828 -152.23433594 146.74097656 -152.96679688 146.73632812 C-154.72790013 146.72450864 -156.48896036 146.70657263 -158.25 146.6875 C-156.48423028 119.61595324 -150.66495503 96.40267337 -137.25 72.6875 C-136.57216719 71.35980843 -135.89946824 70.02929478 -135.25 68.6875 C-134.59 68.6875 -133.93 68.6875 -133.25 68.6875 C-133.0128125 67.99269531 -132.775625 67.29789062 -132.53125 66.58203125 C-131.0189473 63.16551815 -128.99761633 60.32993329 -126.75 57.375 C-126.34652344 56.82521484 -125.94304687 56.27542969 -125.52734375 55.70898438 C-124.48731309 54.32742549 -123.37366546 53.00193702 -122.25 51.6875 C-121.59 51.6875 -120.93 51.6875 -120.25 51.6875 C-119.940625 51.06875 -119.63125 50.45 -119.3125 49.8125 C-118.625 48.4375 -117.9375 47.0625 -117.25 45.6875 C-116.59 45.6875 -115.93 45.6875 -115.25 45.6875 C-115.25 45.0275 -115.25 44.3675 -115.25 43.6875 C-114.59 43.6875 -113.93 43.6875 -113.25 43.6875 C-113.25 43.0275 -113.25 42.3675 -113.25 41.6875 C-112.59 41.6875 -111.93 41.6875 -111.25 41.6875 C-111.25 41.0275 -111.25 40.3675 -111.25 39.6875 C-107.78846154 36.6875 -107.78846154 36.6875 -105.25 36.6875 C-105.25 36.0275 -105.25 35.3675 -105.25 34.6875 C-103.05770265 32.88635943 -100.86527918 31.2124021 -98.5625 29.5625 C-97.87986084 29.07040039 -97.19722168 28.57830078 -96.49389648 28.07128906 C-85.3435467 20.11396457 -73.98146209 13.73484442 -61.25 8.6875 C-60.26644531 8.29691406 -59.28289062 7.90632813 -58.26953125 7.50390625 C-39.43966494 0.67841169 -19.83772157 -0.65452988 0 0 Z " fill="#63AEA1" transform="translate(162.25,12.3125)"/>
<path d="M0 0 C0.76054687 0.29003906 1.52109375 0.58007812 2.3046875 0.87890625 C21.02429669 8.61936749 32.06295735 21.33497885 40.1953125 39.69921875 C41 42 41 42 41 45 C0.08 45 -40.84 45 -83 45 C-82.28908837 41.44544187 -81.86717827 39.35101729 -80.36328125 36.29296875 C-80.03602051 35.62716797 -79.70875977 34.96136719 -79.37158203 34.27539062 C-79.02208496 33.58638672 -78.67258789 32.89738281 -78.3125 32.1875 C-77.95526855 31.47916016 -77.59803711 30.77082031 -77.22998047 30.04101562 C-74.59774297 24.92937263 -71.80216595 20.34533251 -68 16 C-67.34 16 -66.68 16 -66 16 C-66 15.34 -66 14.68 -66 14 C-65.34 14 -64.68 14 -64 14 C-64 13.34 -64 12.68 -64 12 C-46.76616467 -2.33798595 -21.3426298 -8.42853007 0 0 Z " fill="#BFD2DD" transform="translate(175,264)"/>
<path d="M0 0 C3.32785743 2.21857162 3.46978352 2.61749832 4.4296875 6.26171875 C4.78293091 7.55855591 4.78293091 7.55855591 5.14331055 8.8815918 C5.38476807 9.8075415 5.62622559 10.73349121 5.875 11.6875 C6.39709297 13.60488929 6.92185121 15.52155475 7.44921875 17.4375 C7.70880371 18.38367188 7.96838867 19.32984375 8.23583984 20.3046875 C9.27557783 23.97200615 10.45332883 27.58170984 11.6875 31.1875 C14.59305102 39.72721245 17.14826992 48.16867193 19 57 C22.184499 55.4077505 22.54842508 52.13905856 23.625 48.9375 C23.85445312 48.27427734 24.08390625 47.61105469 24.3203125 46.92773438 C24.88675776 45.28740331 25.44422923 43.64397843 26 42 C26.99 42 27.98 42 29 42 C29.88063317 46.66735579 30.08509274 50.31699842 29.11328125 54.9765625 C27.88959611 61.3089746 27.2157006 67.64992592 26.5625 74.0625 C25.6355441 82.82253225 24.55295427 91.49854219 22.98242188 100.16674805 C22.25132993 104.24626043 21.79591426 108.23868227 21.5625 112.375 C21.30299883 115.68745617 21.11163206 116.82856505 19.25 119.6875 C16.4588494 121.31567119 15.1703029 121.71331815 12 121 C8.38922923 117.34231486 7.4962706 114.92467533 7.45410156 109.83276367 C7.43438293 108.61187546 7.41466431 107.39098724 7.39434814 106.13310242 C7.39311951 104.82460831 7.39189087 103.5161142 7.390625 102.16796875 C7.37563526 100.8074599 7.35890643 99.4469692 7.34051514 98.08650208 C7.29691734 94.51745749 7.27685977 90.94865834 7.26177979 87.37939453 C7.24218101 83.73260023 7.20021427 80.08606992 7.16015625 76.43945312 C7.08493681 69.29306947 7.03459555 62.14670517 7 55 C6.34 55 5.68 55 5 55 C4.99635437 55.75310959 4.99270874 56.50621918 4.98895264 57.28215027 C4.9510441 64.38876152 4.89415946 71.49491049 4.81609726 78.60117626 C4.7766323 82.25439913 4.74443941 85.90738133 4.72900391 89.56079102 C4.71383023 93.08834999 4.67937382 96.6152473 4.63169098 100.14251137 C4.60969117 102.13927272 4.60752687 104.13622075 4.60565186 106.13310242 C4.57607391 107.96443474 4.57607391 107.96443474 4.54589844 109.83276367 C4.53701599 110.90531906 4.52813354 111.97787445 4.51898193 113.08293152 C3.86971918 116.73227609 2.6521497 118.44207947 0 121 C-3.625 121 -3.625 121 -7 120 C-9.16582819 116.75125771 -9.49461537 114.93693353 -10.03515625 111.12109375 C-10.20031738 109.95690918 -10.36547852 108.79272461 -10.53564453 107.59326172 C-11.24677528 102.09041085 -11.85922657 96.58071798 -12.4375 91.0625 C-13.46203865 81.48329635 -14.61707896 71.94034486 -16.08569336 62.41821289 C-17.41364981 53.35618099 -17.63888382 44.82231019 -15.25 35.9375 C-14.92515625 34.66777344 -14.6003125 33.39804688 -14.265625 32.08984375 C-12.84259495 28.61571792 -12.27369498 28.38783418 -9 27 C-8.19062336 25.16613343 -8.19062336 25.16613343 -7.9375 23 C-4.55733268 4.55733268 -4.55733268 4.55733268 0 0 Z " fill="#BED2DD" transform="translate(148,134)"/>
<path d="M0 0 C0.66 0 1.32 0 2 0 C5.6787999 7.56301503 9 15.49216637 9 24 C10.32 24.33 11.64 24.66 13 25 C13.06469482 25.55236328 13.12938965 26.10472656 13.19604492 26.67382812 C15.96125117 49.59299683 21.97166067 68.48617224 35.9609375 87.13671875 C38 90 38 90 39 93 C40.3153341 93.70151152 41.65117592 94.36525925 43 95 C44.75 96.5 44.75 96.5 46 98 C46 98.66 46 99.32 46 100 C46.81210938 100.36738281 46.81210938 100.36738281 47.640625 100.7421875 C50.54910859 102.2927367 53.08553187 104.18413108 55.75 106.125 C65.11354341 112.77683087 75.44509905 117.55439572 86 122 C86 122.66 86 123.32 86 124 C83.4453125 125.7265625 83.4453125 125.7265625 80.125 127.625 C79.03445312 128.25664062 77.94390625 128.88828125 76.8203125 129.5390625 C74 131 74 131 72 131 C72 131.66 72 132.32 72 133 C69.875 135.1875 69.875 135.1875 67 137 C53.85393627 136.05840866 38.62081319 122.63257256 29 114 C29 113.34 29 112.68 29 112 C28.34 112 27.68 112 27 112 C27 111.34 27 110.68 27 110 C26.34 110 25.68 110 25 110 C23.04018712 107.74592092 21.19599236 105.4867439 19.375 103.125 C18.859375 102.47402344 18.34375 101.82304687 17.8125 101.15234375 C14 96.26064401 14 96.26064401 14 94 C13.34 94 12.68 94 12 94 C1.05963316 75.49862408 -6.64677742 56.58944906 -9 35 C-9.13148437 34.09636719 -9.26296875 33.19273437 -9.3984375 32.26171875 C-10.30198329 21.24780712 -4.85617499 9.71234999 0 0 Z " fill="#80B89F" transform="translate(39,137)"/>
<path d="M0 0 C3.49975917 2.33317278 3.71333067 3.3042681 4.97265625 7.19140625 C5.31490234 8.21814453 5.65714844 9.24488281 6.00976562 10.30273438 C6.35716797 11.37845703 6.70457031 12.45417969 7.0625 13.5625 C7.75505121 15.69098308 8.45394016 17.81741796 9.16015625 19.94140625 C9.61853882 21.35981812 9.61853882 21.35981812 10.08618164 22.80688477 C10.78916473 25.16692149 10.78916473 25.16692149 13 26 C13.18175781 25.29875 13.36351562 24.5975 13.55078125 23.875 C15.07999067 18.10321471 16.80054363 12.55100893 19 7 C19.66 7 20.32 7 21 7 C21.3407895 14.11871402 20.55365439 20.18921993 18.5 27 C18.23082764 27.90645264 17.96165527 28.81290527 17.68432617 29.74682617 C13.05952064 44.78171059 6.57362525 57.70158861 -2.77392578 70.34082031 C-3.85589475 71.80499019 -4.91241056 73.28789562 -5.96484375 74.7734375 C-7.24800163 76.56170153 -8.6120683 78.29177637 -10 80 C-10.66 80 -11.32 80 -12 80 C-12 80.66 -12 81.32 -12 82 C-12.66 82 -13.32 82 -14 82 C-14 82.66 -14 83.32 -14 84 C-14.66 84 -15.32 84 -16 84 C-16 84.66 -16 85.32 -16 86 C-18.0450609 87.79699138 -20.09358672 89.47054668 -22.25 91.125 C-22.88317139 91.61492432 -23.51634277 92.10484863 -24.16870117 92.60961914 C-42.83172844 106.90852724 -42.83172844 106.90852724 -51 109 C-54.36555677 108.48893397 -56.45760372 107.26999668 -59 105 C-59 104.34 -59 103.68 -59 103 C-59.825 102.773125 -60.65 102.54625 -61.5 102.3125 C-65.73136618 100.72573768 -69.25171013 98.49251763 -73 96 C-72.67 95.01 -72.34 94.02 -72 93 C-69.18359375 91.74609375 -69.18359375 91.74609375 -65.4375 90.4375 C-50.75072149 84.91623458 -38.95494678 76.09420458 -28 65 C-27.31421875 64.31292969 -26.6284375 63.62585938 -25.921875 62.91796875 C-20.65211883 57.28027916 -16.82968173 50.66348427 -13 44 C-12.52433594 43.17628906 -12.04867187 42.35257813 -11.55859375 41.50390625 C-4.6131426 28.59276978 -2.04301502 14.35093476 0 0 Z " fill="#A0C494" transform="translate(256,165)"/>
<path d="M0 0 C5.28 0 10.56 0 16 0 C16.14695312 1.97806641 16.14695312 1.97806641 16.296875 3.99609375 C17.23857531 15.66465636 18.85257417 26.72269197 22 38 C22.29777344 39.07636719 22.59554688 40.15273437 22.90234375 41.26171875 C24.98339327 48.09434916 28.05440077 54.12369881 31.609375 60.28515625 C33 63 33 63 33 66 C33.66 66 34.32 66 35 66 C35.83848804 67.45537568 36.67063934 68.91440373 37.5 70.375 C37.9640625 71.18710938 38.428125 71.99921875 38.90625 72.8359375 C40 75 40 75 40 77 C40.66 77 41.32 77 42 77 C43.5078125 78.6796875 43.5078125 78.6796875 45.125 80.875 C45.66382813 81.59429687 46.20265625 82.31359375 46.7578125 83.0546875 C48 85 48 85 48 87 C48.66 87 49.32 87 50 87 C51.55078125 88.609375 51.55078125 88.609375 53.3125 90.75 C55.98762235 93.91761349 58.73925686 96.43092965 62 99 C62 99.66 62 100.32 62 101 C62.51433594 101.22558594 63.02867188 101.45117188 63.55859375 101.68359375 C67.62470122 103.8760389 71.23964187 106.72122255 74.95507812 109.45507812 C77.62122884 111.39280346 79.85246118 112.95082039 83 114 C83 114.66 83 115.32 83 116 C83.721875 116.103125 84.44375 116.20625 85.1875 116.3125 C88.24491993 117.05986932 90.38329635 118.28045189 93 120 C92.34 121.98 91.68 123.96 91 126 C90.34 126 89.68 126 89 126 C88.814375 126.86625 88.814375 126.86625 88.625 127.75 C87.99274387 130.02612206 87.08136532 131.90760206 86 134 C74.21494325 128.71011657 62.71171655 121.57026239 53 113 C53 112.34 53 111.68 53 111 C52.071875 110.5359375 52.071875 110.5359375 51.125 110.0625 C49.75 109.375 48.375 108.6875 47 108 C47 107.34 47 106.68 47 106 C46.34 106 45.68 106 45 106 C45 105.34 45 104.68 45 104 C44.34 104 43.68 104 43 104 C43 103.34 43 102.68 43 102 C42.34 102 41.68 102 41 102 C37.7920055 98.50970198 34.92536398 94.72859951 32 91 C31.44570313 90.29875 30.89140625 89.5975 30.3203125 88.875 C28.83351754 86.94618491 27.40545523 84.98885174 26 83 C25.47019531 82.25105469 24.94039062 81.50210938 24.39453125 80.73046875 C11.31836848 61.25087616 3.29837438 38.11264878 0.875 14.8125 C0.78863281 14.04486328 0.70226562 13.27722656 0.61328125 12.48632812 C0.1559788 8.25083643 0 4.30125328 0 0 Z " fill="#7EB7A2" transform="translate(4,162)"/>
<path d="M0 0 C-2.26342963 36.43109602 -12.52711323 71.11895711 -38.28515625 98.14453125 C-40.06462965 99.8970546 -40.06462965 99.8970546 -41 102 C-41.66 102 -42.32 102 -43 102 C-43 102.66 -43 103.32 -43 104 C-43.66 104 -44.32 104 -45 104 C-45 104.66 -45 105.32 -45 106 C-45.66 106 -46.32 106 -47 106 C-47 106.66 -47 107.32 -47 108 C-50.46153846 111 -50.46153846 111 -53 111 C-53 111.66 -53 112.32 -53 113 C-55.19222858 114.80108407 -57.38494327 116.47493206 -59.6875 118.125 C-60.36288818 118.61274902 -61.03827637 119.10049805 -61.73413086 119.60302734 C-79.29714549 132.15302937 -79.29714549 132.15302937 -87 133 C-87.81498562 131.3970947 -88.62689927 129.79262722 -89.4375 128.1875 C-89.88996094 127.29417969 -90.34242188 126.40085937 -90.80859375 125.48046875 C-92 123 -92 123 -93 120 C-91.90042969 119.3709375 -90.80085937 118.741875 -89.66796875 118.09375 C-67.42257902 105.40723294 -67.42257902 105.40723294 -50 87 C-49.34 87 -48.68 87 -48 87 C-47.7525 86.46375 -47.505 85.9275 -47.25 85.375 C-45.69347463 82.4176018 -43.96564327 79.70275949 -42 77 C-41.34 77 -40.68 77 -40 77 C-39.74476563 76.30003906 -39.48953125 75.60007812 -39.2265625 74.87890625 C-37.86800455 71.69018903 -36.17994838 68.89660861 -34.375 65.9375 C-23.32646073 46.97860365 -16.87439284 25.31218574 -16.140625 3.3515625 C-16 1 -16 1 -15 0 C-12.86006029 -0.26203343 -10.71211406 -0.46018841 -8.5625 -0.625 C-7.38816406 -0.72039062 -6.21382813 -0.81578125 -5.00390625 -0.9140625 C-2 -1 -2 -1 0 0 Z " fill="#AAC892" transform="translate(304,162)"/>
<path d="M0 0 C5.31129997 2.06739461 9.61999042 4.61297 14.1875 8 C14.79013672 8.43828125 15.39277344 8.8765625 16.01367188 9.328125 C17.68175008 10.54393612 19.34120081 11.77155919 21 13 C21.80050781 13.556875 22.60101563 14.11375 23.42578125 14.6875 C24.20501953 15.3371875 24.20501953 15.3371875 25 16 C25 16.66 25 17.32 25 18 C25.5775 18.268125 26.155 18.53625 26.75 18.8125 C29.05550043 20.02929189 31.02056192 21.30333879 33 23 C33 23.66 33 24.32 33 25 C33.66 25 34.32 25 35 25 C35 25.66 35 26.32 35 27 C35.66 27 36.32 27 37 27 C40 30.46153846 40 30.46153846 40 33 C40.99 33.33 41.98 33.66 43 34 C44.70421804 36.13540573 46.27113665 38.25229921 47.8125 40.5 C48.25899902 41.14219482 48.70549805 41.78438965 49.16552734 42.44604492 C50.05290046 43.72528484 50.93709589 45.00673575 51.81787109 46.29052734 C52.75975393 47.65258097 53.7288983 48.99577181 54.70703125 50.33203125 C69.93994675 71.60775621 77.90231275 100.98262946 78 127 C76.00383446 128.99616554 72.18298037 128.40983427 69.4375 128.5625 C68.72658203 128.60568359 68.01566406 128.64886719 67.28320312 128.69335938 C65.52238088 128.79971777 63.7612168 128.90038846 62 129 C61.96036133 128.45287354 61.92072266 127.90574707 61.87988281 127.34204102 C60.93827013 114.88648205 59.35461574 103.03934315 56 91 C55.71382813 89.94683594 55.42765625 88.89367187 55.1328125 87.80859375 C51.68240169 76.3428481 45.37924603 65.93460075 39.03125 55.85546875 C38 54 38 54 38 52 C37.34 52 36.68 52 36 52 C34.80859375 50.6015625 34.80859375 50.6015625 33.4375 48.625 C24.21825346 35.9986406 12.89175077 26.69703794 0 18 C2 16 2 16 4.0625 15.5625 C5.0215625 15.2840625 5.0215625 15.2840625 6 15 C6.33 14.01 6.66 13.02 7 12 C7.99 11.67 8.98 11.34 10 11 C9.01 10.67 8.02 10.34 7 10 C6.855625 9.360625 6.71125 8.72125 6.5625 8.0625 C6.2840625 7.0415625 6.2840625 7.0415625 6 6 C4.67532254 5.3162955 3.34136367 4.65035814 2 4 C0.75 1.875 0.75 1.875 0 0 Z " fill="#8CBC9E" transform="translate(226,31)"/>
<path d="M0 0 C2.97569037 3.32963133 4.12112003 6.80952841 5.48046875 11.03125 C5.80704216 12.04064636 5.80704216 12.04064636 6.14021301 13.07043457 C6.59681262 14.48797586 7.04959798 15.90675078 7.4987793 17.32666016 C8.18621496 19.4959449 8.88805336 21.66017674 9.59179688 23.82421875 C10.03471932 25.20545204 10.47680522 26.58695391 10.91796875 27.96875 C11.31781982 29.22107422 11.7176709 30.47339844 12.12963867 31.76367188 C13 35 13 35 13 39 C11.046875 39.22786458 9.09375 39.45572917 7.140625 39.68359375 C4.67008077 40.01301137 4.67008077 40.01301137 1 41 C-0.98 35.555 -0.98 35.555 -3 30 C-2.45105678 36.91043063 -2.45105678 36.91043063 -0.875 43.625 C0.84500656 50.25931103 -0.84335263 56.05093381 -4 62 C-4.99 62.33 -5.98 62.66 -7 63 C-7.33209473 61.93789307 -7.66418945 60.87578613 -8.00634766 59.78149414 C-9.26691764 55.75284857 -10.53159119 51.72550014 -11.79736328 47.69848633 C-12.33945854 45.97193692 -12.88051357 44.24506047 -13.42041016 42.51782227 C-16.26712355 33.41311045 -19.16347789 24.32730826 -22.2734375 15.30859375 C-22.51816803 14.58366226 -22.76289856 13.85873077 -23.01504517 13.11183167 C-24.1110544 9.34457789 -24.1110544 9.34457789 -27 7 C-27.10570312 7.81855469 -27.21140625 8.63710937 -27.3203125 9.48046875 C-28.11869142 13.6146033 -29.40659686 17.37646329 -30.875 21.3125 C-31.25978516 22.40401367 -31.25978516 22.40401367 -31.65234375 23.51757812 C-32.3437015 25.38146473 -33.16375769 27.19646247 -34 29 C-35.485 29.495 -35.485 29.495 -37 30 C-38.02281518 32.09719872 -38.02281518 32.09719872 -38.6875 34.5625 C-38.93886719 35.38878906 -39.19023437 36.21507812 -39.44921875 37.06640625 C-39.63097656 37.70449219 -39.81273437 38.34257812 -40 39 C-40.66 39 -41.32 39 -42 39 C-42 39.66 -42 40.32 -42 41 C-43.32 41 -44.64 41 -46 41 C-46 40.34 -46 39.68 -46 39 C-48.31 39 -50.62 39 -53 39 C-51.83540887 31.61266819 -49.65972104 24.6849322 -47.234375 17.63671875 C-45.93305273 13.80275978 -44.77271 9.94723369 -43.67578125 6.05078125 C-42.11625412 1.31811222 -40.52513848 -0.80269403 -35.96875 -3.18359375 C-25.73710242 -7.42647935 -8.59689574 -6.8384398 0 0 Z " fill="#B2C9D5" transform="translate(174,120)"/>
<path d="M0 0 C3.86933162 0.57323431 6.15222057 2.38953552 9 5 C9 5.66 9 6.32 9 7 C9.51433594 7.22558594 10.02867188 7.45117188 10.55859375 7.68359375 C14.62470122 9.8760389 18.23964187 12.72122255 21.95507812 15.45507812 C24.62122884 17.39280346 26.85246118 18.95082039 30 20 C30 20.66 30 21.32 30 22 C30.721875 22.103125 31.44375 22.20625 32.1875 22.3125 C35.24491993 23.05986932 37.38329635 24.28045189 40 26 C39.34 27.98 38.68 29.96 38 32 C37.34 32 36.68 32 36 32 C35.814375 32.86625 35.814375 32.86625 35.625 33.75 C34.99274387 36.02612206 34.08136532 37.90760206 33 40 C21.21494325 34.71011657 9.71171655 27.57026239 0 19 C0 18.34 0 17.68 0 17 C-0.61875 16.690625 -1.2375 16.38125 -1.875 16.0625 C-3.25 15.375 -4.625 14.6875 -6 14 C-6 13.34 -6 12.68 -6 12 C-6.66 11.67 -7.32 11.34 -8 11 C-7.01 10.67 -6.02 10.34 -5 10 C-4.34 9.01 -3.68 8.02 -3 7 C-1.68 7 -0.36 7 1 7 C0.67 4.69 0.34 2.38 0 0 Z " fill="#8DBE9E" transform="translate(57,256)"/>
<path d="M0 0 C3.54099178 1.77049589 5.54089861 3.37256144 7.875 6.5625 C9.82159355 12.51042473 10.02967956 18.98648028 7.875 24.9375 C5.61350329 28.63127796 3.91974649 30.15106297 0 32 C-4.36674259 32.84545715 -7.28679924 32.33641545 -11.3125 30.4375 C-15.4011335 26.7292045 -16.51637852 22.86539713 -17.875 17.625 C-18.03745156 12.91390474 -17.13012134 9.20333105 -15 5 C-10.41877698 0.41877698 -6.3991978 -0.5423049 0 0 Z " fill="#A9C3D0" transform="translate(158,79)"/>
<path d="M0 0 C1.98 0.99 3.96 1.98 6 3 C6 3.66 6 4.32 6 5 C7.0828125 5.1546875 7.0828125 5.1546875 8.1875 5.3125 C11.24491993 6.05986932 13.38329635 7.28045189 16 9 C15.34 10.98 14.68 12.96 14 15 C13.34 15 12.68 15 12 15 C11.87625 15.5775 11.7525 16.155 11.625 16.75 C10.99274387 19.02612206 10.08136532 20.90760206 9 23 C1.68902987 19.51151679 -5.5692552 15.98545115 -12 11 C-12 10.67 -12 10.34 -12 10 C-10.88625 9.7525 -9.7725 9.505 -8.625 9.25 C-4.95791272 8.40634018 -4.95791272 8.40634018 -3.6875 5.9375 C-3.460625 5.298125 -3.23375 4.65875 -3 4 C-2.34 3.67 -1.68 3.34 -1 3 C-0.67 2.01 -0.34 1.02 0 0 Z " fill="#96C19F" transform="translate(81,273)"/>
<path d="M0 0 C1.00289062 0.10183594 2.00578125 0.20367187 3.0390625 0.30859375 C3.80992187 0.39238281 4.58078125 0.47617188 5.375 0.5625 C4.67597771 2.74880376 3.95921566 4.92628567 3.21484375 7.09765625 C2.69741008 8.6162639 2.20475446 10.1439046 1.75390625 11.68359375 C1.125 13.5625 1.125 13.5625 -0.625 16.5625 C-4.11778416 17.68518062 -6.24119635 18.21115796 -9.625 16.625 C-11.68722421 12.37166258 -9.87228647 7.46921704 -8.6875 3.125 C-6.82440631 -1.3683436 -4.36330116 -0.45662454 0 0 Z " fill="#BED2DC" transform="translate(126.625,161.4375)"/>
<path d="M0 0 C2.4730297 4.26419525 3.68217472 9.11108117 3 14 C1.9375 15.9375 1.9375 15.9375 0 17 C-3.4375 17.25 -3.4375 17.25 -7 16 C-9.91944585 12.03848567 -11.09316962 8.32766715 -10.75 3.4375 C-10.5025 2.633125 -10.255 1.82875 -10 1 C-3.375 -1.125 -3.375 -1.125 0 0 Z " fill="#BCD1DB" transform="translate(189,162)"/>
<path d="M0 0 C6.2412876 2.30656281 11.99852065 5.57213096 17 10 C17 10.99 17 11.98 17 13 C17.66 13.33 18.32 13.66 19 14 C18.34 14 17.68 14 17 14 C17 14.66 17 15.32 17 16 C16.01 15.67 15.02 15.34 14 15 C14 14.34 14 13.68 14 13 C12.68 14.32 11.36 15.64 10 17 C10.66 17.66 11.32 18.32 12 19 C11.625 21.125 11.625 21.125 11 23 C6.48521602 22.46884894 3.65333143 20.63379708 0 18 C2 16 2 16 4.0625 15.5625 C5.0215625 15.2840625 5.0215625 15.2840625 6 15 C6.33 14.01 6.66 13.02 7 12 C7.99 11.67 8.98 11.34 10 11 C9.01 10.67 8.02 10.34 7 10 C6.855625 9.360625 6.71125 8.72125 6.5625 8.0625 C6.2840625 7.0415625 6.2840625 7.0415625 6 6 C4.67532254 5.3162955 3.34136367 4.65035814 2 4 C0.75 1.875 0.75 1.875 0 0 Z " fill="#79B5A0" transform="translate(226,31)"/>
<path d="M0 0 C0.66 0 1.32 0 2 0 C2.55978184 1.57701982 3.09719401 3.16199242 3.625 4.75 C3.92664062 5.63171875 4.22828125 6.5134375 4.5390625 7.421875 C5 10 5 10 4.24609375 12.26171875 C2.5617773 14.61131379 0.65228634 14.97988987 -2 16 C-2.33 16.99 -2.66 17.98 -3 19 C-2.67 19.66 -2.34 20.32 -2 21 C-2.99 20.67 -3.98 20.34 -5 20 C-5.85129163 12.67889195 -2.80012917 6.65030678 0 0 Z " fill="#68AB9C" transform="translate(39,137)"/>
<path d="M0 0 C2 3 2 3 2.5 5.0625 C2.88197631 7.22063299 2.88197631 7.22063299 5 9 C4.34 9 3.68 9 3 9 C2.80664062 9.58007812 2.61328125 10.16015625 2.4140625 10.7578125 C1.87473902 12.37578295 1.33295865 13.99293596 0.7890625 15.609375 C0.15834895 17.52024973 -0.42833678 19.44563664 -1 21.375 C-1.99217896 23.97946977 -2.86643918 25.25435933 -5 27 C-5.29854639 20.55139796 -4.25825856 15.18716929 -2.5 9 C-2.26152344 8.12988281 -2.02304687 7.25976562 -1.77734375 6.36328125 C-1.193891 4.23951325 -0.60133866 2.11875921 0 0 Z " fill="#87B7AF" transform="translate(36,121)"/>
<path d="M0 0 C-0.27747552 3.93863563 -0.57440226 7.87556691 -0.875 11.8125 C-0.99294922 13.49182617 -0.99294922 13.49182617 -1.11328125 15.20507812 C-1.19707031 16.27822266 -1.28085937 17.35136719 -1.3671875 18.45703125 C-1.44050293 19.44678955 -1.51381836 20.43654785 -1.58935547 21.45629883 C-2 24 -2 24 -4 27 C-4.66 25.02 -5.32 23.04 -6 21 C-5.34 21 -4.68 21 -4 21 C-4 15.06 -4 9.12 -4 3 C-7.74691447 3.78306954 -7.74691447 3.78306954 -10 5 C-10 4.34 -10 3.68 -10 3 C-10.99 2.67 -11.98 2.34 -13 2 C-13.66 1.34 -14.32 0.68 -15 0 C-12.87562788 -0.19448477 -10.75046809 -0.38038289 -8.625 -0.5625 C-7.44164062 -0.66691406 -6.25828125 -0.77132812 -5.0390625 -0.87890625 C-2 -1 -2 -1 0 0 Z " fill="#B6CDAF" transform="translate(304,162)"/>
<path d="M0 0 C0.33 0.66 0.66 1.32 1 2 C0.0625 4.625 0.0625 4.625 -1 7 C-1.99 6.67 -2.98 6.34 -4 6 C-3.67 7.32 -3.34 8.64 -3 10 C-5.64 11.98 -8.28 13.96 -11 16 C-11 15.34 -11 14.68 -11 14 C-11.804375 14.804375 -12.60875 15.60875 -13.4375 16.4375 C-17 20 -17 20 -19.5625 20.0625 C-20.366875 20.041875 -21.17125 20.02125 -22 20 C-19.24746624 17.14645582 -16.38854844 14.66888128 -13.25 12.25 C-8.47632676 8.48205614 -4.19013934 4.40081674 0 0 Z " fill="#A4C29C" transform="translate(231,227)"/>
<path d="M0 0 C0.99 0.66 1.98 1.32 3 2 C-10.06930693 25.03465347 -10.06930693 25.03465347 -14 27 C-14.36625971 22.48279689 -14.36625971 22.48279689 -12.625 20.1875 C-11 19 -11 19 -9 19 C-9 18.01 -9 17.02 -9 16 C-8.34 16 -7.68 16 -7 16 C-6.8453125 14.9171875 -6.8453125 14.9171875 -6.6875 13.8125 C-5.93281717 10.72516116 -4.6772415 8.68358639 -3 6 C-2.32033324 4.33859237 -1.65061095 2.67299959 -1 1 C-0.67 0.67 -0.34 0.34 0 0 Z " fill="#BACDA7" transform="translate(285,226)"/>
<path d="M0 0 C0.66 0 1.32 0 2 0 C2.2361959 6.40353322 1.823321 11.84629161 0 18 C-1.66666667 18 -3.33333333 18 -5 18 C-5 18.66 -5 19.32 -5 20 C-5.66 19.67 -6.32 19.34 -7 19 C-4.7016023 12.65315559 -2.38321358 6.31551599 0 0 Z " fill="#A2BF9D" transform="translate(275,172)"/>
<path d="M0 0 C3.48127237 2.32084825 3.82840716 3.46434058 5.1875 7.3125 C5.53167969 8.25738281 5.87585938 9.20226562 6.23046875 10.17578125 C6.98177683 12.93312004 7.15000998 15.16015591 7 18 C6.01 17.67 5.02 17.34 4 17 C3.87625 16.195625 3.7525 15.39125 3.625 14.5625 C3.41875 13.716875 3.2125 12.87125 3 12 C2.34 11.67 1.68 11.34 1 11 C0.01 14.465 0.01 14.465 -1 18 C-1.33 18 -1.66 18 -2 18 C-1.42085333 11.98673249 -0.77662055 5.99107278 0 0 Z " fill="#A7C3A7" transform="translate(256,165)"/>
<path d="M0 0 C0.33 0.66 0.66 1.32 1 2 C0.34 2 -0.32 2 -1 2 C-1.68707555 4.49064888 -2 6.37886292 -2 9 C-2.86431641 8.67708984 -2.86431641 8.67708984 -3.74609375 8.34765625 C-6.72566188 7.88806948 -7.64349403 8.7176287 -10.0625 10.4375 C-13.70027248 13 -13.70027248 13 -17 13 C-17 14.65 -17 16.3 -17 18 C-17.33 17.01 -17.66 16.02 -18 15 C-18.66 14.67 -19.32 14.34 -20 14 C-13.49917662 9.02687011 -7.03840136 4.19597004 0 0 Z " fill="#7AB6AB" transform="translate(93,53)"/>
<path d="M0 0 C0.66 0 1.32 0 2 0 C2 0.66 2 1.32 2 2 C1.34 2 0.68 2 0 2 C0.33 3.32 0.66 4.64 1 6 C0.01 6.495 0.01 6.495 -1 7 C-1.40729228 9.32156597 -1.74438677 11.6568787 -2 14 C-2.99 14 -3.98 14 -5 14 C-8.16666667 15.83333333 -8.16666667 15.83333333 -10 19 C-10.734375 17.34375 -10.734375 17.34375 -11 15 C-9.453125 12.34375 -9.453125 12.34375 -7.25 9.5 C-6.17492188 8.09234375 -6.17492188 8.09234375 -5.078125 6.65625 C-4.39234375 5.7796875 -3.7065625 4.903125 -3 4 C-2.45859375 3.2265625 -1.9171875 2.453125 -1.359375 1.65625 C-0.91078125 1.1096875 -0.4621875 0.563125 0 0 Z " fill="#68B0A6" transform="translate(40,64)"/>
<path d="M0 0 C0 0.66 0 1.32 0 2 C-0.99 2 -1.98 2 -3 2 C-3.165 2.598125 -3.33 3.19625 -3.5 3.8125 C-5.53742018 6.78373777 -7.69634563 7.17741617 -11.0390625 8.26953125 C-13.16989204 8.95171781 -13.16989204 8.95171781 -15.25 10.75 C-17 12 -17 12 -19.25 11.6875 C-19.8275 11.460625 -20.405 11.23375 -21 11 C-20.67 10.01 -20.34 9.02 -20 8 C-17.5402989 6.84646476 -15.16860431 5.86180231 -12.625 4.9375 C-8.70134778 3.47350571 -3.90917243 0 0 0 Z " fill="#B7CDB1" transform="translate(204,250)"/>
<path d="M0 0 C3.63571341 3.3188393 6.13932359 7.00064151 8.75 11.125 C9.16121094 11.75792969 9.57242187 12.39085938 9.99609375 13.04296875 C13 17.74343335 13 17.74343335 13 20 C11.68 20.33 10.36 20.66 9 21 C9 18.69 9 16.38 9 14 C8.01 14 7.02 14 6 14 C5.34 12.68 4.68 11.36 4 10 C3.01 10 2.02 10 1 10 C0.67 6.7 0.34 3.4 0 0 Z " fill="#84B79E" transform="translate(251,85)"/>
<path d="M0 0 C5.37320757 8.05981136 4.55663853 19.59606978 5 29 C4.67 28.34 4.34 27.68 4 27 C3.34 27 2.68 27 2 27 C1.93941406 26.15695313 1.87882812 25.31390625 1.81640625 24.4453125 C1.73261719 23.34960938 1.64882813 22.25390625 1.5625 21.125 C1.48128906 20.03445312 1.40007812 18.94390625 1.31640625 17.8203125 C1.16998297 15.05271029 1.16998297 15.05271029 0 13 C-0.07092842 10.7927077 -0.08415025 8.58332548 -0.0625 6.375 C-0.05347656 5.18648437 -0.04445313 3.99796875 -0.03515625 2.7734375 C-0.02355469 1.85820313 -0.01195312 0.94296875 0 0 Z " fill="#A8C7AB" transform="translate(298,124)"/>
<path d="M0 0 C0.33 0 0.66 0 1 0 C1.5739099 8.89560346 -1.02379235 15.17296063 -5 23 C-5.07149552 18.71026894 -5.03733341 15.14933362 -4 11 C-4.37907282 8.81296615 -4.37907282 8.81296615 -5 7 C-4.34 6.67 -3.68 6.34 -3 6 C-3.33 5.34 -3.66 4.68 -4 4 C-2.68 4 -1.36 4 0 4 C0 2.68 0 1.36 0 0 Z " fill="#AAC7AB" transform="translate(277,151)"/>
<path d="M0 0 C5.90372107 2.26099956 10.83132665 5.37841255 16 9 C12.52452927 10.94566951 10.87493656 11.07637127 7 10 C6.87625 9.071875 6.87625 9.071875 6.75 8.125 C5.76174558 5.32494581 4.59640015 5.25886068 2 4 C0.75 1.875 0.75 1.875 0 0 Z " fill="#8CBCAC" transform="translate(226,31)"/>
<path d="M0 0 C3 1 3 1 4.1875 3.0625 C4.455625 3.701875 4.72375 4.34125 5 5 C4.01 5.33 3.02 5.66 2 6 C1.26676204 8.01508358 1.26676204 8.01508358 1 10 C-0.65 10.33 -2.3 10.66 -4 11 C-3.38461538 3.49230769 -3.38461538 3.49230769 -1.4375 1 C-0.963125 0.67 -0.48875 0.34 0 0 Z " fill="#64ACA2" transform="translate(91,71)"/>
<path d="M0 0 C1.32 0 2.64 0 4 0 C3.34 1.98 2.68 3.96 2 6 C1.34 6 0.68 6 0 6 C-0.12375 6.5775 -0.2475 7.155 -0.375 7.75 C-1.00648824 10.02335767 -1.88858191 11.9253529 -3 14 C-5.475 13.01 -5.475 13.01 -8 12 C-6.02 9.36 -4.04 6.72 -2 4 C-1.01 4.33 -0.02 4.66 1 5 C0.67 3.35 0.34 1.7 0 0 Z " fill="#ADCBB3" transform="translate(93,282)"/>
<path d="M0 0 C0.66 0.33 1.32 0.66 2 1 C1.734375 2.90625 1.734375 2.90625 1 5 C-0.671875 5.90625 -0.671875 5.90625 -2.75 6.5 C-5.78951836 7.47873579 -7.23126122 8.18500897 -9.8125 10.25 C-10.534375 10.8275 -11.25625 11.405 -12 12 C-12.99 11.67 -13.98 11.34 -15 11 C-12.05740921 7.85519325 -8.99939466 5.50769874 -5.375 3.1875 C-4.41335937 2.56230469 -3.45171875 1.93710937 -2.4609375 1.29296875 C-1.64882812 0.86628906 -0.83671875 0.43960937 0 0 Z " fill="#74B6AD" transform="translate(80,31)"/>
<path d="M0 0 C0.99 0.66 1.98 1.32 3 2 C1.71580959 3.67243402 0.42242815 5.33781447 -0.875 7 C-1.59429687 7.928125 -2.31359375 8.85625 -3.0546875 9.8125 C-3.69664062 10.534375 -4.33859375 11.25625 -5 12 C-5.66 12 -6.32 12 -7 12 C-7 12.66 -7 13.32 -7 14 C-7.66 14 -8.32 14 -9 14 C-9 14.66 -9 15.32 -9 16 C-9.66 16 -10.32 16 -11 16 C-11.33 16.66 -11.66 17.32 -12 18 C-12.125 15.625 -12.125 15.625 -12 13 C-11.34 12.34 -10.68 11.68 -10 11 C-8.68 11 -7.36 11 -6 11 C-6 9.68 -6 8.36 -6 7 C-5.34 7 -4.68 7 -4 7 C-3.67 6.34 -3.34 5.68 -3 5 C-2.01 4.67 -1.02 4.34 0 4 C0 2.68 0 1.36 0 0 Z " fill="#C6D5B1" transform="translate(268,252)"/>
<path d="M0 0 C1.32 0.33 2.64 0.66 4 1 C4 1.66 4 2.32 4 3 C1.4453125 4.7265625 1.4453125 4.7265625 -1.875 6.625 C-2.96554688 7.25664062 -4.05609375 7.88828125 -5.1796875 8.5390625 C-8 10 -8 10 -10 10 C-10 10.66 -10 11.32 -10 12 C-11.98 12.99 -11.98 12.99 -14 14 C-14 13.01 -14 12.02 -14 11 C-13.01 11 -12.02 11 -11 11 C-11.33 10.01 -11.66 9.02 -12 8 C-10.1875 6.9375 -10.1875 6.9375 -8 6 C-7.01 6.33 -6.02 6.66 -5 7 C-5 6.34 -5 5.68 -5 5 C-4.01 5 -3.02 5 -2 5 C-1.34 3.35 -0.68 1.7 0 0 Z " fill="#BDD1C1" transform="translate(121,258)"/>
<path d="M0 0 C0.33 0.66 0.66 1.32 1 2 C3.3140622 2.73075648 5.64828869 3.40138258 8 4 C7.67 4.99 7.34 5.98 7 7 C7.66 7.66 8.32 8.32 9 9 C8.01 9.33 7.02 9.66 6 10 C3.73828125 8.63671875 3.73828125 8.63671875 1.3125 6.6875 C0.50425781 6.05199219 -0.30398437 5.41648438 -1.13671875 4.76171875 C-1.75160156 4.18035156 -2.36648437 3.59898437 -3 3 C-3 2.34 -3 1.68 -3 1 C-2.01 0.67 -1.02 0.34 0 0 Z " fill="#9EC5B1" transform="translate(71,248)"/>
<path d="M0 0 C3.875 3.75 3.875 3.75 5 6 C8.72614153 4.88145414 8.72614153 4.88145414 11 2 C11.66 2.33 12.32 2.66 13 3 C12.67 4.32 12.34 5.64 12 7 C11.34 7 10.68 7 10 7 C10 7.66 10 8.32 10 9 C8.68 9 7.36 9 6 9 C6 8.34 6 7.68 6 7 C3.69 7 1.38 7 -1 7 C-0.67 4.69 -0.34 2.38 0 0 Z " fill="#CCDDE4" transform="translate(122,152)"/>
<path d="M0 0 C2.31 0.33 4.62 0.66 7 1 C6.67 4.63 6.34 8.26 6 12 C5.34 12 4.68 12 4 12 C2.68 8.04 1.36 4.08 0 0 Z " fill="#8ABAAF" transform="translate(46,145)"/>
<path d="M0 0 C0.99 0.66 1.98 1.32 3 2 C3.1875 5.125 3.1875 5.125 3 8 C2.34 8 1.68 8 1 8 C1 8.66 1 9.32 1 10 C-0.98 10.99 -0.98 10.99 -3 12 C-2.88601335 10.37419034 -2.75844341 8.74932843 -2.625 7.125 C-2.55539063 6.22007812 -2.48578125 5.31515625 -2.4140625 4.3828125 C-2 2 -2 2 0 0 Z " fill="#B6CBD4" transform="translate(148,134)"/>
<path d="M0 0 C0.66 0.66 1.32 1.32 2 2 C0.3001768 3.15842044 -1.41029577 4.30122266 -3.125 5.4375 C-4.07632813 6.07558594 -5.02765625 6.71367187 -6.0078125 7.37109375 C-9.09833502 9.05353225 -11.52375519 9.63380804 -15 10 C-15.33 8.68 -15.66 7.36 -16 6 C-12.52176885 4.84058962 -10.54104422 5.29179116 -7 6 C-7 5.34 -7 4.68 -7 4 C-5.68 4 -4.36 4 -3 4 C-3 3.34 -3 2.68 -3 2 C-2.01 1.34 -1.02 0.68 0 0 Z " fill="#C5D5B2" transform="translate(232,285)"/>
<path d="M0 0 C1 2 1 2 -0.0625 5.3125 C-1.92558117 9.40784432 -4.27129919 11.51419946 -8 14 C-8.99 13.67 -9.98 13.34 -11 13 C-9.71937515 11.2925002 -8.38232443 9.62626404 -7 8 C-6.34 8 -5.68 8 -5 8 C-4.731875 7.4225 -4.46375 6.845 -4.1875 6.25 C-2.98280141 3.9674132 -1.59201885 2.0262058 0 0 Z " fill="#B7CEA3" transform="translate(261,241)"/>
<path d="M0 0 C-0.35010941 9.17286652 -0.35010941 9.17286652 -3.0625 12.625 C-3.701875 13.07875 -4.34125 13.5325 -5 14 C-5.29787234 5.21276596 -5.29787234 5.21276596 -3 1 C-1 0 -1 0 0 0 Z " fill="#84B6AA" transform="translate(36,134)"/>
<path d="M0 0 C4.62 0 9.24 0 14 0 C14 3.3 14 6.6 14 10 C13.67 10 13.34 10 13 10 C11.875 3.25 11.875 3.25 13 1 C9.7 1 6.4 1 3 1 C3 2.32 3 3.64 3 5 C2.69595322 6.67225729 2.36871088 8.34080104 2 10 C-0.32221873 6.22639456 0 4.98800589 0 0 Z " fill="#71A899" transform="translate(5,163)"/>
<path d="M0 0 C0.66 0.33 1.32 0.66 2 1 C1.67 1.66 1.34 2.32 1 3 C0.34 3 -0.32 3 -1 3 C-0.67 3.99 -0.34 4.98 0 6 C-1.66666667 7.66666667 -3.33333333 9.33333333 -5 11 C-6.32 11 -7.64 11 -9 11 C-9.33 10.34 -9.66 9.68 -10 9 C-9.34 9 -8.68 9 -8 9 C-8 8.34 -8 7.68 -8 7 C-7.34 7 -6.68 7 -6 7 C-6 6.34 -6 5.68 -6 5 C-2.53846154 2 -2.53846154 2 0 2 C0 1.34 0 0.68 0 0 Z " fill="#7CBAB2" transform="translate(57,47)"/>
<path d="M0 0 C0 0.66 0 1.32 0 2 C-4 3.33333333 -8 4.66666667 -12 6 C-12.66 5.34 -13.32 4.68 -14 4 C-9.28840397 0.26321694 -5.98096662 -0.11284843 0 0 Z " fill="#BACBD5" transform="translate(158,79)"/>
<path d="M0 0 C2 1.375 2 1.375 4 3 C4 3.66 4 4.32 4 5 C4.66 5 5.32 5 6 5 C5.1875 7.4375 5.1875 7.4375 4 10 C3.01 10.33 2.02 10.66 1 11 C-0.125 6.25 -0.125 6.25 1 4 C0.60061233 1.90178785 0.60061233 1.90178785 0 0 Z " fill="#95BFAA" transform="translate(48,244)"/>
<path d="M0 0 C1.67542976 0.28604898 3.34385343 0.61781233 5 1 C4.34 3.31 3.68 5.62 3 8 C2.01 7.67 1.02 7.34 0 7 C-0.38133299 5.0085944 -0.71325582 3.00720923 -1 1 C-0.67 0.67 -0.34 0.34 0 0 Z " fill="#A1BF9D" transform="translate(266,175)"/>
<path d="M0 0 C2.73192936 5.46385872 3.23059264 7.9837693 2 14 C2.99 14.33 3.98 14.66 5 15 C4.01 16.98 3.02 18.96 2 21 C1.67 21 1.34 21 1 21 C0.67 14.07 0.34 7.14 0 0 Z " fill="#A5C3A6" transform="translate(287,139)"/>
<path d="M0 0 C0.99 1.485 0.99 1.485 2 3 C4.05925139 3.72382467 4.05925139 3.72382467 6 4 C6 4.66 6 5.32 6 6 C6.66 5.67 7.32 5.34 8 5 C8 5.66 8 6.32 8 7 C8.66 7.33 9.32 7.66 10 8 C9.67 8.33 9.34 8.66 9 9 C5.5625 8.75 5.5625 8.75 2 8 C-0.1519437 4.77208445 -0.20086443 3.71599191 0 0 Z " fill="#D4E0E6" transform="translate(139,246)"/>
<path d="M0 0 C0.66 0 1.32 0 2 0 C4.09230769 4.43076923 4.09230769 4.43076923 3.625 7.3125 C3.41875 7.869375 3.2125 8.42625 3 9 C0.525 8.01 0.525 8.01 -2 7 C-1.34 4.69 -0.68 2.38 0 0 Z " fill="#8ABAAD" transform="translate(39,137)"/>
<path d="M0 0 C0.66 0 1.32 0 2 0 C1.34 6.6 0.68 13.2 0 20 C-0.33 20 -0.66 20 -1 20 C-2.51708428 6.3667426 -2.51708428 6.3667426 0 0 Z " fill="#84B6AA" transform="translate(20,136)"/>
<path d="M0 0 C1.875 0.5 1.875 0.5 4 2 C5.20013733 4.60699687 5.99457174 7.12302189 6 10 C4.53515625 12.2578125 4.53515625 12.2578125 3 14 C2.49307308 12.4188708 1.99473557 10.83498617 1.5 9.25 C1.2215625 8.36828125 0.943125 7.4865625 0.65625 6.578125 C0 4 0 4 0 0 Z " fill="#80B6A7" transform="translate(42,130)"/>
<path d="M0 0 C7.12600133 -0.35368021 12.47059106 0.04328652 19 3 C19 3.33 19 3.66 19 4 C12.66118686 3.37802877 6.32905858 2.71457113 0 2 C0 1.34 0 0.68 0 0 Z " fill="#90BFB6" transform="translate(164,26)"/>
<path d="M0 0 C1.98 0.66 3.96 1.32 6 2 C5.67 3.98 5.34 5.96 5 8 C4.34 8 3.68 8 3 8 C2.67 8.66 2.34 9.32 2 10 C1.34 6.7 0.68 3.4 0 0 Z " fill="#9CC3A7" transform="translate(282,119)"/>
<path d="M0 0 C0 0.66 0 1.32 0 2 C-3.3 2.66 -6.6 3.32 -10 4 C-10.33 4.99 -10.66 5.98 -11 7 C-10.67 5.02 -10.34 3.04 -10 1 C-3.375 -1.125 -3.375 -1.125 0 0 Z " fill="#CBD7DD" transform="translate(189,162)"/>
<path d="M0 0 C0.66 0 1.32 0 2 0 C2 0.66 2 1.32 2 2 C1.34 2 0.68 2 0 2 C0.33 3.32 0.66 4.64 1 6 C-1.97 8.475 -1.97 8.475 -5 11 C-5.33 10.01 -5.66 9.02 -6 8 C-4.85546875 5.95703125 -4.85546875 5.95703125 -3.1875 3.8125 C-2.37345703 2.73935547 -2.37345703 2.73935547 -1.54296875 1.64453125 C-1.03378906 1.10183594 -0.52460937 0.55914062 0 0 Z " fill="#76B5AD" transform="translate(40,64)"/>
<path d="M0 0 C0.33 0.99 0.66 1.98 1 3 C-3.455 3.495 -3.455 3.495 -8 4 C-8.33 3.01 -8.66 2.02 -9 1 C-2.25 -1.125 -2.25 -1.125 0 0 Z " fill="#4FA99D" transform="translate(105,33)"/>
<path d="M0 0 C1.32 0.33 2.64 0.66 4 1 C2.02 1.99 2.02 1.99 0 3 C0 3.66 0 4.32 0 5 C-1.96147874 6.38938077 -3.96166576 7.7260411 -6 9 C-6.33 7.68 -6.66 6.36 -7 5 C-5.125 3.9375 -5.125 3.9375 -3 3 C-2.34 3.33 -1.68 3.66 -1 4 C-0.67 2.68 -0.34 1.36 0 0 Z " fill="#C0D0A7" transform="translate(251,270)"/>
<path d="M0 0 C-1.1858237 3.37503669 -2.27573689 5.64722731 -5 8 C-6 7 -6 7 -6.0625 3.9375 C-6.041875 2.968125 -6.02125 1.99875 -6 1 C-3 0 -3 0 0 0 Z " fill="#B3CCA8" transform="translate(264,217)"/>
<path d="M0 0 C-2.25 2.5625 -2.25 2.5625 -5 5 C-7.3125 4.8125 -7.3125 4.8125 -9 4 C-8.67 3.01 -8.34 2.02 -8 1 C-5.07175348 0.02391783 -3.04386724 -0.08226668 0 0 Z " fill="#B1C8AB" transform="translate(192,257)"/>
<path d="M0 0 C2.17975966 3.26963949 2.36904422 4.21729678 2 8 C1.1875 10.25 1.1875 10.25 0 12 C-0.99 12.33 -1.98 12.66 -3 13 C-2.17812739 8.61667943 -1.09845718 4.32059823 0 0 Z " fill="#AFC8AB" transform="translate(252,186)"/>
<path d="M0 0 C0.33 0 0.66 0 1 0 C1.25 6.625 1.25 6.625 -1 10 C-1.45601261 12.50896686 -1.45601261 12.50896686 -1.625 15.1875 C-1.69976563 16.08855469 -1.77453125 16.98960937 -1.8515625 17.91796875 C-1.90054687 18.60503906 -1.94953125 19.29210937 -2 20 C-2.33 20 -2.66 20 -3 20 C-3.33452052 12.56621057 -3.13902852 6.80122845 0 0 Z " fill="#ABCEC4" transform="translate(33,152)"/>
<path d="M0 0 C2.97 0.495 2.97 0.495 6 1 C4.35 2.98 2.7 4.96 1 7 C0.67 6.34 0.34 5.68 0 5 C-0.66 5 -1.32 5 -2 5 C-1.34 3.35 -0.68 1.7 0 0 Z " fill="#78B5AD" transform="translate(77,87)"/>
<path d="M0 0 C0.66 0 1.32 0 2 0 C2 0.66 2 1.32 2 2 C2.99 1.67 3.98 1.34 5 1 C5.33 2.65 5.66 4.3 6 6 C4.02 6.99 4.02 6.99 2 8 C1.34 5.36 0.68 2.72 0 0 Z " fill="#C3D4DA" transform="translate(165,175)"/>
<path d="M0 0 C2 2 2 2 2.1953125 4.6015625 C2.17210937 5.59929687 2.14890625 6.59703125 2.125 7.625 C2.10695312 8.62789062 2.08890625 9.63078125 2.0703125 10.6640625 C2.03550781 11.82035156 2.03550781 11.82035156 2 13 C-0.45823172 9.31265242 -1.01242616 6.30300029 -2 2 C-1.34 2 -0.68 2 0 2 C0 1.34 0 0.68 0 0 Z " fill="#C4D0D9" transform="translate(156,139)"/>
<path d="M0 0 C2.95183101 2.95183101 3.08663988 5.95511947 4 10 C3.34 10 2.68 10 2 10 C1.67 10.66 1.34 11.32 1 12 C-0.47075246 7.58774263 -1.36884358 4.51718381 0 0 Z " fill="#A8CAB1" transform="translate(268,114)"/>
<path d="M0 0 C0.99 0.33 1.98 0.66 3 1 C-3.14285714 7.71428571 -3.14285714 7.71428571 -8 8 C-5.33333333 5.33333333 -2.66666667 2.66666667 0 0 Z " fill="#BACFA8" transform="translate(247,257)"/>
<path d="M0 0 C0.66 0 1.32 0 2 0 C1.39196574 3.12308506 0.37985958 5.19251662 -1.5 7.75 C-2.16515625 8.67039063 -2.16515625 8.67039063 -2.84375 9.609375 C-3.2253125 10.06828125 -3.606875 10.5271875 -4 11 C-4.33 11 -4.66 11 -5 11 C-5.36625971 6.48279689 -5.36625971 6.48279689 -3.625 4.1875 C-2 3 -2 3 0 3 C0 2.01 0 1.02 0 0 Z " fill="#C3D4B3" transform="translate(276,242)"/>
<path d="M0 0 C0.33 0 0.66 0 1 0 C1.33 5.28 1.66 10.56 2 16 C1.67 15.34 1.34 14.68 1 14 C0.34 14 -0.32 14 -1 14 C-0.67 9.38 -0.34 4.76 0 0 Z " fill="#B4CDB6" transform="translate(301,137)"/>
<path d="M0 0 C-2.93828597 2.50298434 -5.17902761 3.46930939 -9 4 C-9 5.65 -9 7.3 -9 9 C-9.33 8.01 -9.66 7.02 -10 6 C-10.66 5.67 -11.32 5.34 -12 5 C-7.90746174 1.10234452 -5.90669543 -0.70317803 0 0 Z " fill="#7FBBB2" transform="translate(85,62)"/>
<path d="M0 0 C0.598125 0.185625 1.19625 0.37125 1.8125 0.5625 C4.16408762 1.22093687 4.16408762 1.22093687 7 0 C7 0.66 7 1.32 7 2 C8.32 2.66 9.64 3.32 11 4 C5.375 5.125 5.375 5.125 2 4 C2 3.01 2 2.02 2 1 C1.34 0.67 0.68 0.34 0 0 Z " fill="#60AA9C" transform="translate(126,56)"/>
<path d="M0 0 C0 0.66 0 1.32 0 2 C1.65 1.67 3.3 1.34 5 1 C4.67 1.66 4.34 2.32 4 3 C4.99 3.99 5.98 4.98 7 6 C5.39402675 5.54803755 3.79027492 5.08817673 2.1875 4.625 C1.29417969 4.36976562 0.40085938 4.11453125 -0.51953125 3.8515625 C-3 3 -3 3 -6 1 C-3.92446352 0.4465236 -2.15634036 0 0 0 Z " fill="#8FC2B2" transform="translate(203,33)"/>
<path d="M0 0 C0 3 0 3 -1.6875 5.6875 C-4 8 -4 8 -6.75 8.3125 C-7.86375 8.1578125 -7.86375 8.1578125 -9 8 C-6.17493137 5.0702992 -3.21203935 2.49825283 0 0 Z " fill="#B8D1B2" transform="translate(218,239)"/>
<path d="M0 0 C0.33 0 0.66 0 1 0 C1 1.65 1 3.3 1 5 C1.66 5.33 2.32 5.66 3 6 C2.67 8.97 2.34 11.94 2 15 C1.67 15 1.34 15 1 15 C-1.39306591 5.19270308 -1.39306591 5.19270308 -1 1 C-0.67 0.67 -0.34 0.34 0 0 Z " fill="#AECCB8" transform="translate(253,130)"/>
<path d="M0 0 C2.475 0.99 2.475 0.99 5 2 C4.79375 2.556875 4.5875 3.11375 4.375 3.6875 C3.89304789 6.659538 4.73434972 8.31979941 6 11 C5.01 11.495 5.01 11.495 4 12 C3.3291288 10.3767313 2.66342971 8.75132422 2 7.125 C1.62875 6.22007813 1.2575 5.31515625 0.875 4.3828125 C0 2 0 2 0 0 Z " fill="#A0C3AF" transform="translate(247,119)"/>
<path d="M0 0 C0.99 0 1.98 0 3 0 C3 1.32 3 2.64 3 4 C3.66 4.33 4.32 4.66 5 5 C4.01 5.99 3.02 6.98 2 8 C0.4375 5.6875 0.4375 5.6875 -1 3 C-0.67 2.01 -0.34 1.02 0 0 Z " fill="#9AC2AE" transform="translate(243,108)"/>
<path d="M0 0 C2.74277578 3.19990508 4.6302836 6.00499382 6 10 C4.68 10.33 3.36 10.66 2 11 C2 8.69 2 6.38 2 4 C1.34 4 0.68 4 0 4 C0 2.68 0 1.36 0 0 Z " fill="#A1C5B0" transform="translate(258,95)"/>
<path d="M0 0 C4 4.75 4 4.75 4 7 C4.66 7 5.32 7 6 7 C6 7.66 6 8.32 6 9 C5.01 9.33 4.02 9.66 3 10 C0.59185923 6.48812804 -0.36629408 4.27343092 0 0 Z " fill="#9FC4B2" transform="translate(40,232)"/>
<path d="M0 0 C0.99 0.66 1.98 1.32 3 2 C2.04956626 3.33897583 1.08940853 4.67105427 0.125 6 C-0.40867188 6.7425 -0.94234375 7.485 -1.4921875 8.25 C-1.98976562 8.8275 -2.48734375 9.405 -3 10 C-3.66 10 -4.32 10 -5 10 C-5 9.01 -5 8.02 -5 7 C-4.34 7 -3.68 7 -3 7 C-3 6.34 -3 5.68 -3 5 C-2.34 5 -1.68 5 -1 5 C-0.67 3.35 -0.34 1.7 0 0 Z " fill="#BCD3B4" transform="translate(249,235)"/>
<path d="M0 0 C0.33 0.66 0.66 1.32 1 2 C0.0625 4.625 0.0625 4.625 -1 7 C-1.99 7 -2.98 7 -4 7 C-4.99 8.485 -4.99 8.485 -6 10 C-6.66 9.34 -7.32 8.68 -8 8 C-5.36 5.36 -2.72 2.72 0 0 Z " fill="#B9D0AC" transform="translate(231,227)"/>
<path d="M0 0 C0.66 0 1.32 0 2 0 C0.8905928 3.48670834 -0.26337666 6.77484237 -2 10 C-2.66 10 -3.32 10 -4 10 C-4 8.35 -4 6.7 -4 5 C-3.01 5 -2.02 5 -1 5 C-0.67 3.35 -0.34 1.7 0 0 Z " fill="#85BDB4" transform="translate(63,111)"/>
<path d="M0 0 C1.03348696 3.10046087 1.17755913 4.05610218 0 7 C-0.99 7.33 -1.98 7.66 -3 8 C-3.99 7.01 -4.98 6.02 -6 5 C-5.34 5 -4.68 5 -4 5 C-3.67 4.01 -3.34 3.02 -3 2 C-2.01 1.34 -1.02 0.68 0 0 Z " fill="#4DA299" transform="translate(62,45)"/>
<path d="M0 0 C3.3 0 6.6 0 10 0 C10 1.32 10 2.64 10 4 C9.34 4 8.68 4 8 4 C8 3.34 8 2.68 8 2 C5.36 2 2.72 2 0 2 C0 1.34 0 0.68 0 0 Z " fill="#8ABCB0" transform="translate(160,38)"/>
<path d="M0 0 C4.455 0.99 4.455 0.99 9 2 C5.3558226 4.4294516 3.28758728 4.16179575 -1 4 C-0.67 2.68 -0.34 1.36 0 0 Z " fill="#7CB6A7" transform="translate(194,18)"/>
<path d="M0 0 C-0.66 1.32 -1.32 2.64 -2 4 C-4.64 3.67 -7.28 3.34 -10 3 C-6.88378718 -0.11621282 -4.21175599 -0.11383124 0 0 Z " fill="#7AB7AC" transform="translate(113,46)"/>
<path d="M0 0 C1.32 0.66 2.64 1.32 4 2 C2.35 2.66 0.7 3.32 -1 4 C-1 4.66 -1 5.32 -1 6 C-2.98 6.99 -2.98 6.99 -5 8 C-5 7.01 -5 6.02 -5 5 C-4.01 5 -3.02 5 -2 5 C-2.33 4.01 -2.66 3.02 -3 2 C-2.01 1.34 -1.02 0.68 0 0 Z " fill="#A9C8B0" transform="translate(112,264)"/>
<path d="M0 0 C0.66 0 1.32 0 2 0 C2.1953125 6.0546875 2.1953125 6.0546875 2 8 C1.34 8.66 0.68 9.32 0 10 C-0.74926071 6.33694766 -1.2380014 3.57644848 0 0 Z " fill="#70AF9C" transform="translate(51,177)"/>
<path d="M0 0 C2.33524782 2.25740623 4.18705073 4.2805761 6 7 C3.69 7 1.38 7 -1 7 C-0.67 4.69 -0.34 2.38 0 0 Z " fill="#C4D5E0" transform="translate(122,152)"/>
<path d="M0 0 C0.99 0.33 1.98 0.66 3 1 C3 3.31 3 5.62 3 8 C2.34 8 1.68 8 1 8 C0.34 5.69 -0.32 3.38 -1 1 C-0.67 0.67 -0.34 0.34 0 0 Z " fill="#83B1A4" transform="translate(49,149)"/>
<path d="M0 0 C0 0.99 0 1.98 0 3 C-1.98 3.33 -3.96 3.66 -6 4 C-6 3.34 -6 2.68 -6 2 C-6.99 1.67 -7.98 1.34 -9 1 C-5.92677456 0.08941469 -3.19902639 -0.08886184 0 0 Z " fill="#7DBAAF" transform="translate(132,40)"/>
<path d="M0 0 C1.65 0.33 3.3 0.66 5 1 C5 1.66 5 2.32 5 3 C-0.41538462 6.07692308 -0.41538462 6.07692308 -3.375 5.6875 C-3.91125 5.460625 -4.4475 5.23375 -5 5 C-4.67 4.34 -4.34 3.68 -4 3 C-2.02 3.495 -2.02 3.495 0 4 C0 2.68 0 1.36 0 0 Z " fill="#78B5AC" transform="translate(86,41)"/>
<path d="M0 0 C2.8992226 0.46761655 3.86675182 0.86675182 6 3 C5.625 5.125 5.625 5.125 5 7 C3 5.625 3 5.625 1 4 C1 3.34 1 2.68 1 2 C0.34 1.67 -0.32 1.34 -1 1 C-0.67 0.67 -0.34 0.34 0 0 Z " fill="#9CC0AA" transform="translate(56,271)"/>
<path d="M0 0 C1.32 0.33 2.64 0.66 4 1 C3.34 2.98 2.68 4.96 2 7 C1.34 7 0.68 7 0 7 C0 5.68 0 4.36 0 3 C-0.66 2.67 -1.32 2.34 -2 2 C-1.34 2 -0.68 2 0 2 C0 1.34 0 0.68 0 0 Z " fill="#9AC2A1" transform="translate(117,256)"/>
<path d="M0 0 C0.99 0.33 1.98 0.66 3 1 C2.67 1.99 2.34 2.98 2 4 C2.66 4.66 3.32 5.32 4 6 C3.01 6.33 2.02 6.66 1 7 C0.34 6.67 -0.32 6.34 -1 6 C-1.042721 4.33388095 -1.04063832 2.66617115 -1 1 C-0.67 0.67 -0.34 0.34 0 0 Z " fill="#98C0A8" transform="translate(76,251)"/>
<path d="M0 0 C1.32 0 2.64 0 4 0 C4 0.66 4 1.32 4 2 C2.46875 3.2890625 2.46875 3.2890625 0.5 4.625 C-0.1496875 5.07101563 -0.799375 5.51703125 -1.46875 5.9765625 C-1.9740625 6.31429687 -2.479375 6.65203125 -3 7 C-2.25 2.25 -2.25 2.25 0 0 Z " fill="#C1D3AF" transform="translate(236,249)"/>
<path d="M0 0 C0.66 0 1.32 0 2 0 C2 3.3 2 6.6 2 10 C0.68 8.35 -0.64 6.7 -2 5 C-1.34 3.35 -0.68 1.7 0 0 Z " fill="#B2C1AA" transform="translate(275,172)"/>
<path d="M0 0 C0.33 0 0.66 0 1 0 C1.33 3.63 1.66 7.26 2 11 C1.01 11.33 0.02 11.66 -1 12 C-0.67 8.04 -0.34 4.08 0 0 Z " fill="#9FC4BC" transform="translate(5,147)"/>
<path d="M0 0 C0.66 0.33 1.32 0.66 2 1 C1.649375 1.94875 1.29875 2.8975 0.9375 3.875 C-0.35026777 6.87060172 -0.35026777 6.87060172 1 9 C0.01 8.67 -0.98 8.34 -2 8 C-2 5.69 -2 3.38 -2 1 C-1.34 0.67 -0.68 0.34 0 0 Z " fill="#72B1A0" transform="translate(36,149)"/>
<path d="M0 0 C1.32 0.99 2.64 1.98 4 3 C2.02 4.32 0.04 5.64 -2 7 C-2 5.35 -2 3.7 -2 2 C-1.34 2 -0.68 2 0 2 C0 1.34 0 0.68 0 0 Z " fill="#5EA899" transform="translate(44,106)"/>
<path d="M0 0 C0.66 0.33 1.32 0.66 2 1 C0.62845496 3.95409701 -0.98863724 6.44008376 -3 9 C-3.66 8.34 -4.32 7.68 -5 7 C-3.35 4.69 -1.7 2.38 0 0 Z " fill="#84BDB3" transform="translate(62,77)"/>
<path d="M0 0 C0.33 0.66 0.66 1.32 1 2 C1.66 2 2.32 2 3 2 C4.625 4.5 4.625 4.5 6 7 C5.01 7.33 4.02 7.66 3 8 C1.5 6.8125 1.5 6.8125 0 5 C-0.1875 2.3125 -0.1875 2.3125 0 0 Z " fill="#9DC3B1" transform="translate(241,73)"/>
<path d="M0 0 C0.33 0.66 0.66 1.32 1 2 C1.66 2 2.32 2 3 2 C3.33 2.66 3.66 3.32 4 4 C4.99 4 5.98 4 7 4 C6.34 5.32 5.68 6.64 5 8 C2.69 6.02 0.38 4.04 -2 2 C-1.34 1.34 -0.68 0.68 0 0 Z " fill="#A7C9BB" transform="translate(237,53)"/>
<path d="M0 0 C1.98 0.66 3.96 1.32 6 2 C4.35 3.32 2.7 4.64 1 6 C0.01 5.01 -0.98 4.02 -2 3 C-1.34 3 -0.68 3 0 3 C0 2.01 0 1.02 0 0 Z " fill="#89BFAF" transform="translate(210,23)"/>
<path d="M0 0 C0 0.99 0 1.98 0 3 C-1.65 3.33 -3.3 3.66 -5 4 C-5.33 2.68 -5.66 1.36 -6 0 C-3.50907189 -1.24546405 -2.58919267 -0.7767578 0 0 Z " fill="#BBCEA4" transform="translate(222,291)"/>
<path d="M0 0 C0.33 0.99 0.66 1.98 1 3 C1.66 3 2.32 3 3 3 C3.33 4.32 3.66 5.64 4 7 C2.33333333 7 0.66666667 7 -1 7 C-1 6.34 -1 5.68 -1 5 C-1.66 4.67 -2.32 4.34 -3 4 C-2.01 2.68 -1.02 1.36 0 0 Z " fill="#97C5B1" transform="translate(36,225)"/>
<path d="M0 0 C0.66 1.32 1.32 2.64 2 4 C1.01 5.485 1.01 5.485 0 7 C-0.66 7 -1.32 7 -2 7 C-2 7.99 -2 8.98 -2 10 C-2.66 10 -3.32 10 -4 10 C-2.66666667 6.66666667 -1.33333333 3.33333333 0 0 Z " fill="#BCD2B7" transform="translate(248,199)"/>
<path d="M0 0 C0.33 1.32 0.66 2.64 1 4 C1.99 4 2.98 4 4 4 C3.67 4.99 3.34 5.98 3 7 C1.68 7 0.36 7 -1 7 C-1 7.66 -1 8.32 -1 9 C-1.66 8.67 -2.32 8.34 -3 8 C-2.01 5.36 -1.02 2.72 0 0 Z " fill="#BBD5B8" transform="translate(271,183)"/>
<path d="M0 0 C0.66 0 1.32 0 2 0 C2.66 2.31 3.32 4.62 4 7 C3.34 7 2.68 7 2 7 C1.67 7.99 1.34 8.98 1 10 C0.67 6.7 0.34 3.4 0 0 Z " fill="#94BCB0" transform="translate(33,184)"/>
<path d="M0 0 C0.66 0.99 1.32 1.98 2 3 C5.06556598 3.73343428 5.06556598 3.73343428 8 4 C7.67 4.99 7.34 5.98 7 7 C3.22454612 5.90931332 0.52956528 5.0916909 -2 2 C-1.34 2 -0.68 2 0 2 C0 1.34 0 0.68 0 0 Z " fill="#9BC8BA" transform="translate(216,39)"/>
<path d="M0 0 C1.98 0 3.96 0 6 0 C5.34 1.32 4.68 2.64 4 4 C2.68 3.67 1.36 3.34 0 3 C0 2.01 0 1.02 0 0 Z " fill="#4CA89E" transform="translate(93,27)"/>
<path d="M0 0 C6.75 0.75 6.75 0.75 9 3 C9 3.99 9 4.98 9 6 C8.34 6 7.68 6 7 6 C7 5.34 7 4.68 7 4 C6.030625 3.71125 5.06125 3.4225 4.0625 3.125 C1 2 1 2 0 0 Z " fill="#BFD4BA" transform="translate(190,264)"/>
<path d="M0 0 C0.99 0 1.98 0 3 0 C1.25 5.75 1.25 5.75 -1 8 C-1.625 5.6875 -1.625 5.6875 -2 3 C-1.34 2.01 -0.68 1.02 0 0 Z " fill="#BBD0B5" transform="translate(267,204)"/>
<path d="M0 0 C2.1519437 3.22791555 2.20086443 4.28400809 2 8 C1.01 7.67 0.02 7.34 -1 7 C-1.04254356 5.00045254 -1.04080783 2.99958364 -1 1 C-0.67 0.67 -0.34 0.34 0 0 Z " fill="#B1CAB1" transform="translate(261,175)"/>
<path d="M0 0 C0.33 3.63 0.66 7.26 1 11 C-0.66905241 7.66189518 -1.8741386 4.53842155 -3 1 C-1 0 -1 0 0 0 Z " fill="#B4D0BA" transform="translate(276,137)"/>
<path d="M0 0 C1.9375 0.75 1.9375 0.75 4 2 C4.75 4.125 4.75 4.125 5 6 C2.5625 5.1875 2.5625 5.1875 0 4 C-0.33 3.01 -0.66 2.02 -1 1 C-0.67 0.67 -0.34 0.34 0 0 Z " fill="#A0C5A7" transform="translate(80,287)"/>
<path d="M0 0 C1.32 0.66 2.64 1.32 4 2 C2.68 2.99 1.36 3.98 0 5 C-1.32 4.34 -2.64 3.68 -4 3 C-2.68 2.01 -1.36 1.02 0 0 Z " fill="#BDD0B3" transform="translate(229,255)"/>
<path d="M0 0 C2.29633824 3.44450737 2.54016485 5.93812283 3 10 C0.51280729 7.08025204 -0.58572305 4.83206182 -1 1 C-0.67 0.67 -0.34 0.34 0 0 Z " fill="#9BBDB0" transform="translate(39,202)"/>
<path d="M0 0 C0.66 0 1.32 0 2 0 C1.67 2.31 1.34 4.62 1 7 C0.01 6.34 -0.98 5.68 -2 5 C-1.125 1.125 -1.125 1.125 0 0 Z " fill="#B1CAA8" transform="translate(298,191)"/>
<path d="M0 0 C0.66 0.33 1.32 0.66 2 1 C2 1.99 2 2.98 2 4 C2.99 4 3.98 4 5 4 C4.67 5.32 4.34 6.64 4 8 C3.34 8 2.68 8 2 8 C1.87625 7.030625 1.7525 6.06125 1.625 5.0625 C1.41875 4.051875 1.2125 3.04125 1 2 C0.34 1.67 -0.32 1.34 -1 1 C-0.67 0.67 -0.34 0.34 0 0 Z " fill="#6EB09C" transform="translate(34,182)"/>
<path d="M0 0 C2.30441554 3.45662331 2.25860135 4.94857881 2 9 C1.67 9.66 1.34 10.32 1 11 C0.34 11 -0.32 11 -1 11 C-1 9.68 -1 8.36 -1 7 C-0.34 7 0.32 7 1 7 C0.67 4.69 0.34 2.38 0 0 Z " fill="#D3E2E8" transform="translate(190,167)"/>
<path d="M0 0 C1.32 1.32 2.64 2.64 4 4 C3.67 4.99 3.34 5.98 3 7 C2.01 7 1.02 7 0 7 C-1.125 2.25 -1.125 2.25 0 0 Z " fill="#70B5AC" transform="translate(19,96)"/>
<path d="M0 0 C2.66735273 2.48952921 4.55746343 4.63408134 6 8 C4.68 7.67 3.36 7.34 2 7 C1.34 4.69 0.68 2.38 0 0 Z " fill="#97C2AD" transform="translate(251,85)"/>
<path d="M0 0 C0.66 0 1.32 0 2 0 C1.67 1.98 1.34 3.96 1 6 C-0.32 6.33 -1.64 6.66 -3 7 C-2.01 4.69 -1.02 2.38 0 0 Z " fill="#84BBB2" transform="translate(27,81)"/>
<path d="M0 0 C0.99 0.66 1.98 1.32 3 2 C2.67 2.99 2.34 3.98 2 5 C0.02 4.34 -1.96 3.68 -4 3 C-2.68 2.01 -1.36 1.02 0 0 Z " fill="#96C1B4" transform="translate(198,65)"/>
<path d="M0 0 C0.66 0 1.32 0 2 0 C2.33 0.66 2.66 1.32 3 2 C3.99 2.66 4.98 3.32 6 4 C5.67 4.66 5.34 5.32 5 6 C2.525 5.01 2.525 5.01 0 4 C0 2.66666667 0 1.33333333 0 0 Z " fill="#AACDB4" transform="translate(91,264)"/>
<path d="M0 0 C0.95904856 3.83619425 0.91892116 5.32431536 0 9 C-0.99 9 -1.98 9 -3 9 C-2.01 6.03 -1.02 3.06 0 0 Z " fill="#C1D4B4" transform="translate(277,213)"/>
<path d="M0 0 C0.66 0 1.32 0 2 0 C2.33 2.64 2.66 5.28 3 8 C1.5 6.8125 1.5 6.8125 0 5 C-0.1875 2.3125 -0.1875 2.3125 0 0 Z " fill="#CAD4D9" transform="translate(162,179)"/>
<path d="M0 0 C2.475 0.495 2.475 0.495 5 1 C4.67 2.32 4.34 3.64 4 5 C3.01 4.67 2.02 4.34 1 4 C0.3125 1.9375 0.3125 1.9375 0 0 Z " fill="#B7C7B3" transform="translate(265,178)"/>
<path d="M0 0 C0.66 0 1.32 0 2 0 C1.34 3.3 0.68 6.6 0 10 C-0.33 10 -0.66 10 -1 10 C-1.125 2.25 -1.125 2.25 0 0 Z " fill="#B9CEBC" transform="translate(273,164)"/>
<path d="M0 0 C0.66 0 1.32 0 2 0 C2 1.98 2 3.96 2 6 C1.01 5.67 0.02 5.34 -1 5 C-1.33 5.66 -1.66 6.32 -2 7 C-1.125 2.25 -1.125 2.25 0 0 Z " fill="#BCD1E0" transform="translate(164,161)"/>
<path d="M0 0 C0.33 1.32 0.66 2.64 1 4 C1.66 4 2.32 4 3 4 C3 5.65 3 7.3 3 9 C1.68 8.34 0.36 7.68 -1 7 C-0.67 4.69 -0.34 2.38 0 0 Z " fill="#9BC6BE" transform="translate(34,128)"/>
<path d="M0 0 C2.12046792 3.53411321 2.53199289 6.94393835 3 11 C1.5 10 1.5 10 0 8 C-0.27345479 5.28153765 -0.13491285 2.74322801 0 0 Z " fill="#B3CFBA" transform="translate(272,125)"/>
<path d="M0 0 C0.66 0.33 1.32 0.66 2 1 C1.01 2.98 0.02 4.96 -1 7 C-2.32 6.67 -3.64 6.34 -5 6 C-5 5.34 -5 4.68 -5 4 C-4.01 3.67 -3.02 3.34 -2 3 C-1.34 2.01 -0.68 1.02 0 0 Z " fill="#52A79C" transform="translate(29,84)"/>
<path d="M0 0 C-0.3125 1.9375 -0.3125 1.9375 -1 4 C-1.99 4.33 -2.98 4.66 -4 5 C-4.66 4.34 -5.32 3.68 -6 3 C-2.25 0 -2.25 0 0 0 Z " fill="#C4D2D9" transform="translate(150,80)"/>
<path d="M0 0 C1.67542976 0.28604898 3.34385343 0.61781233 5 1 C3.35 2.32 1.7 3.64 0 5 C-0.5625 3.0625 -0.5625 3.0625 -1 1 C-0.67 0.67 -0.34 0.34 0 0 Z " fill="#6FAEA8" transform="translate(61,59)"/>
<path d="M0 0 C1.32 0.33 2.64 0.66 4 1 C4.33 2.32 4.66 3.64 5 5 C2.525 4.01 2.525 4.01 0 3 C0 2.01 0 1.02 0 0 Z " fill="#6FB39C" transform="translate(224,33)"/>
<path d="" fill="#FFFFFF" transform="translate(0,0)"/>
<path d="" fill="#FFFFFF" transform="translate(0,0)"/>
<path d="" fill="#FFFFFF" transform="translate(0,0)"/>
<path d="" fill="#FFFFFF" transform="translate(0,0)"/>
<path d="" fill="#FFFFFF" transform="translate(0,0)"/>
<path d="" fill="#FFFFFF" transform="translate(0,0)"/>
<path d="" fill="#FFFFFF" transform="translate(0,0)"/>
<path d="" fill="#FFFFFF" transform="translate(0,0)"/>
<path d="" fill="#FFFFFF" transform="translate(0,0)"/>
<path d="" fill="#FFFFFF" transform="translate(0,0)"/>
<path d="" fill="#FFFFFF" transform="translate(0,0)"/>
<path d="" fill="#FFFFFF" transform="translate(0,0)"/>
<path d="" fill="#FFFFFF" transform="translate(0,0)"/>
<path d="" fill="#FFFFFF" transform="translate(0,0)"/>
<path d="" fill="#FFFFFF" transform="translate(0,0)"/>
<path d="" fill="#FFFFFF" transform="translate(0,0)"/>
<path d="" fill="#FFFFFF" transform="translate(0,0)"/>
<path d="" fill="#FFFFFF" transform="translate(0,0)"/>
</svg>
